<svg xmlns="http://www.w3.org/2000/svg" width="600" height="600" fill="none" xmlns:v="https://vecta.io/nano"><style><![CDATA[.B{fill:#1b1c17}.C{fill:#0668e1}.D{fill:#fff}.E{fill:#e5e5e5}.F{fill:#f4f4f4}.G{color-interpolation-filters:sRGB}]]></style><path d="M396.94 568.44H202.15c-20.76 0-37.59-18.12-37.59-40.47V69.2c0-22.35 16.83-40.47 37.59-40.47h194.79c20.76 0 37.59 18.12 37.59 40.47v458.77c0 22.35-16.83 40.47-37.59 40.47z" fill="#e3f4fc"/><g clip-path="url(#D)"><rect x="168" y="33" width="264" height="530" rx="30" class="D"/><path d="M188.44 139.42h1.43a3.3 3.3 0 0 1-.46 1.46c-.26.42-.62.76-1.09 1s-1.04.37-1.71.37a3.4 3.4 0 0 1-1.39-.27c-.41-.19-.77-.45-1.06-.79s-.52-.76-.68-1.24a5.4 5.4 0 0 1-.23-1.63v-.69a5.3 5.3 0 0 1 .23-1.63 3.6 3.6 0 0 1 .69-1.24c.3-.35.66-.61 1.07-.8a3.5 3.5 0 0 1 1.41-.28c.66 0 1.23.12 1.69.37s.81.58 1.06 1.01.41.93.47 1.48h-1.43c-.04-.36-.12-.67-.25-.92a1.3 1.3 0 0 0-.56-.58 2 2 0 0 0-.97-.21 1.9 1.9 0 0 0-.86.18c-.25.12-.45.3-.61.54a2.6 2.6 0 0 0-.37.88c-.08.34-.12.74-.12 1.18v.71c0 .42.04.8.11 1.15s.19.63.34.88.35.43.6.57.53.2.87.2c.41 0 .74-.06.99-.19a1.3 1.3 0 0 0 .58-.57c.13-.25.22-.56.26-.92zm3.96-6.09v8.8h-1.37v-8.8h1.38zm-.24 5.47l-.45-.01c0-.43.06-.82.18-1.19s.28-.68.49-.94c.21-.27.47-.48.77-.62s.63-.22.99-.22c.31 0 .58.04.82.13s.46.22.64.41c.18.18.31.42.41.72s.14.65.14 1.08v3.98h-1.39v-3.99a1.6 1.6 0 0 0-.13-.71c-.08-.18-.21-.3-.37-.38s-.36-.12-.6-.12c-.25 0-.47.05-.66.15s-.34.23-.47.41-.22.37-.29.6a2.7 2.7 0 0 0-.09.72zm8.89 2.08v-2.96c0-.22-.04-.41-.12-.57s-.2-.28-.37-.37-.36-.13-.61-.13c-.22 0-.42.04-.58.11s-.29.18-.38.31-.14.28-.14.44h-1.37c0-.25.06-.48.18-.71a1.9 1.9 0 0 1 .52-.61 2.6 2.6 0 0 1 .81-.42c.31-.1.66-.15 1.05-.15.47 0 .88.08 1.24.24s.65.39.85.71.31.71.31 1.18v2.76a4.6 4.6 0 0 0 .06.76c.04.22.1.41.18.58v.09h-1.42c-.06-.15-.12-.34-.15-.57a4.7 4.7 0 0 1-.05-.68zm.2-2.53l.01.85h-.99c-.25 0-.48.02-.68.07-.19.04-.36.11-.49.21s-.23.2-.29.33-.1.28-.1.44.04.32.11.45.19.24.33.31.33.12.54.12c.28 0 .53-.06.74-.17s.38-.26.5-.43.19-.33.19-.49l.45.61c-.05.16-.12.32-.24.5s-.26.35-.44.52-.39.29-.64.39-.53.16-.85.16c-.41 0-.77-.08-1.08-.24s-.57-.38-.75-.66-.27-.59-.27-.95c0-.33.06-.62.18-.87a1.7 1.7 0 0 1 .55-.64c.25-.17.54-.3.89-.39s.75-.14 1.2-.14h1.08zm4.02-1.25v5.02h-1.38v-6.2h1.32l.06 1.18zm1.9-1.22l-.01 1.28a2.6 2.6 0 0 0-.28-.03l-.29-.01c-.24 0-.44.03-.62.1s-.33.16-.45.29-.21.27-.27.45-.1.37-.12.59l-.31.02a4.8 4.8 0 0 1 .11-1.08c.08-.33.19-.62.34-.88s.35-.45.59-.59.51-.21.82-.21c.08 0 .17.01.27.02s.17.03.22.05zm3.99.04v1.01h-3.5v-1.01h3.5zm-2.49-1.52h1.38v6c0 .19.03.34.08.44s.14.17.23.2.22.05.35.05c.09 0 .19-.01.28-.02l.21-.03v1.05a3.6 3.6 0 0 1-.4.09 2.9 2.9 0 0 1-.51.04c-.32 0-.6-.05-.84-.17s-.44-.3-.57-.56-.21-.6-.21-1.02v-6.09zm5.03 1.52v6.2h-1.39v-6.2h1.39zm-1.48-1.63c0-.21.07-.38.21-.52s.34-.21.58-.21.44.07.58.21.21.31.21.52-.07.38-.21.52-.33.21-.58.21-.44-.07-.58-.21a.7.7 0 0 1-.21-.52zm4.36 2.95v4.88h-1.38v-6.2h1.3l.08 1.32zm-.25 1.55l-.45-.01c0-.44.06-.84.18-1.21s.29-.68.5-.94.48-.47.78-.61a2.3 2.3 0 0 1 1.01-.22c.3 0 .57.04.81.13s.45.21.62.4.31.42.4.72a3.6 3.6 0 0 1 .14 1.07v4h-1.39v-4.01c0-.3-.04-.53-.13-.7s-.21-.3-.37-.37-.36-.11-.6-.11-.45.05-.64.15-.35.23-.48.41-.22.37-.29.6-.1.47-.1.72zm9.38-2.87h1.25v6.03c0 .56-.12 1.03-.35 1.42s-.57.69-.99.89-.91.31-1.47.31a3.5 3.5 0 0 1-.79-.1c-.29-.07-.56-.18-.84-.33s-.49-.34-.67-.59l.65-.81c.22.26.47.46.73.58a2 2 0 0 0 .84.18 1.7 1.7 0 0 0 .81-.18 1.2 1.2 0 0 0 .52-.51 1.7 1.7 0 0 0 .18-.82v-4.65l.13-1.4zm-4.21 3.17v-.12a4.5 4.5 0 0 1 .17-1.28c.11-.39.28-.72.49-1s.47-.5.78-.65.65-.23 1.04-.23c.4 0 .74.07 1.03.22s.53.35.72.63a3.1 3.1 0 0 1 .45.96c.11.37.19.78.25 1.24v.38a6.1 6.1 0 0 1-.25 1.21c-.12.37-.28.68-.47.95a2 2 0 0 1-.72.62c-.28.15-.62.22-1 .22-.38 0-.72-.08-1.03-.23s-.56-.38-.78-.66a3.1 3.1 0 0 1-.49-1c-.12-.39-.17-.8-.17-1.25zm1.38-.12v.12c0 .28.03.55.08.79a2.2 2.2 0 0 0 .26.65c.12.18.27.33.45.44a1.3 1.3 0 0 0 .65.16c.32 0 .59-.07.8-.21s.37-.32.48-.56a2.8 2.8 0 0 0 .24-.79v-1.04c-.02-.22-.07-.44-.14-.63a1.7 1.7 0 0 0-.28-.51c-.12-.15-.27-.26-.45-.34s-.39-.13-.64-.13-.46.05-.65.16-.33.25-.45.44c-.11.19-.2.41-.26.65s-.09.51-.09.8zm11.28-3.05v1.01h-3.5v-1.01h3.5zm-2.49-1.52h1.38v6c0 .19.03.34.08.44s.13.17.24.2.22.05.35.05c.1 0 .19-.01.28-.02l.21-.03.01 1.05c-.11.03-.25.06-.4.09s-.32.04-.52.04c-.32 0-.6-.05-.84-.17s-.44-.3-.57-.56-.21-.6-.21-1.02v-6.09zm4.91-1.08v8.8h-1.37v-8.8h1.38zm-.24 5.47l-.45-.01c0-.43.06-.82.18-1.19s.28-.68.49-.94c.21-.27.47-.48.77-.62s.63-.22.99-.22c.31 0 .58.04.83.13s.46.22.64.41c.18.18.31.42.41.72a3.5 3.5 0 0 1 .14 1.08v3.98h-1.39v-3.99a1.6 1.6 0 0 0-.13-.71c-.08-.18-.21-.3-.37-.38s-.37-.12-.6-.12c-.25 0-.47.05-.66.15s-.34.23-.47.41-.22.37-.29.6-.09.47-.09.72zm8.13 3.44a3.3 3.3 0 0 1-1.24-.22c-.37-.15-.68-.36-.94-.63s-.45-.59-.59-.96-.21-.76-.21-1.19v-.23a3.9 3.9 0 0 1 .21-1.32 3 3 0 0 1 .59-1.01c.25-.28.55-.5.89-.65s.72-.22 1.12-.22c.44 0 .83.07 1.16.22s.61.36.82.63c.22.27.39.59.49.96s.17.78.17 1.23v.59h-4.79v-.99h3.43v-.11c-.01-.25-.06-.48-.15-.7a1.2 1.2 0 0 0-.41-.53c-.18-.13-.43-.2-.73-.2-.23 0-.43.05-.61.15s-.32.24-.44.42-.21.41-.27.66-.09.54-.09.87v.23c0 .27.04.52.11.76a1.8 1.8 0 0 0 .33.6c.15.17.32.31.53.41s.44.14.71.14c.33 0 .63-.07.89-.2s.48-.32.68-.57l.73.71c-.13.19-.31.38-.52.56s-.48.32-.79.43-.66.17-1.07.17zm8.06-8.46v8.34h-1.44v-8.34h1.44zm3.4 3.65v1.14h-3.77v-1.14h3.77zm.48-3.65v1.15h-4.25v-1.15h4.25zm4.61 6.88v-4.74h1.39v6.2h-1.31l-.08-1.46zm.2-1.29l.46-.01a4.6 4.6 0 0 1-.14 1.15c-.09.35-.23.65-.42.91s-.44.46-.73.6-.66.21-1.07.21a2.5 2.5 0 0 1-.83-.13 1.7 1.7 0 0 1-.65-.41c-.18-.18-.32-.42-.42-.72s-.15-.64-.15-1.05v-4h1.38v4.02c0 .23.03.42.08.57s.13.27.22.36.2.16.32.19.25.06.39.06c.39 0 .7-.08.93-.23s.39-.37.49-.63a2.5 2.5 0 0 0 .15-.89zm5.45-3.45v1.01h-3.49v-1.01h3.49zm-2.49-1.52h1.38v6c0 .19.03.34.08.44s.14.17.24.2.22.05.35.05c.1 0 .19-.01.28-.02l.21-.03v1.05c-.12.03-.25.06-.4.09s-.32.04-.52.04c-.32 0-.6-.05-.84-.17s-.44-.3-.57-.56-.21-.6-.21-1.02v-6.09zm7.28 6.26v-4.74h1.39v6.2h-1.31l-.08-1.46zm.19-1.29l.46-.01c0 .42-.05.8-.14 1.15s-.23.65-.42.91-.44.46-.73.6-.65.21-1.07.21a2.5 2.5 0 0 1-.83-.13 1.7 1.7 0 0 1-.65-.41c-.18-.18-.32-.42-.42-.72s-.15-.64-.15-1.05v-4h1.38v4.02c0 .23.03.42.08.57s.13.27.22.36.2.16.32.19.25.06.39.06c.39 0 .7-.08.93-.23s.39-.37.49-.63a2.5 2.5 0 0 0 .15-.89zm3.99-2.27v5.02h-1.38v-6.2h1.32l.06 1.18zm1.9-1.22l-.01 1.28a2.6 2.6 0 0 0-.27-.03l-.29-.01c-.24 0-.45.03-.62.1s-.33.16-.45.29-.21.27-.28.45-.1.37-.11.59l-.32.02c0-.39.04-.75.12-1.08s.19-.62.34-.88.35-.45.58-.59.51-.21.82-.21c.08 0 .17.01.27.02s.17.03.22.05zm3.48 6.35a3.3 3.3 0 0 1-1.24-.22c-.37-.15-.68-.36-.94-.63s-.45-.59-.59-.96-.21-.76-.21-1.19v-.23a3.9 3.9 0 0 1 .21-1.32 3 3 0 0 1 .59-1.01c.25-.28.55-.5.89-.65s.72-.22 1.12-.22c.44 0 .83.07 1.16.22s.61.36.82.63.39.59.49.96.17.78.17 1.23v.59h-4.79v-.99h3.43v-.11c-.01-.25-.06-.48-.15-.7a1.2 1.2 0 0 0-.41-.53c-.18-.13-.43-.2-.73-.2-.23 0-.43.05-.61.15s-.32.24-.44.42-.21.41-.28.66-.09.54-.09.87v.23c0 .27.04.52.11.76a1.8 1.8 0 0 0 .33.6c.14.17.32.31.53.41s.44.14.71.14c.33 0 .63-.07.89-.2s.49-.32.68-.57l.73.71c-.13.19-.31.38-.52.56s-.48.32-.79.43-.66.17-1.07.17zm6.22-3.14v-.13c0-.45.06-.86.19-1.24s.32-.72.56-1 .55-.51.9-.66.76-.24 1.22-.24.86.08 1.21.24.66.38.91.66a2.9 2.9 0 0 1 .57 1c.13.38.2.8.2 1.24v.13c0 .45-.06.86-.2 1.24s-.32.72-.57 1-.55.5-.91.66-.76.23-1.21.23-.86-.08-1.22-.23-.66-.38-.91-.66-.44-.62-.57-1-.19-.8-.19-1.24zm1.38-.13v.13c0 .28.03.54.09.79s.15.47.27.65.28.34.47.44.42.16.68.16c.26 0 .48-.05.67-.16s.35-.25.47-.44.21-.41.27-.65a3.3 3.3 0 0 0 .09-.79v-.13a3.2 3.2 0 0 0-.09-.78c-.06-.25-.15-.47-.27-.66s-.28-.34-.47-.45-.41-.17-.67-.17-.49.06-.68.17-.34.26-.46.45-.21.41-.27.66-.09.5-.09.78zm7.41 3.16h-1.38v-6.79a2.4 2.4 0 0 1 .26-1.16 1.7 1.7 0 0 1 .75-.72c.32-.16.71-.25 1.15-.25a2.9 2.9 0 0 1 .41.03 2.6 2.6 0 0 1 .39.07l-.04 1.07c-.08-.02-.16-.03-.25-.04s-.18-.01-.29-.01c-.21 0-.39.04-.54.12a.8.8 0 0 0-.34.34c-.08.15-.12.33-.12.55v6.79zm1.28-6.2v1.01h-3.61v-1.01h3.61zm7.22-2.14v8.34h-1.43v-8.34h1.43zm2.62 0v1.15h-6.64v-1.15h6.64zm3.69 7.1v-2.96c0-.22-.04-.41-.12-.57s-.2-.28-.37-.37-.36-.13-.61-.13c-.22 0-.42.04-.58.11s-.29.18-.38.31-.14.28-.14.44h-1.37c0-.25.06-.48.18-.71a1.9 1.9 0 0 1 .52-.61 2.6 2.6 0 0 1 .81-.42c.31-.1.66-.15 1.06-.15.47 0 .88.08 1.24.24s.65.39.85.71.31.71.31 1.18v2.76a4.6 4.6 0 0 0 .06.76c.04.22.1.41.18.58v.09h-1.41c-.06-.15-.12-.34-.16-.57a4.7 4.7 0 0 1-.05-.68zm.2-2.53l.01.85h-.99c-.26 0-.48.02-.68.07-.19.04-.36.11-.49.21s-.23.2-.29.33-.1.28-.1.44.04.32.11.45a.8.8 0 0 0 .33.31c.15.08.33.12.54.12.28 0 .53-.06.74-.17s.38-.26.5-.43.19-.33.19-.49l.45.61c-.05.16-.12.32-.24.5s-.26.35-.44.52-.39.29-.64.39-.53.16-.85.16c-.41 0-.77-.08-1.08-.24s-.56-.38-.75-.66-.27-.59-.27-.95c0-.33.06-.62.18-.87a1.7 1.7 0 0 1 .55-.64c.25-.17.54-.3.89-.39s.75-.14 1.2-.14h1.08zm4.11-5.03v8.8h-1.39v-8.8h1.39zm4.25 8.91a3.3 3.3 0 0 1-1.24-.22c-.37-.15-.68-.36-.94-.63s-.45-.59-.59-.96-.21-.76-.21-1.19v-.23c0-.48.07-.92.21-1.32s.34-.73.59-1.01c.25-.28.55-.5.89-.65s.72-.22 1.12-.22c.44 0 .83.07 1.16.22a2.2 2.2 0 0 1 .82.63c.22.27.39.59.49.96a4.3 4.3 0 0 1 .17 1.23v.59h-4.79v-.99h3.43v-.11c-.01-.25-.06-.48-.15-.7s-.22-.39-.41-.53-.43-.2-.73-.2c-.23 0-.43.05-.61.15a1.2 1.2 0 0 0-.44.42c-.12.18-.21.41-.28.66s-.09.54-.09.87v.23c0 .27.04.52.11.76s.19.43.33.6.32.31.53.41.44.14.7.14a1.9 1.9 0 0 0 .89-.2c.26-.13.48-.32.68-.57l.73.71c-.13.19-.31.38-.52.56s-.48.32-.79.43-.66.17-1.07.17zm4.93-4.99v4.88h-1.38v-6.2h1.3l.08 1.32zm-.25 1.55l-.45-.01c0-.44.06-.84.18-1.21s.29-.68.5-.94.48-.47.78-.61a2.3 2.3 0 0 1 1.01-.22c.3 0 .57.04.81.13s.45.21.62.4.31.42.4.72a3.6 3.6 0 0 1 .14 1.07v4h-1.39v-4.01c0-.3-.04-.53-.13-.7s-.21-.3-.37-.37-.36-.11-.6-.11-.45.05-.63.15-.35.23-.48.41-.22.37-.29.6-.1.47-.1.72zm8.25-2.87v1.01h-3.5v-1.01h3.5zm-2.49-1.52h1.38v6c0 .19.03.34.08.44s.14.17.24.2.22.05.35.05c.09 0 .19-.01.27-.02l.21-.03v1.05a3.6 3.6 0 0 1-.4.09c-.15.03-.32.04-.52.04-.32 0-.6-.05-.84-.17s-.44-.3-.57-.56-.21-.6-.21-1.02v-6.09zm9.86.49l-2.49 7.23h-1.51l3.14-8.34h.96l-.1 1.11zm2.09 7.23l-2.5-7.23-.11-1.11h.97l3.15 8.34h-1.51zm-.12-3.09v1.14h-4.54v-1.14h4.54zm4.96 2.11c.23 0 .43-.04.61-.13s.33-.22.44-.38.18-.35.19-.56h1.3c-.01.4-.13.77-.36 1.09s-.53.59-.91.78-.8.29-1.25.29c-.47 0-.89-.08-1.24-.24s-.64-.39-.88-.68-.41-.62-.53-.99-.17-.78-.17-1.2v-.2a4.1 4.1 0 0 1 .17-1.2c.12-.38.29-.71.53-1a2.4 2.4 0 0 1 .88-.67c.35-.16.76-.25 1.23-.25.5 0 .93.1 1.31.3a2.2 2.2 0 0 1 .88.82c.22.35.33.75.34 1.21h-1.3c-.01-.23-.07-.44-.17-.62s-.24-.34-.42-.45a1.2 1.2 0 0 0-.65-.17c-.28 0-.51.06-.69.17-.18.11-.33.26-.43.46s-.18.41-.22.65-.06.48-.06.74v.2c0 .26.02.5.06.75s.11.46.22.65.25.34.44.45.42.17.7.17zm7.37 3.37v-7.35l.16-1.23h1.23v8.58h-1.39zm-4.03-5.42v-.12a4.8 4.8 0 0 1 .16-1.28c.11-.39.27-.72.48-1s.47-.49.77-.64.65-.23 1.04-.23c.38 0 .71.07 1 .22a2 2 0 0 1 .72.63c.2.27.36.59.47.96a6.5 6.5 0 0 1 .26 1.24v.38c-.05.44-.13.85-.25 1.22s-.28.68-.48.95-.44.47-.73.62-.62.22-1.01.22a2.2 2.2 0 0 1-1.03-.23c-.3-.16-.56-.38-.77-.66s-.36-.62-.48-1a4.7 4.7 0 0 1-.16-1.25zm1.38-.12v.12c0 .28.02.55.07.8s.14.46.25.65.26.34.44.44a1.2 1.2 0 0 0 .64.16c.32 0 .59-.07.8-.21s.37-.33.48-.57.19-.51.24-.8v-1.04c-.03-.22-.07-.44-.14-.63s-.16-.37-.29-.52-.27-.26-.45-.34-.39-.13-.63-.13c-.25 0-.46.05-.64.16s-.33.26-.44.45-.19.41-.25.65a3.8 3.8 0 0 0-.08.8zm9.25 1.69v-4.74H362v6.2h-1.31l-.08-1.46zm.19-1.29l.46-.01a4.6 4.6 0 0 1-.14 1.15c-.09.35-.23.65-.42.91s-.44.46-.73.6-.65.21-1.07.21a2.5 2.5 0 0 1-.83-.13 1.7 1.7 0 0 1-.65-.41c-.18-.18-.32-.42-.42-.72a3.3 3.3 0 0 1-.15-1.05v-4h1.38v4.02c0 .23.03.42.08.57s.13.27.22.36.2.16.32.19.25.06.39.06c.39 0 .7-.08.93-.23s.39-.37.49-.63a2.5 2.5 0 0 0 .15-.89zm4.08-3.45v6.2h-1.39v-6.2h1.39zm-1.48-1.63c0-.21.07-.38.21-.52s.34-.21.58-.21.44.07.58.21.21.31.21.52-.07.38-.21.52-.33.21-.58.21-.44-.07-.58-.21a.7.7 0 0 1-.21-.52zm6.47 6.15c0-.14-.03-.26-.1-.37s-.2-.22-.39-.31a3.8 3.8 0 0 0-.85-.25c-.33-.07-.63-.16-.91-.26s-.5-.23-.7-.37-.34-.32-.45-.52-.16-.43-.16-.69a1.6 1.6 0 0 1 .17-.72c.11-.22.27-.42.48-.6s.46-.31.75-.41.63-.15 1-.15a3.1 3.1 0 0 1 1.34.26c.38.17.66.41.86.71s.3.63.3 1h-1.38c0-.16-.04-.32-.13-.46s-.2-.26-.37-.35-.37-.14-.62-.14c-.24 0-.43.04-.59.11s-.27.17-.34.29-.11.25-.11.39c0 .1.02.2.06.28s.11.16.21.22.23.13.39.18a5.8 5.8 0 0 0 .63.17 5.7 5.7 0 0 1 1.22.38c.34.15.61.35.79.6s.28.55.28.92c0 .28-.06.53-.18.76-.11.23-.28.42-.5.59-.22.16-.49.29-.8.38s-.65.14-1.03.14a3.1 3.1 0 0 1-1.43-.3c-.39-.2-.69-.46-.89-.77s-.3-.65-.3-.99h1.33c.01.26.09.46.21.61s.29.26.48.33a1.9 1.9 0 0 0 .6.1c.25 0 .46-.03.62-.1s.3-.16.38-.28.13-.25.13-.4zm4.04-4.52v6.2h-1.39v-6.2h1.39zm-1.48-1.63c0-.21.07-.38.21-.52s.34-.21.59-.21c.24 0 .44.07.58.21s.21.31.21.52-.07.38-.21.52-.33.21-.58.21c-.25 0-.44-.07-.59-.21a.7.7 0 0 1-.21-.52zm5.83 1.63v1.01h-3.5v-1.01h3.5zm-2.49-1.52h1.38v6c0 .19.03.34.08.44s.13.17.24.2.21.05.35.05c.1 0 .19-.01.28-.02l.21-.03.01 1.05c-.12.03-.25.06-.4.09s-.32.04-.52.04c-.32 0-.6-.05-.84-.17s-.44-.3-.57-.56-.21-.6-.21-1.02v-6.09zm5.03 1.52v6.2h-1.39v-6.2h1.39zm-1.48-1.63c0-.21.07-.38.21-.52s.34-.21.58-.21.44.07.58.21.21.31.21.52-.07.38-.21.52-.33.21-.58.21-.44-.07-.58-.21a.7.7 0 0 1-.21-.52zm2.73 4.8v-.13c0-.45.06-.86.2-1.24s.32-.72.56-1 .55-.51.9-.66.76-.24 1.22-.24.86.08 1.21.24.66.38.91.66a2.9 2.9 0 0 1 .57 1c.13.38.19.8.19 1.24v.13c0 .45-.06.86-.19 1.24s-.32.72-.57 1-.55.5-.91.66-.76.23-1.21.23-.86-.08-1.22-.23-.66-.38-.91-.66-.44-.62-.57-1-.2-.8-.2-1.24zm1.38-.13v.13c0 .28.03.54.09.79a2 2 0 0 0 .27.65c.12.19.28.34.47.44s.42.16.68.16c.26 0 .48-.05.67-.16s.35-.25.47-.44a2 2 0 0 0 .27-.65 3.3 3.3 0 0 0 .09-.79v-.13a3.2 3.2 0 0 0-.09-.78c-.06-.25-.15-.47-.28-.66s-.28-.34-.47-.45-.41-.17-.67-.17-.49.06-.68.17-.34.26-.46.45-.21.41-.27.66-.09.5-.09.78zm6.91-1.71v4.88h-1.38v-6.2h1.3l.08 1.32zm-.25 1.55l-.45-.01c0-.44.06-.84.18-1.21s.29-.68.5-.94.48-.47.78-.61a2.3 2.3 0 0 1 1.01-.22c.3 0 .57.04.81.13s.45.21.62.4.31.42.4.72a3.6 3.6 0 0 1 .14 1.07v4h-1.39v-4.01c0-.3-.04-.53-.13-.7s-.21-.3-.37-.37-.36-.11-.6-.11c-.24 0-.45.05-.64.15s-.35.23-.48.41-.22.37-.29.6-.1.47-.1.72z" class="B"/><mask id="A" class="D"><path d="M168 32.73h264v73.33H168V32.73z"/></mask><path d="M168 32.73h264v73.33H168V32.73z" class="D"/><path d="M432 106.07v-.73H168v.73.73h264v-.73z" fill="#d1d1d1" mask="url(#A)"/><path d="M412.93 87v1.47h-8.8V87h8.8zm2.2-5.13v1.47h-13.2v-1.47h13.2zm-2.2-5.13v1.47h-8.8v-1.47h8.8z" class="B"/><path d="M390.2 78.57c0 1.42-1.15 2.57-2.57 2.57s-2.57-1.15-2.57-2.57 1.15-2.57 2.57-2.57 2.57 1.15 2.57 2.57zm-1.47 3.88c-.37.1-.73.15-1.1.15-1.07 0-2.09-.43-2.85-1.18s-1.18-1.78-1.18-2.85c0-1.08.42-2.05 1.1-2.78-.13-.16-.3-.29-.49-.38s-.4-.14-.61-.14c-.81 0-1.47.66-1.47 1.47v.21c-2.18.65-3.67 2.65-3.67 4.92v4.4L377 87.73v.73h13.2v-.73l-1.47-1.47v-3.82zm-5.13 8.22c.81 0 1.47-.65 1.47-1.47h-2.93c0 .39.16.76.43 1.04s.65.43 1.04.43z" fill="#000"/><g class="C"><path d="M363.63 79.48v5.48l-.01.15c-.02.44-.04 1.04-.58 1.79-.7.98-2.05 1.91-4.02 2.79-1.97-.87-3.32-1.81-4.02-2.79-.54-.75-.56-1.35-.58-1.79v-.15-5.48h4.6 4.6zm.89-.89h-5.49-5.49v6.4c.05.91-.19 3.27 5.49 5.68 5.68-2.41 5.44-4.77 5.49-5.68v-6.4zm-5.48 6.18h-.77v2.09h-1.42v-5.9h2.32c.7 0 1.25.16 1.64.47s.59.75.59 1.32c0 .41-.08.75-.25 1.02s-.43.49-.78.66l1.23 2.38v.06h-1.52l-1.04-2.09zm-.77-1.09h.9c.27 0 .47-.07.61-.21s.2-.34.2-.59-.07-.45-.21-.6-.34-.22-.61-.22h-.9v1.62zm2.33-7.43l-1.58-1.72-1.58 1.72-1.59-.63v2.24h3.16 3.17v-2.24l-1.59.63z"/></g><path d="M338.16 85.99l3.14 3.14-1.04 1.04-3.14-3.14c-1.17.94-2.62 1.45-4.12 1.44a6.6 6.6 0 1 1 0-13.2 6.6 6.6 0 0 1 6.6 6.6c0 1.5-.51 2.95-1.44 4.12zm-1.47-.54a5.1 5.1 0 0 0 1.45-3.58c0-2.84-2.3-5.13-5.13-5.13s-5.13 2.3-5.13 5.13S330.16 87 333 87a5.1 5.1 0 0 0 3.57-1.45l.11-.11z" class="B"/><g class="C"><path d="M275.15 89.2a8.2 8.2 0 0 1-2.19-.26c-.62-.18-1.15-.5-1.58-.97-.42-.47-.73-1.14-.95-2s-.32-2-.32-3.41a14.1 14.1 0 0 1 .32-3.27 4.8 4.8 0 0 1 .99-2 3.5 3.5 0 0 1 1.62-1 7.6 7.6 0 0 1 2.17-.28 14.4 14.4 0 0 1 1.62.09l1.46.21 1.18.26v1.67a7.8 7.8 0 0 0-.91-.12l-1.33-.11-1.54-.05a5.1 5.1 0 0 0-1.5.19c-.41.12-.74.34-.99.67a3.3 3.3 0 0 0-.55 1.41c-.11.61-.17 1.4-.17 2.37 0 .96.05 1.75.15 2.36a3.9 3.9 0 0 0 .51 1.42c.24.33.56.56.97.69.42.13.94.19 1.56.19l2.34-.05 1.46-.14v1.67l-1.22.25-1.44.16a18 18 0 0 1-1.65.07zm-12.7-.02a6.8 6.8 0 0 1-1.03-.09 3.2 3.2 0 0 1-1.06-.33c-.34-.19-.62-.46-.84-.83s-.32-.86-.32-1.49v-7.49c0-.55.09-1.01.27-1.37a2.3 2.3 0 0 1 .7-.88c.3-.21.63-.36.99-.44.37-.09.73-.14 1.08-.14l2.39.04 1.94.07 1.65.09v1.81h-5.3c-.43 0-.77.1-1.03.3-.24.2-.36.51-.36.93v2.3l5.83.12v1.7l-5.83.12v2.23c0 .35.06.62.19.81.14.19.31.32.51.39.22.07.44.11.67.11h5.32v1.81l-1.82.12-2.01.05-1.94.05z"/></g><g class="B"><path d="M250.58 89.09a4.7 4.7 0 0 1-1.81-.3c-.47-.21-.81-.56-1.03-1.04-.2-.48-.3-1.11-.28-1.9l.08-4.43h-1.6v-1.41l1.67-.35.34-2.64h1.84v2.64h2.59v1.76h-2.59v4.41c0 .3.03.56.09.76a1.2 1.2 0 0 0 .27.46c.13.11.26.18.4.23a1.8 1.8 0 0 0 .44.09l1.27.12v1.6h-1.69zm-9.13.11c-.61 0-1.17-.07-1.69-.21a3.2 3.2 0 0 1-1.33-.76 3.6 3.6 0 0 1-.89-1.48c-.2-.62-.3-1.4-.3-2.34 0-.96.09-1.76.28-2.39a3.6 3.6 0 0 1 .85-1.49 3 3 0 0 1 1.33-.76c.53-.15 1.13-.23 1.81-.23a17.3 17.3 0 0 1 1.73.09 11.3 11.3 0 0 1 1.75.28v1.25h-2.77c-.61 0-1.1.09-1.48.26a1.7 1.7 0 0 0-.86.97 5.6 5.6 0 0 0-.28 2.02 5.4 5.4 0 0 0 .28 1.99c.19.45.47.75.86.91a4.2 4.2 0 0 0 1.5.23h2.91v1.23a12.6 12.6 0 0 1-1.06.23l-1.29.14-1.33.05zm-9.98-.02c-1.1 0-1.98-.14-2.64-.42-.65-.28-1.12-.77-1.41-1.46-.29-.7-.44-1.68-.44-2.92 0-1.27.14-2.24.42-2.94s.74-1.2 1.39-1.48a6.7 6.7 0 0 1 2.62-.42c.98 0 1.75.09 2.34.28.59.18 1.03.5 1.29.97.28.46.42 1.11.42 1.95 0 .6-.13 1.08-.38 1.44-.25.35-.62.6-1.1.76-.47.15-1.03.23-1.67.23h-2.98c.03.59.11 1.05.25 1.41a1.4 1.4 0 0 0 .8.74c.39.15.96.23 1.71.23h3.08v1.28l-1.65.25a16.9 16.9 0 0 1-2.03.11zm-2.17-5.33h2.78c.44 0 .77-.08.97-.23.22-.16.32-.46.32-.88 0-.41-.06-.73-.19-.97s-.34-.4-.63-.49c-.29-.11-.67-.16-1.14-.16-.53 0-.95.08-1.25.23s-.53.43-.66.83c-.13.39-.19.94-.19 1.67zm-13.26 5.25v-9.42h1.92l.44.98a7.3 7.3 0 0 1 1.52-.79 5.2 5.2 0 0 1 1.88-.35c.8 0 1.43.15 1.88.46a2.4 2.4 0 0 1 .97 1.2 4.4 4.4 0 0 1 .3 1.65v6.27h-2.36v-6.01c0-.34-.07-.63-.21-.86s-.33-.42-.59-.54c-.24-.13-.54-.19-.89-.19a4.7 4.7 0 0 0-.93.09 3.7 3.7 0 0 0-.8.26l-.78.42v6.84h-2.36zm-11.26 0v-9.42h1.92l.44.98a7.3 7.3 0 0 1 1.52-.79 5.2 5.2 0 0 1 1.88-.35c.8 0 1.43.15 1.88.46a2.4 2.4 0 0 1 .97 1.2 4.4 4.4 0 0 1 .3 1.65v6.27h-2.36v-6.01c0-.34-.07-.63-.21-.86a1.4 1.4 0 0 0-.59-.54c-.24-.13-.54-.19-.89-.19a4.6 4.6 0 0 0-.93.09c-.28.06-.55.15-.8.26s-.51.26-.78.42v6.84h-2.36zm-6.7.08c-.8 0-1.49-.08-2.07-.23a3.1 3.1 0 0 1-1.43-.77 3.3 3.3 0 0 1-.82-1.48 8.7 8.7 0 0 1-.27-2.34 8.8 8.8 0 0 1 .27-2.39c.18-.63.45-1.12.82-1.48a3 3 0 0 1 1.44-.74c.58-.14 1.27-.21 2.05-.21.81 0 1.51.08 2.09.23a3.1 3.1 0 0 1 1.43.74c.37.35.64.84.82 1.48a8.7 8.7 0 0 1 .27 2.37 8.8 8.8 0 0 1-.27 2.37c-.16.62-.43 1.11-.8 1.48-.37.35-.84.6-1.43.76a9.1 9.1 0 0 1-2.11.21zm0-1.74a4.9 4.9 0 0 0 1.01-.09c.28-.07.51-.21.68-.4a2 2 0 0 0 .42-.93 8.4 8.4 0 0 0 .13-1.67 8 8 0 0 0-.13-1.63c-.09-.41-.23-.71-.42-.91-.18-.21-.41-.35-.68-.4-.28-.07-.61-.11-1.01-.11a4.1 4.1 0 0 0-.99.11c-.28.06-.51.19-.68.4-.18.2-.32.5-.42.91a8.1 8.1 0 0 0-.13 1.63c0 .69.04 1.25.13 1.67a2.3 2.3 0 0 0 .42.93c.18.2.41.33.68.4.28.06.61.09.99.09zM187.7 89.2a8.2 8.2 0 0 1-2.19-.26c-.62-.18-1.15-.5-1.58-.97a4.6 4.6 0 0 1-.95-2c-.21-.86-.32-2-.32-3.41a14.1 14.1 0 0 1 .32-3.27 4.8 4.8 0 0 1 .99-2 3.5 3.5 0 0 1 1.62-1c.64-.19 1.35-.28 2.17-.28a14.4 14.4 0 0 1 1.62.09l1.46.21 1.18.26v1.67a7.8 7.8 0 0 0-.91-.12l-1.33-.11-1.54-.05a5.1 5.1 0 0 0-1.5.19c-.41.12-.74.34-.99.67a3.3 3.3 0 0 0-.55 1.41c-.11.61-.17 1.4-.17 2.37 0 .96.05 1.75.15 2.36.11.61.28 1.08.51 1.42.24.33.56.56.97.69.42.13.94.19 1.56.19l2.34-.05 1.46-.14v1.67a11.9 11.9 0 0 1-1.22.25l-1.44.16a18 18 0 0 1-1.65.07zm195.53-37.98c.22.15.26.47.09.68l-4.52 5.64c-.38.48-1.11.48-1.5 0l-4.52-5.64c-.17-.21-.13-.52.09-.68a9.3 9.3 0 0 1 5.18-1.63 9.2 9.2 0 0 1 5.18 1.63zm10.6-1.28c.31-.31.83-.09.83.35v7.62c0 .54-.44.98-.98.98h-7.62c-.44 0-.65-.53-.35-.83l8.11-8.11zm12.08.14h.73c.4 0 .73.33.73.73v7.33c0 .4-.33.73-.73.73h-4.4c-.4 0-.73-.33-.73-.73v-7.33c0-.4.33-.73.73-.73h.73v-.98h2.93v.98z"/></g><path opacity=".6" d="M193.85 48.68V56h-1.21v-5.89l-1.79.61v-1l2.85-1.04h.14zm7.43 6.36V56h-4.89v-.83l2.38-2.59.62-.76c.15-.21.26-.41.32-.58s.09-.34.09-.51c0-.23-.04-.43-.13-.61s-.21-.32-.37-.42-.36-.16-.6-.16c-.27 0-.5.06-.68.18s-.32.28-.42.49-.14.44-.14.7h-1.21c0-.42.1-.81.29-1.16s.47-.63.84-.84.81-.32 1.33-.32c.49 0 .9.08 1.24.25s.6.4.78.7.27.66.27 1.07c0 .23-.04.45-.11.68s-.18.45-.32.67-.29.44-.48.67l-.61.67-1.58 1.74h3.37zm1.03.36c0-.19.06-.34.19-.47s.3-.2.52-.2.39.07.52.2.19.28.19.47-.06.34-.19.47-.3.19-.52.19a.7.7 0 0 1-.52-.19c-.13-.13-.19-.28-.19-.47zm.01-4.27c0-.19.06-.34.19-.47s.3-.2.52-.2.39.07.52.2.19.28.19.47-.06.34-.19.47-.3.19-.52.19a.7.7 0 0 1-.52-.19c-.13-.13-.19-.28-.19-.47zm4.03.68h.72c.28 0 .51-.05.7-.15s.33-.23.42-.4.14-.37.14-.59c0-.23-.04-.43-.13-.59s-.2-.3-.37-.39-.37-.14-.63-.14c-.21 0-.41.04-.58.13s-.31.2-.41.36-.15.34-.15.55h-1.21a1.8 1.8 0 0 1 .31-1.03c.2-.3.48-.54.83-.71s.75-.26 1.19-.26a3 3 0 0 1 1.23.24c.35.15.63.38.83.69s.3.69.3 1.14c0 .21-.05.42-.15.63s-.24.41-.43.59-.43.32-.71.43a2.8 2.8 0 0 1-.99.16h-.91v-.67zm0 .94v-.66h.91c.43 0 .79.05 1.09.15s.55.24.74.42.33.37.42.6.13.46.13.71c0 .34-.06.65-.19.91s-.29.49-.52.67a2.3 2.3 0 0 1-.79.42c-.3.09-.62.14-.97.14a3.1 3.1 0 0 1-.9-.13c-.29-.09-.54-.22-.77-.39s-.41-.39-.54-.65a2 2 0 0 1-.2-.9h1.21a1.1 1.1 0 0 0 .15.58c.1.16.25.29.43.39s.4.14.64.14c.25 0 .47-.05.66-.14s.33-.22.42-.4c.1-.18.15-.39.15-.64 0-.28-.06-.51-.17-.69s-.27-.31-.47-.39-.44-.13-.72-.13h-.72zm9.17-1.01v1.19a5.5 5.5 0 0 1-.17 1.46c-.11.4-.27.73-.48.98a1.9 1.9 0 0 1-.76.55 2.6 2.6 0 0 1-.98.18 2.8 2.8 0 0 1-.8-.11c-.24-.07-.47-.19-.66-.35s-.37-.36-.51-.61a3.4 3.4 0 0 1-.32-.9c-.07-.35-.11-.75-.11-1.21v-1.19c0-.57.06-1.06.17-1.45s.28-.72.49-.97.46-.43.75-.55a2.7 2.7 0 0 1 .98-.17c.29 0 .56.04.8.11s.47.18.66.34.36.35.5.6.25.54.32.89a5.8 5.8 0 0 1 .11 1.2zm-1.21 1.36v-1.54c0-.29-.02-.55-.05-.77a2.3 2.3 0 0 0-.15-.57c-.06-.16-.14-.28-.24-.38s-.21-.17-.33-.22-.26-.07-.42-.07a1.1 1.1 0 0 0-.5.11.9.9 0 0 0-.37.34c-.1.16-.18.36-.23.62a4.9 4.9 0 0 0-.07.93v1.54a5.4 5.4 0 0 0 .05.78c.03.22.08.42.15.58s.15.29.24.39a.9.9 0 0 0 .33.22 1.2 1.2 0 0 0 .42.07c.19 0 .36-.04.51-.11s.27-.19.37-.35a1.9 1.9 0 0 0 .23-.64c.05-.26.07-.57.07-.94z" fill="#000"/><g class="F"><path d="M168 528.2c0-3.24 2.63-5.87 5.87-5.87h252.27c3.24 0 5.87 2.63 5.87 5.87v35.2H168v-35.2z"/><path d="M370.4 522.33h46.93v41.07H370.4z"/></g><g clip-path="url(#E)" class="B"><path d="M395.21 539.14h.29 4.97c.32 0 .61-.07.87-.25.13-.09.28-.16.4-.04.1.09.17.25.17.37v4.6a1.3 1.3 0 0 1-.03.29c-.12.62-.62 1.04-1.25 1.08h-.19-13.19c-.6 0-1.07-.23-1.33-.77a1.4 1.4 0 0 1-.13-.59v-4.62c0-.12.08-.28.18-.37.12-.11.27-.04.4.05.26.18.54.25.85.25h5.04c.18 0 .26.04.25.24-.02.23-.01.48 0 .72 0 .26.12.38.37.39h1.95c.24 0 .36-.13.36-.37v-.97zm-4.7-5.38v-.63c.01-.8.57-1.38 1.38-1.38h3.97c.8 0 1.36.58 1.37 1.39v.61l.26.01h2.98c.91 0 1.47.56 1.47 1.46v1.85c0 .82-.57 1.39-1.39 1.4h-5.17c-.05 0-.1-.01-.17-.01v-.31c-.01-.22-.13-.34-.34-.34a82.9 82.9 0 0 0-2 0c-.21 0-.33.13-.34.35v.32h-.24-5.02c-.91 0-1.46-.55-1.47-1.47v-1.83c0-.84.57-1.41 1.41-1.41h3.03.27zm1.35-.02h4v-.63h-4v.63z"/></g><path d="M390.27 553.7v.33a3.5 3.5 0 0 1-.15 1.05c-.1.31-.24.58-.42.79s-.4.38-.66.5-.54.17-.86.17c-.31 0-.59-.06-.85-.17s-.48-.28-.67-.5a2.3 2.3 0 0 1-.43-.79c-.1-.31-.15-.66-.15-1.05v-.33a3.4 3.4 0 0 1 .15-1.05c.1-.31.25-.57.43-.79s.41-.39.66-.5.54-.17.85-.17c.32 0 .6.06.86.17a1.8 1.8 0 0 1 .66.5c.19.22.33.48.43.79s.15.66.15 1.05zm-.68.33v-.34c0-.31-.03-.59-.1-.82a1.7 1.7 0 0 0-.28-.6c-.12-.16-.27-.29-.45-.37s-.37-.12-.6-.12c-.21 0-.41.04-.58.13s-.32.21-.44.37a1.8 1.8 0 0 0-.28.6c-.07.24-.1.51-.1.82v.34a3.1 3.1 0 0 0 .1.83c.07.24.16.44.29.61s.28.28.45.37.37.13.58.13c.22 0 .42-.04.6-.13s.32-.21.44-.37.21-.37.28-.61.09-.52.09-.83zm2.61 2.44h-.66v-4.28c0-.28.05-.51.15-.7a1 1 0 0 1 .44-.44c.19-.1.42-.15.68-.15.08 0 .15 0 .23.01s.16.02.23.04l-.04.54c-.05-.01-.11-.02-.17-.02l-.19-.01c-.14 0-.26.03-.36.09s-.18.14-.23.24-.08.24-.08.4v4.28zm.82-3.87v.51h-2.1v-.51h2.1zm1.73 3.88h-.66v-4.28c0-.28.05-.51.15-.7s.25-.34.44-.44.42-.15.68-.15c.08 0 .15 0 .23.01s.16.02.23.04l-.04.54a1 1 0 0 0-.17-.02l-.19-.01c-.14 0-.26.03-.37.09s-.18.14-.23.24-.08.24-.08.4v4.28zm.82-3.87v.51h-2.1v-.51h2.1zm2.26 3.95a1.9 1.9 0 0 1-.73-.14c-.22-.09-.4-.22-.56-.39s-.27-.36-.36-.59-.13-.48-.13-.75v-.15c0-.31.05-.6.14-.84s.22-.46.38-.63.34-.3.54-.39.41-.13.63-.13c.28 0 .52.05.72.14s.37.23.5.4.22.37.29.6.09.48.09.75v.3h-2.89v-.54h2.23v-.05c-.01-.17-.05-.34-.11-.5s-.15-.3-.29-.4-.31-.16-.54-.16c-.15 0-.29.03-.42.1s-.24.15-.33.28a1.4 1.4 0 0 0-.21.45 2.3 2.3 0 0 0-.08.62v.15c0 .18.03.36.08.52a1.3 1.3 0 0 0 .22.42c.1.12.22.22.36.29s.31.1.49.1c.23 0 .43-.05.59-.14s.31-.22.43-.38l.4.32c-.08.13-.19.25-.32.36s-.29.21-.48.28-.41.11-.66.11zm2.94-3.34v3.27h-.66v-3.87h.65l.02.61zm1.21-.63v.62c-.06-.01-.11-.02-.16-.02l-.16-.01c-.15 0-.29.02-.41.07s-.22.11-.3.2-.15.19-.19.31-.07.25-.09.39l-.19.11c0-.23.02-.45.07-.66s.12-.39.22-.54.22-.28.37-.37.33-.14.54-.14c.05 0 .1.01.17.02s.1.02.13.03z" class="B"/><use href="#I" class="F"/><path d="M334.93 555.15c0-.12-.02-.23-.06-.32s-.1-.18-.19-.26-.22-.15-.38-.22a5.2 5.2 0 0 0-.61-.21c-.26-.08-.49-.16-.7-.25a2.4 2.4 0 0 1-.53-.33c-.15-.12-.26-.26-.34-.42s-.12-.34-.12-.54.04-.39.13-.56.2-.32.36-.45.34-.23.56-.3a2.3 2.3 0 0 1 .73-.11c.39 0 .72.07 1 .23s.48.34.63.58.21.49.21.77h-.69c0-.2-.04-.37-.12-.52s-.21-.27-.38-.36-.38-.13-.64-.13c-.25 0-.45.04-.61.11s-.28.18-.36.3-.12.27-.12.43c0 .11.02.21.07.3s.12.17.22.25.23.15.38.21.34.13.56.19a4.7 4.7 0 0 1 .77.28 2.1 2.1 0 0 1 .53.35c.14.13.25.27.31.43s.1.34.1.54c0 .21-.04.4-.13.58s-.21.32-.37.44-.35.22-.58.28a2.7 2.7 0 0 1-.75.1c-.24 0-.48-.03-.71-.1s-.44-.17-.63-.3-.34-.3-.45-.49-.17-.43-.17-.69h.69c0 .18.03.33.1.46s.16.23.28.31.26.15.41.19.32.06.48.06c.24 0 .45-.03.61-.1s.29-.16.38-.29.13-.27.13-.44zm3.03.85c.16 0 .3-.03.44-.1s.24-.15.33-.27.13-.24.15-.39h.63c-.01.23-.09.44-.23.64s-.33.36-.56.48a1.6 1.6 0 0 1-.75.18c-.29 0-.55-.05-.76-.15a1.5 1.5 0 0 1-.54-.42c-.14-.18-.25-.38-.32-.62a2.6 2.6 0 0 1-.1-.74v-.15c0-.26.04-.51.1-.74s.18-.44.32-.62a1.5 1.5 0 0 1 .54-.42c.22-.1.47-.15.76-.15.3 0 .57.06.8.19s.4.29.53.5.2.45.22.72h-.63c-.01-.16-.06-.3-.14-.43s-.18-.23-.31-.31-.29-.12-.46-.12a1 1 0 0 0-.51.12.9.9 0 0 0-.33.32 1.5 1.5 0 0 0-.17.45c-.03.16-.05.33-.05.5v.15c0 .17.02.34.05.5s.09.31.17.45.19.24.33.32.31.12.52.12zm2.95-5.03v5.5h-.66v-5.5h.66zm-.16 3.42l-.28-.01c0-.26.04-.51.12-.73s.18-.42.32-.59.3-.3.5-.39.41-.14.64-.14c.19 0 .36.03.51.08s.28.13.39.24.19.26.25.44.09.39.09.65v2.54h-.67v-2.55c0-.2-.03-.37-.09-.49s-.15-.21-.26-.27-.25-.09-.42-.09-.31.04-.45.1-.25.16-.35.29-.17.26-.22.42-.08.32-.08.49zm5.14 2.15a1.9 1.9 0 0 1-.73-.14c-.22-.09-.4-.22-.56-.39s-.27-.36-.36-.59a2.2 2.2 0 0 1-.12-.75v-.15c0-.31.05-.6.14-.84s.22-.46.38-.63.34-.3.55-.39.41-.13.63-.13c.28 0 .51.05.72.14s.37.23.5.4.22.37.29.6.09.48.09.75v.3h-2.89v-.54h2.23v-.05c-.01-.17-.05-.34-.11-.5s-.15-.3-.29-.4-.31-.16-.54-.16a.9.9 0 0 0-.42.1c-.13.06-.24.15-.32.28a1.4 1.4 0 0 0-.21.45 2.3 2.3 0 0 0-.08.62v.15c0 .18.03.36.08.52s.13.3.23.42.22.22.36.29a1.1 1.1 0 0 0 .49.1c.23 0 .43-.05.6-.14s.3-.22.43-.38l.4.32c-.08.13-.19.25-.32.36s-.29.21-.48.28-.41.11-.66.11zm4.72-.82v-4.75h.67v5.5h-.61l-.06-.75zm-2.61-1.14v-.08c0-.3.04-.56.11-.8s.18-.45.31-.63.3-.31.48-.4.4-.14.63-.14c.24 0 .46.04.64.13s.34.21.46.37a1.8 1.8 0 0 1 .31.58c.07.23.13.48.15.77v.33c-.03.28-.08.54-.15.77a1.8 1.8 0 0 1-.31.58c-.13.16-.28.28-.46.37s-.4.13-.65.13c-.23 0-.43-.05-.62-.15s-.35-.24-.48-.41-.24-.38-.31-.62-.11-.5-.11-.78zm.67-.08v.08c0 .19.02.37.06.54s.1.32.19.45.19.23.32.31.28.11.46.11c.22 0 .4-.05.54-.14s.26-.22.34-.37.15-.32.2-.5v-.86c-.03-.13-.07-.26-.12-.38s-.12-.23-.21-.33a.9.9 0 0 0-.31-.23c-.12-.06-.27-.09-.43-.09-.18 0-.34.04-.47.12s-.24.18-.32.31-.14.28-.19.45-.06.35-.06.54zm6.01 1.08v-2.98h.67v3.88h-.63l-.03-.89zm.13-.82l.27-.01c0 .26-.03.5-.08.72s-.14.41-.26.57-.28.29-.47.38-.43.13-.71.13c-.19 0-.36-.03-.52-.08s-.29-.14-.4-.25-.2-.26-.26-.45-.09-.4-.09-.66v-2.5h.66v2.51c0 .17.02.32.06.43s.09.2.16.27.15.11.23.14.17.04.27.04c.28 0 .5-.05.67-.16s.28-.26.36-.44.11-.39.11-.62zm2.27-3.79v5.5h-.67v-5.5h.67zm2.67 5.57a1.9 1.9 0 0 1-.73-.14c-.22-.09-.4-.22-.56-.39s-.27-.36-.36-.59-.13-.48-.13-.75v-.15c0-.31.05-.6.14-.84s.22-.46.38-.63.34-.3.54-.39.41-.13.63-.13c.28 0 .52.05.72.14s.37.23.5.4.22.37.29.6.09.48.09.75v.3h-2.89v-.54h2.23v-.05c-.01-.17-.05-.34-.11-.5s-.15-.3-.29-.4-.31-.16-.54-.16c-.15 0-.29.03-.42.1s-.24.15-.33.28a1.4 1.4 0 0 0-.21.45 2.3 2.3 0 0 0-.08.62v.15c0 .18.03.36.08.52a1.3 1.3 0 0 0 .22.42c.1.12.22.22.36.29s.31.1.49.1c.23 0 .43-.05.59-.14s.31-.22.43-.38l.4.32c-.08.13-.19.25-.32.36s-.29.21-.48.28-.41.11-.66.11z" class="B"/><g clip-path="url(#F)" class="B"><path d="M352.78 532.21h-.81v-.81c0-.48-.32-.81-.81-.81s-.81.32-.81.81v.81h-6.45v-.81c0-.48-.32-.81-.81-.81s-.81.32-.81.81v.81h-.81c-1.37 0-2.42 1.05-2.42 2.42v.81h16.13v-.81c0-1.37-1.05-2.42-2.42-2.42zm-13.71 12.1c0 1.37 1.05 2.42 2.42 2.42h11.29c1.37 0 2.42-1.05 2.42-2.42v-7.26h-16.13v7.26zm12.1-5.65c.48 0 .81.32.81.81s-.32.81-.81.81-.81-.32-.81-.81.32-.81.81-.81zm0 3.23c.48 0 .81.32.81.81s-.32.81-.81.81-.81-.32-.81-.81.32-.81.81-.81zm-4.03-3.23c.48 0 .81.32.81.81s-.32.81-.81.81-.81-.32-.81-.81.32-.81.81-.81zm0 3.23c.48 0 .81.32.81.81s-.32.81-.81.81-.81-.32-.81-.81.32-.81.81-.81zm-4.03-3.23c.48 0 .81.32.81.81s-.32.81-.81.81-.81-.32-.81-.81.32-.81.81-.81zm0 3.23c.48 0 .81.32.81.81s-.32.81-.81.81-.81-.32-.81-.81.32-.81.81-.81z"/></g><path d="M276.53 522.33h46.93v41.07h-46.93z" class="F"/><g clip-path="url(#G)" class="B"><path d="M301.62 530.4v.15 4.47c0 .18 0 .18.18.18h4.51c.15 0 .15 0 .15.18v10.27c0 .11 0 .26-.04.37-.07.29-.37.51-.66.55h-.15-11.22c-.22 0-.4-.04-.59-.18-.22-.18-.29-.4-.29-.66v-3.01-11.37c0-.15.04-.33.07-.48.11-.33.33-.48.62-.48h7.26.15zm-1.61 9.64h-3.08-.99c-.33 0-.59.15-.7.48s-.11.66.15.92c.18.18.4.22.66.22H304h.18c.37-.04.66-.37.66-.73.04-.4-.18-.73-.55-.81-.11-.04-.22-.04-.33-.04l-3.96-.04zm-.81 3.26h-3.23c-.59 0-.92.48-.77 1.03.07.37.4.59.81.59h6.38c.07 0 .18 0 .26-.04.33-.07.59-.37.59-.73.04-.37-.15-.7-.48-.81-.11-.04-.26-.07-.4-.07l-3.15.04zm-1.61-4.88h2.31c.11 0 .15-.04.15-.15v-.92c0-.37-.15-.66-.48-.88-.11-.07-.22-.15-.33-.18-.66-.29-1.32-.33-2.02-.29-.51.04-.99.15-1.43.37-.4.22-.66.55-.62 1.06v.84c0 .11.04.15.15.15h2.27zm1.61-4.84c0-.88-.73-1.61-1.61-1.61s-1.61.73-1.61 1.61.73 1.61 1.61 1.61 1.61-.73 1.61-1.61zm4.07-3.18l3.15 3.15h-.07-2.97c-.07 0-.15 0-.15-.11v-2.97s0-.04.04-.07z"/></g><path d="M287.69 551.25h1.73c.39 0 .72.06.99.18s.48.3.62.53a1.6 1.6 0 0 1 .22.86c0 .24-.05.46-.15.65s-.23.36-.41.5-.39.24-.65.3l-.19.08h-1.62l-.01-.56h1.23c.25 0 .45-.04.62-.13s.29-.21.37-.35.13-.31.13-.49c0-.2-.04-.38-.12-.53s-.2-.27-.37-.35-.38-.12-.65-.12h-1.04v4.65h-.69v-5.21zm3.05 5.21l-1.27-2.36h.72l1.29 2.32v.04h-.74zm2.98.07a1.9 1.9 0 0 1-.73-.14c-.22-.09-.4-.22-.56-.39s-.28-.36-.36-.59-.13-.48-.13-.75v-.15c0-.31.05-.6.14-.84s.22-.46.38-.63.34-.3.54-.39.41-.13.63-.13c.28 0 .52.05.72.14s.37.23.5.4.22.37.29.6.09.48.09.75v.3h-2.89v-.54h2.23v-.05c-.01-.17-.05-.34-.11-.5a.9.9 0 0 0-.29-.4c-.13-.1-.31-.16-.54-.16-.15 0-.29.03-.42.1s-.23.15-.33.28a1.4 1.4 0 0 0-.21.45c-.05.18-.08.38-.08.62v.15c0 .18.03.36.08.52a1.3 1.3 0 0 0 .22.42c.1.12.22.22.36.29s.31.1.49.1c.23 0 .43-.05.59-.14s.31-.22.43-.38l.4.32c-.08.13-.19.25-.32.36s-.29.21-.48.28-.41.11-.66.11zm4.54-1.1c0-.09-.02-.18-.06-.26s-.12-.16-.25-.23-.32-.13-.57-.18a4.6 4.6 0 0 1-.58-.16c-.17-.06-.32-.14-.44-.22s-.21-.19-.28-.31-.1-.26-.1-.42c0-.15.03-.3.1-.43s.17-.26.29-.36.28-.19.45-.25.37-.09.59-.09c.31 0 .57.06.79.17s.39.26.5.44.18.38.18.61h-.66c0-.11-.03-.21-.1-.31s-.15-.19-.28-.25a.9.9 0 0 0-.44-.1c-.18 0-.33.03-.45.09s-.19.13-.25.21-.08.18-.08.27c0 .07.01.14.04.19s.07.11.14.15.15.09.27.13.27.08.45.12c.32.07.58.16.79.26s.36.22.46.37.15.32.15.53c0 .17-.04.33-.11.47s-.17.26-.31.37a1.5 1.5 0 0 1-.47.24c-.18.05-.39.08-.61.08-.34 0-.63-.06-.87-.18s-.41-.28-.54-.47-.18-.4-.18-.61h.67c.01.18.06.33.16.43s.21.18.35.23.27.06.41.06c.18 0 .33-.02.45-.07s.22-.11.28-.2.1-.18.1-.29zm3.9.13v-2.98h.67v3.88h-.63l-.03-.89zm.13-.82l.28-.01c0 .26-.03.5-.08.72s-.14.41-.26.57-.28.29-.47.38a1.7 1.7 0 0 1-.71.13c-.19 0-.36-.03-.52-.08s-.29-.14-.4-.25-.2-.26-.26-.45-.09-.4-.09-.66v-2.5h.66v2.51c0 .17.02.32.06.43s.09.2.16.27a.6.6 0 0 0 .23.14c.09.03.17.04.27.04.28 0 .5-.05.67-.16s.28-.26.35-.44.11-.39.11-.62zm2.21-1.39v3.11h-.67v-3.87h.63l.04.77zm-.14 1.02l-.31-.01c0-.26.04-.51.1-.73s.17-.42.3-.59.3-.3.49-.39.42-.14.68-.14c.18 0 .35.03.5.08s.28.13.4.24.2.25.26.42.09.38.09.62v2.58h-.66v-2.55c0-.2-.03-.37-.1-.49s-.16-.21-.29-.26-.27-.09-.44-.09c-.2 0-.36.04-.49.1s-.24.16-.31.29-.14.26-.17.42a2.3 2.3 0 0 0-.05.49zm2.51-.37l-.44.14c0-.21.04-.42.1-.61s.17-.37.3-.52a1.4 1.4 0 0 1 .48-.36 1.5 1.5 0 0 1 .65-.14 1.7 1.7 0 0 1 .55.08c.16.06.3.14.41.25s.2.26.25.43.09.39.09.63v2.55h-.67v-2.55c0-.22-.04-.39-.1-.5s-.16-.21-.29-.25-.27-.08-.44-.08c-.15 0-.27.03-.39.08s-.21.12-.28.21a.9.9 0 0 0-.18.3c-.04.11-.06.23-.06.36zm5.01 2.52a1.9 1.9 0 0 1-.73-.14c-.22-.09-.4-.22-.56-.39s-.27-.36-.36-.59-.12-.48-.12-.75v-.15c0-.31.05-.6.14-.84s.22-.46.38-.63.34-.3.54-.39.41-.13.63-.13c.28 0 .52.05.72.14s.37.23.5.4.23.37.29.6.09.48.09.75v.3h-2.89v-.54h2.23v-.05c-.01-.17-.04-.34-.11-.5a.9.9 0 0 0-.29-.4c-.13-.1-.31-.16-.54-.16a.9.9 0 0 0-.42.1c-.13.06-.23.15-.33.28a1.4 1.4 0 0 0-.21.45 2.3 2.3 0 0 0-.07.62v.15c0 .18.02.36.07.52a1.3 1.3 0 0 0 .23.42c.1.12.22.22.36.29s.31.1.49.1c.23 0 .43-.05.59-.14s.3-.22.43-.38l.4.32c-.08.13-.19.25-.32.36s-.29.21-.48.28-.41.11-.66.11z" class="B"/><path d="M229.6 522.33h46.93v41.07H229.6z" class="F"/><g class="B"><path d="M258.2 531.87h-10.27c-.39 0-.76.15-1.04.43s-.43.65-.43 1.04v10.27c0 .39.15.76.43 1.04s.65.43 1.04.43h10.27c.39 0 .76-.15 1.04-.43s.43-.65.43-1.04v-10.27a1.5 1.5 0 0 0-.43-1.04c-.27-.28-.65-.43-1.04-.43zm-9.53 2.2h3.67v3.67h-3.67v-3.67zm3.3 9.53c-.49 0-.95-.19-1.3-.54s-.54-.81-.54-1.3.19-.95.54-1.3.81-.54 1.3-.54.95.19 1.3.54.54.81.54 1.3-.19.95-.54 1.3-.81.54-1.3.54zm2.2-4.4l2.2-3.67 2.2 3.67h-4.4zm-6.05 15.22h-1.39v-.56h1.39c.27 0 .49-.04.66-.13a.8.8 0 0 0 .36-.36c.08-.15.12-.33.12-.52 0-.18-.04-.35-.12-.5a1 1 0 0 0-.36-.38c-.16-.1-.39-.15-.66-.15h-1.23v4.65h-.69v-5.21h1.92c.39 0 .73.07 1 .2s.48.33.62.57.21.51.21.82c0 .33-.07.62-.21.86s-.35.42-.62.54-.61.18-1 .18zm2.38.15v-.08a2.4 2.4 0 0 1 .12-.78c.08-.24.2-.45.35-.63s.34-.32.56-.42.46-.15.73-.15a1.7 1.7 0 0 1 .73.15c.21.1.41.24.56.42s.27.38.35.63a2.4 2.4 0 0 1 .12.78v.08a2.4 2.4 0 0 1-.12.78c-.08.24-.2.45-.35.63s-.34.32-.56.42-.46.15-.73.15-.52-.05-.74-.15-.4-.24-.56-.42-.27-.39-.35-.63a2.4 2.4 0 0 1-.12-.78zm.66-.08v.08a2.1 2.1 0 0 0 .07.55c.04.17.11.32.2.45s.21.24.35.31.3.11.48.11.34-.04.48-.11a1 1 0 0 0 .34-.31c.09-.13.16-.28.2-.45s.07-.35.07-.55v-.08a2 2 0 0 0-.07-.54 1.4 1.4 0 0 0-.21-.46c-.09-.13-.21-.24-.34-.32s-.3-.11-.48-.11-.34.04-.48.11-.25.18-.34.32-.16.28-.2.46-.07.35-.07.54zm5.95.95c0-.09-.02-.18-.06-.26s-.12-.16-.25-.23-.32-.13-.57-.18a4.6 4.6 0 0 1-.58-.16 2 2 0 0 1-.44-.22c-.12-.08-.21-.19-.28-.31s-.1-.26-.1-.42c0-.15.03-.3.1-.43s.17-.26.29-.36.28-.19.46-.25.37-.09.59-.09c.31 0 .57.06.8.17s.39.26.5.44.18.38.18.61h-.66c0-.11-.03-.21-.1-.31s-.15-.19-.28-.25a.9.9 0 0 0-.44-.1 1 1 0 0 0-.45.09c-.12.06-.2.13-.25.21s-.07.18-.07.27c0 .07.01.14.04.19s.07.11.14.15.16.09.27.13.27.08.45.12c.32.07.58.16.79.26s.36.22.46.37.15.32.15.53c0 .17-.04.33-.11.47s-.17.26-.3.37a1.5 1.5 0 0 1-.47.24 2.3 2.3 0 0 1-.61.08c-.34 0-.63-.06-.87-.18s-.41-.28-.54-.47-.18-.4-.18-.61h.67c.01.18.06.33.16.43s.21.18.35.23a1.2 1.2 0 0 0 .41.06c.18 0 .33-.02.45-.07s.22-.11.28-.2.1-.18.1-.29zm3.15-2.85v.51h-2.09v-.51h2.09zm-1.39-.94h.66v3.86c0 .13.02.23.06.3s.09.11.16.13.13.03.21.03c.06 0 .11 0 .17-.01l.14-.03v.54c-.05.02-.12.03-.21.05s-.19.02-.31.02c-.16 0-.31-.03-.45-.1s-.25-.17-.33-.32-.12-.36-.12-.62v-3.85z"/></g><path d="M182.67 522.33h46.93v41.07h-46.93z" class="F"/><g class="C"><path d="M204.66 539.93h2.93v5.13h-2.93v-5.13zm7.65-2.8l-5.65-5.78c-.07-.07-.15-.12-.24-.16s-.19-.06-.28-.06-.19.02-.28.06-.17.09-.24.16l-5.65 5.79a1.4 1.4 0 0 0-.32.48c-.07.18-.11.37-.11.57v6.14c0 .38.14.74.4 1.01s.61.44.99.46h2.28v-6.6c0-.2.08-.38.22-.52s.32-.22.52-.22h4.4c.2 0 .38.08.52.22s.22.32.22.52v6.6h2.28c.38-.02.73-.18.99-.46s.4-.63.4-1.01v-6.14c0-.39-.15-.77-.42-1.06zm-12.4 16.37v.56h-2.82v-.56h2.82zm-2.71-2.24v5.21h-.69v-5.21h.69zm3.32 0v5.21h-.69v-5.21h.69zm.95 3.32v-.08a2.4 2.4 0 0 1 .12-.78c.08-.24.2-.45.35-.63s.34-.32.56-.42.46-.15.73-.15a1.7 1.7 0 0 1 .73.15c.21.1.41.24.56.42a1.8 1.8 0 0 1 .35.63c.08.24.12.5.12.78v.08c0 .28-.04.54-.12.78s-.2.45-.35.63-.34.32-.56.42-.46.15-.73.15a1.7 1.7 0 0 1-.73-.15c-.21-.1-.4-.24-.56-.42s-.27-.39-.35-.63a2.4 2.4 0 0 1-.12-.78zm.66-.08v.08a2.1 2.1 0 0 0 .07.55c.04.17.11.32.2.45s.21.24.35.31.3.11.48.11.34-.04.48-.11.25-.18.34-.31.16-.28.21-.45.07-.35.07-.55v-.08a2 2 0 0 0-.07-.54 1.4 1.4 0 0 0-.21-.46c-.09-.13-.21-.24-.34-.32s-.3-.11-.48-.11-.34.04-.48.11-.25.18-.34.32-.16.28-.2.46-.07.35-.07.54zm4.35-1.13v3.11h-.67v-3.87h.63l.04.77zm-.14 1.02l-.31-.01a2.8 2.8 0 0 1 .1-.73c.06-.22.17-.42.3-.59s.29-.3.49-.39.42-.14.68-.14c.18 0 .35.03.5.08a1 1 0 0 1 .4.24c.11.11.2.25.26.42s.09.38.09.62v2.58h-.66v-2.55c0-.2-.03-.37-.1-.49a.6.6 0 0 0-.29-.26c-.12-.06-.27-.09-.44-.09-.19 0-.36.04-.49.1s-.24.16-.31.29-.14.26-.17.42a2.3 2.3 0 0 0-.05.49zm2.51-.37l-.44.14c0-.21.04-.42.1-.61a1.5 1.5 0 0 1 .3-.52 1.4 1.4 0 0 1 .48-.36c.19-.09.41-.14.66-.14a1.7 1.7 0 0 1 .55.08c.16.06.3.14.41.25s.2.26.25.43.09.39.09.63v2.55h-.67v-2.55c0-.22-.03-.39-.1-.5s-.16-.21-.29-.25-.27-.08-.44-.08c-.14 0-.27.03-.39.08s-.21.12-.28.21a.9.9 0 0 0-.18.3c-.04.11-.06.23-.06.36zm5.01 2.52a1.9 1.9 0 0 1-.73-.14c-.22-.09-.41-.22-.56-.39s-.27-.36-.36-.59a2.2 2.2 0 0 1-.12-.75v-.15c0-.31.05-.6.14-.84a1.9 1.9 0 0 1 .38-.63c.16-.17.34-.3.54-.39s.41-.13.63-.13c.28 0 .52.05.72.14s.37.23.5.4.22.37.29.6.09.48.09.75v.3h-2.89v-.54h2.23v-.05c-.01-.17-.05-.34-.11-.5a.9.9 0 0 0-.29-.4c-.13-.1-.31-.16-.54-.16a.9.9 0 0 0-.42.1c-.13.06-.23.15-.32.28a1.4 1.4 0 0 0-.21.45 2.3 2.3 0 0 0-.07.62v.15c0 .18.03.36.07.52s.13.3.23.42.22.22.36.29a1.1 1.1 0 0 0 .49.1 1.2 1.2 0 0 0 .59-.14c.16-.09.3-.22.43-.38l.4.32c-.08.13-.19.25-.32.36a1.6 1.6 0 0 1-.48.28 1.9 1.9 0 0 1-.66.11z"/><circle cx="399" cy="489.33" r="17.97" stroke="#fff" stroke-width=".73"/></g><g clip-path="url(#H)" fill-rule="evenodd" class="D"><path d="M405.87 485.69h-2.4v4.33c0 .85-.69 1.53-1.53 1.53h-6.41v1.4c0 .85.69 1.53 1.53 1.53h4.83l3.5 2.4v-2.4h.48c.85 0 1.53-.69 1.53-1.53v-5.73c0-.85-.69-1.53-1.53-1.53zm-4.93-3.91h-8.81c-.85 0-1.53.69-1.53 1.53v5.73c0 .85.69 1.54 1.53 1.54h.48v2.4l3.5-2.4h4.84c.85 0 1.53-.69 1.53-1.54v-5.73c0-.85-.69-1.53-1.53-1.53zm-5.19 3.59v.82h-2.11v1.03c0 .13.03.22.09.29s.16.1.29.1h2.01l.05.84-.78.05-.85.02h-.85c-.33 0-.6-.1-.81-.29s-.31-.44-.31-.76v-3.17c0-.32.11-.57.31-.77s.47-.29.81-.29h.85l.85.02.78.05-.05.84h-2.01c-.13 0-.22.03-.29.09s-.09.16-.09.29v.82h2.11 0zm4.1 3.18c-.25.03-.57.05-.94.05-.54 0-.97-.09-1.3-.26s-.56-.46-.7-.85-.22-.93-.22-1.59a4.6 4.6 0 0 1 .22-1.59c.15-.39.38-.68.7-.85a2.8 2.8 0 0 1 1.3-.26l.63.02.48.06.46.1-.09.86-.46-.02-.45-.02-.57-.01c-.26 0-.46.05-.6.15s-.25.28-.31.53a4.6 4.6 0 0 0-.09 1.04 4.6 4.6 0 0 0 .09 1.04c.06.25.16.43.31.53s.35.15.6.15l.88-.02.71-.05.1.85a4.4 4.4 0 0 1-.75.16z"/></g></g><g fill="#262c44"><path d="M394.48 573H204.61c-23.09 0-41.87-20.59-41.87-45.89V71.89c0-25.3 18.78-45.89 41.87-45.89h189.87c23.09 0 41.87 20.59 41.87 45.89v455.22c0 25.3-18.78 45.89-41.87 45.89zM204.61 37.47c-17.32 0-31.4 15.44-31.4 34.42v455.22c0 18.98 14.09 34.42 31.41 34.42h189.87c17.32 0 31.41-15.44 31.41-34.42V71.89c0-18.98-14.09-34.42-31.41-34.42H204.61z"/><path d="M440 110.99h-8.58v87.81H440v-87.8z"/><use href="#J"/><use href="#J" y="49.26"/><path d="M328.2 64.24h-46a9.1 9.1 0 0 1-9.11-9.09 9.1 9.1 0 0 1 9.11-9.09h46a9.1 9.1 0 0 1 9.11 9.09 9.1 9.1 0 0 1-9.11 9.09z"/></g><path d="M328.2 59.97c2.67 0 4.83-2.16 4.83-4.82s-2.16-4.82-4.83-4.82-4.83 2.16-4.83 4.82 2.16 4.82 4.83 4.82z" fill="#000"/><path d="M328.2 58.03c1.59 0 2.89-1.29 2.89-2.88s-1.29-2.88-2.89-2.88-2.89 1.29-2.89 2.88 1.29 2.88 2.89 2.88z" fill="#181d2d"/><path d="M312.24 57.48H285.2c-1.29 0-2.33-1.04-2.33-2.33s1.05-2.33 2.33-2.33h27.04c1.29 0 2.34 1.04 2.34 2.33s-1.05 2.33-2.34 2.33z" fill="#000"/><g filter="url(#B)" class="D"><rect x="119" y="161" width="297.17" height="174.29" rx="14.83"/></g><path d="M138.93 181.63h1.22l2.29 6.1 2.28-6.1h1.22l-3.02 7.91h-.97l-3.02-7.91zm-.55 0h1.16l.2 5.28v2.63h-1.36v-7.91zm6.95 0h1.16v7.91h-1.36v-2.63l.2-5.28zm4.36 7.27l1.6-5.24h1.4l-2.36 6.77a4.5 4.5 0 0 1-.21.47c-.09.17-.2.33-.34.48a1.7 1.7 0 0 1-.52.38c-.21.1-.46.15-.75.15-.12 0-.23-.01-.34-.03l-.3-.06-.01-1 .13.01.13.01c.22 0 .4-.03.54-.08s.26-.13.35-.25.17-.27.24-.47l.42-1.14zm-.9-5.24l1.4 4.4.23 1.38-.91.23-2.13-6.01h1.41zm10.56 2.93h-2.06v-1.08h2.06c.36 0 .65-.06.87-.17s.38-.27.48-.48.16-.44.16-.71c0-.25-.05-.48-.16-.7a1.2 1.2 0 0 0-.48-.53 1.7 1.7 0 0 0-.87-.2h-1.64v6.82h-1.36v-7.91h3a3.4 3.4 0 0 1 1.56.33c.43.21.76.51.98.89s.34.81.34 1.29c0 .51-.11.95-.34 1.31a2.2 2.2 0 0 1-.98.84c-.43.19-.95.29-1.56.29zm5.28-1.81v4.76h-1.31v-5.88h1.25l.06 1.12zm1.8-1.16l-.01 1.22c-.08-.01-.17-.03-.26-.03l-.27-.01c-.22 0-.42.03-.59.1s-.31.15-.43.27-.2.26-.26.42-.1.35-.11.56l-.3.02a4.6 4.6 0 0 1 .11-1.03c.07-.31.18-.59.33-.83s.33-.43.55-.56.48-.2.78-.2a2.1 2.1 0 0 1 .25.02c.09.02.17.03.21.05zm3.3 6.02c-.44 0-.83-.07-1.18-.21s-.64-.35-.89-.6a2.5 2.5 0 0 1-.56-.91c-.13-.35-.2-.72-.2-1.12v-.22c0-.46.07-.88.2-1.25s.32-.69.56-.96a2.4 2.4 0 0 1 .85-.61c.33-.14.68-.21 1.06-.21.42 0 .79.07 1.1.21s.58.34.78.6a2.7 2.7 0 0 1 .47.91c.1.35.16.74.16 1.16v.56h-4.54v-.94h3.25v-.1c-.01-.24-.05-.46-.14-.66a1.2 1.2 0 0 0-.39-.5c-.18-.13-.4-.19-.69-.19-.22 0-.41.05-.58.14s-.31.22-.42.4-.2.38-.26.63a3.5 3.5 0 0 0-.09.82v.22a2.4 2.4 0 0 0 .1.72c.07.22.18.41.31.57a1.5 1.5 0 0 0 .5.39 1.6 1.6 0 0 0 .67.14c.31 0 .6-.06.84-.19s.46-.31.64-.54l.69.67a2.7 2.7 0 0 1-.49.53c-.2.17-.45.3-.75.41-.29.11-.63.16-1.01.16zm6.96-1.33v-7.13H178v8.34h-1.19l-.12-1.22zm-3.83-1.66v-.11a4.4 4.4 0 0 1 .16-1.22c.1-.37.26-.69.46-.95a2 2 0 0 1 .73-.61c.29-.15.61-.22.97-.22s.67.07.93.21.5.34.68.59a3.1 3.1 0 0 1 .45.91c.11.35.19.74.24 1.17v.36a5.9 5.9 0 0 1-.24 1.15 3.1 3.1 0 0 1-.45.9c-.19.25-.42.45-.69.59a2 2 0 0 1-.94.21c-.36 0-.67-.07-.96-.22s-.52-.36-.72-.62-.35-.58-.46-.94a4.3 4.3 0 0 1-.16-1.19zm1.31-.11v.11c0 .27.02.52.07.75a2.1 2.1 0 0 0 .23.61 1.2 1.2 0 0 0 1.02.56c.3 0 .54-.06.73-.2s.34-.31.45-.53.19-.47.23-.75v-.98a2.4 2.4 0 0 0-.14-.6c-.06-.19-.15-.35-.27-.48s-.25-.25-.42-.33-.36-.12-.58-.12c-.24 0-.44.05-.61.15s-.3.24-.41.42a1.9 1.9 0 0 0-.23.62c-.05.24-.08.49-.08.75zm6.6-2.89v5.88h-1.31v-5.88h1.31zm-1.4-1.54c0-.2.06-.36.2-.49s.32-.2.55-.2.41.07.55.2.2.29.2.49-.07.36-.2.49-.32.2-.55.2-.42-.07-.55-.2-.2-.29-.2-.49zm5.24 6.49c.21 0 .41-.04.58-.12s.31-.21.42-.36.17-.33.18-.53h1.23c-.01.38-.12.73-.34 1.04a2.5 2.5 0 0 1-.86.75 2.6 2.6 0 0 1-1.19.27 2.8 2.8 0 0 1-1.17-.23 2.4 2.4 0 0 1-.83-.64c-.22-.27-.39-.59-.5-.94s-.16-.74-.16-1.14v-.19c0-.41.05-.78.16-1.14s.28-.67.5-.95.5-.48.83-.64.72-.23 1.17-.23a2.6 2.6 0 0 1 1.24.28c.36.18.63.44.84.78a2.2 2.2 0 0 1 .32 1.15h-1.23a1.3 1.3 0 0 0-.16-.59c-.1-.18-.23-.32-.4-.42s-.37-.16-.61-.16c-.26 0-.48.05-.66.16a1.1 1.1 0 0 0-.41.44c-.1.18-.17.38-.21.61a4 4 0 0 0-.06.7v.19a4.1 4.1 0 0 0 .06.71 2 2 0 0 0 .21.61 1.2 1.2 0 0 0 .41.43c.17.11.39.16.66.16zm6.11-4.94v.96h-3.31v-.96h3.31zm-2.36-1.44h1.31v5.69c0 .18.02.32.08.42a.4.4 0 0 0 .22.19c.09.03.2.05.33.05a2 2 0 0 0 .26-.02l.2-.03v1l-.38.09c-.15.03-.3.04-.49.04-.3 0-.57-.05-.8-.16s-.41-.28-.54-.53-.19-.56-.19-.97v-5.78zm4.77 1.44v5.88h-1.31v-5.88h1.31zm-1.4-1.54c0-.2.06-.36.19-.49s.32-.2.55-.2.41.07.55.2.2.29.2.49-.07.36-.2.49-.32.2-.55.2-.42-.07-.55-.2-.19-.29-.19-.49zm2.58 4.55v-.12c0-.42.06-.82.19-1.18a2.8 2.8 0 0 1 .53-.95c.24-.27.52-.48.86-.63a2.8 2.8 0 0 1 1.15-.23 2.8 2.8 0 0 1 1.15.23 2.4 2.4 0 0 1 .86.63c.23.27.41.58.54.95a3.6 3.6 0 0 1 .19 1.18v.13a3.6 3.6 0 0 1-.19 1.18 2.7 2.7 0 0 1-.54.95 2.5 2.5 0 0 1-.86.63 2.8 2.8 0 0 1-1.15.22c-.43 0-.82-.07-1.16-.22s-.62-.36-.86-.63a2.8 2.8 0 0 1-.54-.95 3.7 3.7 0 0 1-.19-1.18zm1.31-.12v.13c0 .26.03.51.08.75a1.9 1.9 0 0 0 .25.62c.12.18.26.32.45.42a1.3 1.3 0 0 0 .65.15c.24 0 .45-.05.63-.15s.33-.24.45-.42a1.9 1.9 0 0 0 .25-.62c.06-.24.09-.49.09-.75v-.12c0-.26-.03-.51-.09-.74s-.14-.44-.26-.62-.26-.32-.45-.42-.39-.16-.64-.16-.46.05-.64.16-.32.24-.44.42a1.8 1.8 0 0 0-.25.62 3.5 3.5 0 0 0-.08.74zm6.55-1.62v4.62h-1.31v-5.88h1.23l.08 1.26zm-.23 1.47h-.42a3.8 3.8 0 0 1 .17-1.15 2.8 2.8 0 0 1 .48-.9 2.2 2.2 0 0 1 .74-.58c.29-.14.6-.21.96-.21a2.3 2.3 0 0 1 .77.12c.23.08.43.2.59.38s.29.4.38.68a3.4 3.4 0 0 1 .13 1.01v3.8h-1.31v-3.8c0-.28-.04-.5-.12-.67a.7.7 0 0 0-.35-.35c-.15-.07-.34-.11-.57-.11s-.43.05-.6.14-.33.22-.45.39a2.1 2.1 0 0 0-.28.56c-.07.21-.1.44-.1.68zm133.26.5v.42a4.4 4.4 0 0 1-.19 1.33 2.8 2.8 0 0 1-.53 1 2.3 2.3 0 0 1-.84.63c-.32.15-.69.22-1.09.22a2.6 2.6 0 0 1-1.07-.22 2.4 2.4 0 0 1-.84-.63c-.24-.27-.42-.61-.55-1s-.19-.84-.19-1.33v-.42c0-.49.06-.94.19-1.33s.31-.73.55-1 .51-.49.84-.63a2.6 2.6 0 0 1 1.07-.22 2.6 2.6 0 0 1 1.09.22 2.3 2.3 0 0 1 .84.63c.24.27.42.61.54 1a4.3 4.3 0 0 1 .19 1.33zm-.86.42v-.43c0-.39-.04-.74-.12-1.04s-.19-.56-.35-.76a1.5 1.5 0 0 0-.56-.47 1.8 1.8 0 0 0-.75-.16 1.7 1.7 0 0 0-.74.16c-.22.11-.4.26-.56.47s-.27.46-.36.76a3.9 3.9 0 0 0-.13 1.04v.43c0 .4.04.75.13 1.05a2.3 2.3 0 0 0 .36.76 1.6 1.6 0 0 0 .57.47c.22.11.47.16.74.16a1.7 1.7 0 0 0 .76-.16c.22-.11.41-.26.56-.47a2.2 2.2 0 0 0 .35-.76 4.2 4.2 0 0 0 .12-1.05zm2.96-3.87v6.95h-.84v-6.95h.84zm4.43 6v-6h.84v6.95h-.77l-.07-.95zm-3.3-1.44v-.09a3.6 3.6 0 0 1 .14-1.02c.09-.31.23-.57.39-.79s.38-.39.61-.51.5-.18.8-.18c.31 0 .58.05.81.16s.43.26.59.47a2.4 2.4 0 0 1 .38.73 4.7 4.7 0 0 1 .19.97v.42a4.5 4.5 0 0 1-.19.97 2.3 2.3 0 0 1-.38.73 1.6 1.6 0 0 1-.59.47c-.23.11-.5.16-.81.16-.29 0-.55-.06-.79-.19a1.9 1.9 0 0 1-.61-.52c-.17-.22-.3-.48-.39-.79a3.5 3.5 0 0 1-.14-.99zm.84-.09v.09c0 .25.03.47.07.69s.13.4.23.56.24.29.4.39.36.14.58.14c.28 0 .51-.06.68-.18a1.3 1.3 0 0 0 .43-.47 2.7 2.7 0 0 0 .25-.63v-1.09c-.04-.17-.09-.33-.16-.48s-.15-.3-.26-.42-.24-.22-.39-.29-.34-.11-.55-.11a1.1 1.1 0 0 0-.59.15c-.16.1-.3.22-.4.39a1.8 1.8 0 0 0-.23.57c-.05.22-.07.44-.07.69z" class="B"/><rect x="308.96" y="179.55" width="12.98" height="12.98" rx="3.71" class="E"/><path d="M384.43 183.82v6.59h-.88l-3.32-5.08v5.08h-.87v-6.59h.87l3.33 5.1v-5.1h.87zm3.45 6.68c-.34 0-.65-.06-.93-.17a2.1 2.1 0 0 1-.71-.49 2.2 2.2 0 0 1-.45-.75c-.1-.29-.16-.61-.16-.95v-.19a3 3 0 0 1 .18-1.06c.12-.31.28-.58.48-.8s.43-.38.69-.49.52-.17.8-.17c.35 0 .65.06.91.18s.47.29.63.51.28.47.36.76.12.61.12.95v.38h-3.66v-.68h2.82v-.06c-.01-.22-.06-.43-.14-.63s-.2-.37-.36-.51-.39-.2-.68-.2c-.19 0-.37.04-.52.12s-.3.2-.41.35-.2.35-.27.58-.09.49-.09.78v.19c0 .23.03.45.09.66s.16.38.29.53.28.27.46.36.39.13.62.13c.3 0 .55-.06.75-.18s.38-.28.54-.48l.51.4c-.11.16-.24.31-.4.46s-.36.26-.6.35-.51.14-.84.14zm4.12-.96l1.26-4.03h.55l-.11.8-1.28 4.1h-.54l.12-.87zm-.85-4.03l1.07 4.07.08.82h-.57l-1.42-4.9h.84zm3.86 4.04l1.02-4.04h.83l-1.42 4.9h-.56l.13-.86zm-1.08-4.04l1.23 3.96.14.94h-.53l-1.32-4.11-.11-.79h.59z" class="B"/><rect x="358.2" y="179.55" width="12.98" height="12.98" rx="3.71" class="C"/><path d="M169.64 251.15v1.2c0 .55-.06 1.01-.17 1.4s-.27.71-.48.95-.46.42-.75.54-.61.17-.97.17c-.28 0-.55-.03-.79-.11s-.46-.19-.66-.34-.36-.36-.5-.59a3.1 3.1 0 0 1-.32-.87c-.07-.34-.11-.72-.11-1.16v-1.2c0-.55.06-1.01.17-1.4s.28-.7.48-.94.46-.42.75-.53.61-.17.97-.17c.29 0 .55.04.79.11a1.9 1.9 0 0 1 .66.34c.2.15.36.34.5.59s.24.52.31.86.11.72.11 1.15zm-1.29 1.37v-1.55a4.6 4.6 0 0 0-.05-.71c-.03-.2-.07-.38-.13-.52s-.13-.26-.22-.35-.19-.16-.3-.2-.24-.06-.38-.06c-.17 0-.32.03-.45.1s-.25.17-.34.31-.16.33-.21.57-.07.52-.07.86v1.55a5.2 5.2 0 0 0 .04.72c.03.21.08.38.14.53s.14.27.22.36.19.16.3.21.24.06.38.06c.17 0 .32-.03.45-.1s.25-.18.34-.32.16-.34.2-.58.07-.53.07-.87zm7.01.85c0 .44-.1.82-.31 1.12s-.49.53-.84.69-.76.23-1.21.23a3.1 3.1 0 0 1-1.22-.23c-.36-.16-.64-.39-.85-.69s-.31-.68-.31-1.12c0-.3.06-.56.18-.81s.29-.45.5-.62.46-.31.75-.4.61-.14.95-.14c.46 0 .86.08 1.22.25a2 2 0 0 1 .85.69c.2.29.31.64.31 1.03zm-1.3-.08c0-.23-.04-.42-.14-.59s-.21-.3-.38-.39-.35-.14-.57-.14-.41.05-.57.14-.28.22-.38.39-.13.36-.13.59.04.43.13.6.22.29.38.38.35.13.58.13.41-.04.57-.13.28-.21.37-.38.13-.37.13-.6zm1.14-3.21c0 .36-.09.68-.28.96a1.9 1.9 0 0 1-.79.65c-.33.16-.71.23-1.14.23s-.81-.08-1.15-.23-.6-.37-.79-.65-.28-.6-.28-.96c0-.42.1-.78.29-1.07s.45-.52.79-.67.72-.23 1.14-.23c.43 0 .82.08 1.15.23a1.8 1.8 0 0 1 .79.67c.19.29.28.65.28 1.07zm-1.29.05c0-.2-.04-.38-.11-.53s-.18-.27-.32-.36-.3-.13-.5-.13c-.19 0-.35.04-.49.12s-.24.2-.32.35-.11.33-.11.54.04.38.11.54.18.27.32.36.31.13.5.13.36-.04.49-.13.24-.21.32-.36.11-.33.11-.54zm7.15 1.02v1.2c0 .55-.06 1.01-.17 1.4s-.27.71-.48.95-.46.42-.75.54-.61.17-.97.17c-.28 0-.55-.03-.79-.11s-.46-.19-.66-.34-.36-.36-.5-.59-.24-.53-.32-.87a5.6 5.6 0 0 1-.11-1.16v-1.2a5.1 5.1 0 0 1 .17-1.4c.11-.38.28-.7.48-.94s.46-.42.75-.53.61-.17.97-.17c.29 0 .55.04.79.11s.46.18.66.34.36.34.5.59a3 3 0 0 1 .31.86c.07.33.11.72.11 1.15zm-1.29 1.37v-1.55a4.6 4.6 0 0 0-.05-.71c-.03-.2-.07-.38-.13-.52s-.13-.26-.22-.35-.19-.16-.3-.2-.24-.06-.38-.06c-.17 0-.32.03-.45.1s-.25.17-.34.31-.16.33-.21.57-.07.52-.07.86v1.55a5.2 5.2 0 0 0 .04.72c.03.21.08.38.14.53s.13.27.22.36.19.16.3.21.24.06.38.06c.17 0 .32-.03.45-.1s.25-.18.34-.32.16-.34.21-.58.07-.53.07-.87z" fill="#c1c1c1"/><path stroke="#d9d9d9" stroke-width=".46" d="M186.22 247.68v9.27"/><path d="M195.64 251.15v1.2c0 .55-.06 1.01-.17 1.4s-.27.71-.48.95-.46.42-.75.54-.61.17-.97.17c-.28 0-.55-.03-.79-.11s-.46-.19-.66-.34-.36-.36-.5-.59a3.1 3.1 0 0 1-.32-.87c-.07-.34-.11-.72-.11-1.16v-1.2c0-.55.06-1.01.17-1.4s.28-.7.48-.94.46-.42.75-.53.61-.17.97-.17c.29 0 .55.04.79.11a1.9 1.9 0 0 1 .66.34c.2.15.36.34.5.59s.24.52.31.86.11.72.11 1.15zm-1.29 1.37v-1.55a4.6 4.6 0 0 0-.05-.71c-.03-.2-.07-.38-.13-.52s-.13-.26-.22-.35-.19-.16-.3-.2-.24-.06-.38-.06c-.17 0-.32.03-.45.1s-.25.17-.34.31-.16.33-.21.57-.07.52-.07.86v1.55a5.2 5.2 0 0 0 .04.72c.03.21.08.38.14.53s.14.27.22.36.19.16.3.21.24.06.38.06c.17 0 .32-.03.45-.1s.25-.18.34-.32.16-.34.2-.58.07-.53.07-.87zm7.11 1.78v1.02h-4.82v-.87l2.31-2.5a8.3 8.3 0 0 0 .57-.71c.14-.2.24-.38.3-.55s.09-.32.09-.47c0-.22-.04-.41-.12-.57s-.19-.29-.34-.39-.33-.14-.54-.14c-.24 0-.44.06-.61.17s-.29.26-.38.45-.13.41-.13.66h-1.29a2.3 2.3 0 0 1 .29-1.15c.19-.35.47-.63.84-.84s.8-.31 1.3-.31c.49 0 .9.08 1.24.24s.59.39.77.68.26.65.26 1.06c0 .23-.04.45-.11.67s-.18.44-.32.66a5.7 5.7 0 0 1-.48.65l-.62.68-1.39 1.54h3.16zm5.6-3.15v1.2c0 .55-.06 1.01-.17 1.4s-.27.71-.48.95-.46.42-.75.54-.61.17-.97.17c-.28 0-.55-.03-.79-.11s-.46-.19-.66-.34-.36-.36-.5-.59-.24-.53-.32-.87a5.6 5.6 0 0 1-.11-1.16v-1.2a5.1 5.1 0 0 1 .17-1.4c.11-.38.28-.7.48-.94s.46-.42.75-.53.61-.17.97-.17c.29 0 .55.04.79.11s.46.18.66.34.36.34.5.59a3 3 0 0 1 .31.86c.07.33.11.72.11 1.15zm-1.29 1.37v-1.55a4.6 4.6 0 0 0-.05-.71c-.03-.2-.07-.38-.13-.52s-.13-.26-.22-.35-.19-.16-.3-.2-.24-.06-.38-.06c-.17 0-.32.03-.45.1s-.25.17-.34.31-.16.33-.21.57-.07.52-.07.86v1.55a5.2 5.2 0 0 0 .04.72c.03.21.08.38.14.53s.13.27.22.36.19.16.3.21.24.06.38.06c.17 0 .32-.03.45-.1s.25-.18.34-.32.16-.34.21-.58.07-.53.07-.87z" class="C"/><path d="M186 212.94a40.8 40.8 0 0 1 40.79 40.79A40.8 40.8 0 0 1 186 294.52a40.8 40.8 0 0 1-40.79-40.79A40.8 40.8 0 0 1 186 212.94zm0 6.49a34.3 34.3 0 1 0 0 68.6 34.3 34.3 0 1 0 0-68.6z" class="E"/><path d="M186 207.38c25.6 0 46.35 20.75 46.35 46.35a45.7 45.7 0 0 1-.04 1.85h-17.64a29.2 29.2 0 0 0 .06-1.85c0-15.87-12.87-28.74-28.74-28.74h0v-17.61z" class="C"/><path d="M144.47 305.88v7.91h-1.05v-7.91h1.05zm2.76 3.29v4.62h-1v-5.88h.95l.06 1.25zm-.24 1.46l-.42-.02a3.5 3.5 0 0 1 .18-1.11 2.8 2.8 0 0 1 .49-.9c.21-.25.46-.45.75-.59a2.2 2.2 0 0 1 .97-.21c.29 0 .55.04.78.12s.43.2.59.37.29.39.38.66.13.6.13.98v3.85h-1.01v-3.86c0-.31-.04-.55-.14-.74s-.22-.32-.4-.41-.39-.13-.64-.13-.48.05-.69.16-.38.25-.53.43a2.2 2.2 0 0 0-.34.64c-.08.24-.12.49-.12.75zm7.84-2.72v.77h-3.18v-.77h3.18zm-2.1-1.43h1v5.85c0 .2.03.35.09.45s.14.17.24.2.2.05.31.05a1.6 1.6 0 0 0 .26-.02l.21-.04v.82c-.08.02-.19.05-.31.07s-.28.04-.46.04c-.25 0-.47-.05-.68-.15s-.37-.26-.49-.49-.18-.54-.18-.93v-5.84zm5.72 7.41c-.41 0-.78-.07-1.11-.21a2.5 2.5 0 0 1-.85-.59c-.23-.25-.42-.55-.54-.9a3.3 3.3 0 0 1-.19-1.14v-.23c0-.48.07-.9.21-1.28s.33-.69.57-.96.52-.46.83-.59.63-.2.96-.2a2.5 2.5 0 0 1 1.09.22c.31.14.56.35.75.61a2.6 2.6 0 0 1 .43.91c.09.35.14.73.14 1.14v.45h-4.39v-.82h3.38v-.08c-.01-.26-.07-.51-.16-.76s-.24-.45-.44-.61-.47-.24-.81-.24c-.23 0-.44.05-.63.15s-.36.24-.49.42-.24.42-.32.69a3.5 3.5 0 0 0-.11.94v.23c0 .28.04.54.11.79s.19.46.34.64.34.33.55.44.46.16.74.16c.36 0 .66-.07.9-.22s.46-.34.65-.58l.61.48c-.13.19-.29.38-.48.55s-.44.31-.72.42-.62.16-1 .16zm4.46-5.06v4.95h-1v-5.88h.98l.03.92zm1.84-.96l-.01.93c-.08-.02-.16-.03-.24-.03a2.3 2.3 0 0 0-.25-.01c-.23 0-.44.04-.61.11s-.33.17-.45.31-.22.29-.29.47c-.07.18-.11.37-.13.59l-.28.16c0-.36.03-.69.1-1 .07-.31.18-.59.33-.83s.34-.43.57-.56.51-.21.82-.21c.07 0 .16.01.25.03s.16.03.2.05zm2.81 5l1.61-4.97h1.03l-2.11 5.88h-.67l.15-.91zm-1.34-4.97l1.66 5 .11.88h-.67l-2.13-5.88h1.03zm6.03 0v5.88h-1.01v-5.88h1.01zm-1.09-1.56a.6.6 0 0 1 .15-.41c.1-.11.25-.17.45-.17s.34.06.44.17.16.25.16.41c0 .16-.05.29-.16.4s-.25.16-.44.16-.34-.05-.45-.16-.15-.25-.15-.4zm5.14 7.55c-.41 0-.78-.07-1.11-.21a2.5 2.5 0 0 1-.85-.59c-.23-.25-.42-.55-.54-.9a3.3 3.3 0 0 1-.19-1.14v-.23a3.6 3.6 0 0 1 .21-1.28c.14-.38.33-.69.58-.96s.52-.46.83-.59.63-.2.96-.2a2.5 2.5 0 0 1 1.09.22c.31.14.56.35.76.61a2.6 2.6 0 0 1 .44.91c.09.35.14.73.14 1.14v.45h-4.39v-.82h3.38v-.08c-.01-.26-.07-.51-.16-.76s-.23-.45-.43-.61-.47-.24-.81-.24c-.23 0-.44.05-.63.15s-.36.24-.49.42-.25.42-.32.69a3.5 3.5 0 0 0-.11.94v.23c0 .28.04.54.11.79s.19.46.34.64.34.33.55.44.46.16.74.16c.35 0 .66-.07.9-.22s.46-.34.65-.58l.61.48c-.13.19-.29.38-.48.55s-.44.31-.72.42a2.8 2.8 0 0 1-1 .16zm4.95-1.15l1.51-4.83h.66l-.13.96-1.54 4.92h-.65l.14-1.04zm-1.02-4.83l1.29 4.89.09.99h-.68l-1.71-5.88h1zm4.63 4.85l1.23-4.85h1l-1.71 5.88h-.67l.15-1.03zm-1.3-4.85l1.48 4.75.17 1.12h-.64l-1.58-4.93-.13-.95h.71zm13.55-2.03v7.91h-1.05l-3.98-6.1v6.1h-1.05v-7.91h1.05l4 6.12v-6.12h1.04zm1.44 5.03v-.12c0-.42.06-.82.19-1.18a2.8 2.8 0 0 1 .53-.95c.23-.27.51-.48.84-.63s.7-.23 1.11-.23.78.08 1.11.23.62.36.85.63.41.58.54.95.19.76.19 1.18v.13c0 .42-.06.82-.19 1.18s-.3.68-.54.95-.51.48-.84.63-.69.22-1.11.22-.78-.07-1.11-.22-.61-.36-.85-.63-.41-.59-.53-.95-.19-.75-.19-1.18zm1-.12v.13a3.3 3.3 0 0 0 .1.83c.07.26.17.48.31.68s.32.36.53.47.45.17.73.17a1.5 1.5 0 0 0 .72-.17c.21-.12.38-.27.52-.47s.24-.43.31-.68a3.1 3.1 0 0 0 .11-.83v-.12c0-.29-.04-.56-.11-.82s-.17-.49-.31-.69-.31-.36-.52-.48-.45-.17-.73-.17-.52.06-.73.17-.38.28-.52.48-.24.43-.31.69a3.2 3.2 0 0 0-.1.82zm7.7-.78v.82h-2.65v-.82h2.65zm4.41 2.22c0-.15-.03-.28-.1-.4s-.19-.24-.39-.34-.48-.2-.87-.27a6.9 6.9 0 0 1-.88-.24c-.26-.09-.48-.21-.67-.34s-.32-.29-.42-.47-.15-.39-.15-.64c0-.23.05-.45.15-.66s.25-.39.44-.55.42-.28.69-.37.57-.14.9-.14c.47 0 .87.08 1.21.25s.59.39.77.67.27.58.27.92h-1c0-.16-.05-.32-.15-.47s-.23-.28-.42-.38-.4-.15-.67-.15c-.28 0-.5.04-.68.13s-.29.19-.37.32-.11.27-.11.41c0 .11.02.21.05.29s.11.16.21.23a1.7 1.7 0 0 0 .41.2 6.3 6.3 0 0 0 .68.18c.48.11.88.24 1.19.39s.54.34.7.56.23.49.23.8c0 .26-.06.49-.16.71s-.26.4-.46.55a2.3 2.3 0 0 1-.72.36 3.2 3.2 0 0 1-.93.13c-.52 0-.96-.09-1.31-.28s-.63-.42-.82-.72-.28-.6-.28-.93h1.01c.02.28.09.49.24.66s.32.27.53.34.42.1.63.1c.28 0 .5-.04.69-.11s.33-.17.43-.3.15-.27.15-.43zm3.33-6.79v8.34H214v-8.34h1.01zm-.24 5.18l-.42-.02c0-.4.06-.77.18-1.11a2.8 2.8 0 0 1 .49-.9c.21-.25.46-.45.75-.59a2.2 2.2 0 0 1 .97-.21c.29 0 .55.04.78.12s.43.2.59.37.29.39.38.66.13.6.13.98v3.85h-1.01v-3.86c0-.31-.05-.55-.14-.74s-.22-.32-.4-.41-.39-.13-.64-.13-.48.05-.69.16-.38.25-.53.43c-.14.18-.26.4-.34.64s-.12.49-.12.75zm5.09.29v-.12c0-.42.06-.82.19-1.18a2.8 2.8 0 0 1 .53-.95c.23-.27.51-.48.84-.63s.7-.23 1.11-.23.78.08 1.11.23.61.36.85.63.42.58.54.95.19.76.19 1.18v.13c0 .42-.06.82-.19 1.18s-.3.68-.54.95-.51.48-.84.63-.69.22-1.11.22a2.7 2.7 0 0 1-1.11-.22c-.33-.15-.61-.36-.85-.63s-.41-.59-.53-.95-.19-.75-.19-1.18zm1-.12v.13c0 .29.03.57.1.83s.17.48.31.68.32.36.53.47.45.17.73.17a1.5 1.5 0 0 0 .72-.17c.21-.12.38-.27.52-.47s.24-.43.31-.68a3.1 3.1 0 0 0 .11-.83v-.12c0-.29-.04-.56-.11-.82s-.17-.49-.31-.69-.31-.36-.52-.48-.45-.17-.73-.17-.52.06-.73.17-.38.28-.52.48-.24.43-.31.69-.1.53-.1.82zm7.09 1.96l1.51-4.83h.66l-.13.96-1.54 4.92h-.65l.14-1.04zm-1.01-4.83l1.29 4.89.09.99h-.68l-1.7-5.88h1zm4.63 4.85l1.23-4.85h1l-1.7 5.88h-.67l.15-1.03zm-1.3-4.85l1.48 4.75.17 1.12h-.64l-1.58-4.93-.13-.95h.71z" class="B"/><path d="M323.29 251.15v1.2c0 .55-.06 1.01-.17 1.4s-.27.71-.48.95-.46.42-.75.54-.61.17-.97.17c-.28 0-.55-.03-.79-.11s-.46-.19-.66-.34-.36-.36-.5-.59-.24-.53-.32-.87-.11-.72-.11-1.16v-1.2a5.1 5.1 0 0 1 .17-1.4c.11-.38.27-.7.48-.94s.46-.42.75-.53.61-.17.97-.17a2.8 2.8 0 0 1 .79.11 1.9 1.9 0 0 1 .65.34c.19.15.36.34.5.59s.24.52.31.86.11.72.11 1.15zm-1.29 1.37v-1.55a4.5 4.5 0 0 0-.05-.71c-.03-.2-.07-.38-.13-.52s-.13-.26-.22-.35-.19-.16-.3-.2-.24-.06-.38-.06c-.17 0-.32.03-.45.1s-.25.17-.34.31-.16.33-.21.57-.07.52-.07.86v1.55a5.2 5.2 0 0 0 .04.72c.03.21.08.38.14.53s.13.27.22.36.19.16.3.21.24.06.38.06c.17 0 .32-.03.45-.1s.25-.18.34-.32.16-.34.2-.58a4.5 4.5 0 0 0 .07-.87zm7.01.85c0 .44-.11.82-.31 1.12s-.49.53-.84.69-.76.23-1.21.23-.85-.08-1.21-.23-.64-.39-.86-.69-.31-.68-.31-1.12c0-.3.06-.56.18-.81s.29-.45.5-.62a2.2 2.2 0 0 1 .75-.4c.29-.09.61-.14.95-.14.46 0 .86.08 1.22.25a2 2 0 0 1 .85.69c.2.29.31.64.31 1.03zm-1.3-.08c0-.23-.05-.42-.14-.59s-.21-.3-.38-.39-.35-.14-.57-.14-.41.05-.57.14-.28.22-.38.39-.13.36-.13.59.04.43.13.6.22.29.38.38.35.13.58.13.41-.04.57-.13.28-.21.37-.38.13-.37.13-.6zm1.14-3.21c0 .36-.09.68-.28.96a1.9 1.9 0 0 1-.79.65c-.33.16-.71.23-1.14.23s-.81-.08-1.15-.23-.6-.37-.79-.65-.28-.6-.28-.96c0-.42.1-.78.29-1.07s.45-.52.79-.67.72-.23 1.14-.23c.43 0 .82.08 1.15.23a1.8 1.8 0 0 1 .79.67c.19.29.28.65.28 1.07zm-1.29.05c0-.2-.04-.38-.11-.53s-.18-.27-.32-.36-.3-.13-.5-.13c-.19 0-.35.04-.49.12s-.24.2-.32.35-.11.33-.11.54.04.38.11.54.18.27.32.36.31.13.5.13.36-.04.49-.13.24-.21.32-.36.11-.33.11-.54zm7.15 1.02v1.2c0 .55-.06 1.01-.17 1.4s-.27.71-.48.95-.46.42-.75.54-.61.17-.97.17c-.28 0-.55-.03-.79-.11s-.46-.19-.66-.34-.36-.36-.5-.59-.24-.53-.32-.87-.11-.72-.11-1.16v-1.2c0-.55.06-1.01.17-1.4s.27-.7.48-.94.46-.42.75-.53.61-.17.97-.17a2.8 2.8 0 0 1 .79.11 1.9 1.9 0 0 1 .65.34c.19.15.36.34.5.59s.24.52.31.86.11.72.11 1.15zm-1.29 1.37v-1.55a4.6 4.6 0 0 0-.05-.71c-.03-.2-.07-.38-.13-.52s-.13-.26-.22-.35-.19-.16-.3-.2-.24-.06-.38-.06c-.17 0-.32.03-.45.1s-.25.17-.34.31-.16.33-.21.57-.07.52-.07.86v1.55a5.2 5.2 0 0 0 .04.72c.03.21.08.38.14.53s.13.27.22.36.19.16.3.21.24.06.38.06c.17 0 .32-.03.45-.1s.25-.18.34-.32.16-.34.2-.58.07-.53.07-.87z" fill="#d9d9d9"/><path stroke="#d9d9d9" stroke-width=".46" d="M339.87 247.68v9.27"/><path d="M349.29 251.15v1.2c0 .55-.06 1.01-.17 1.4s-.27.71-.48.95-.46.42-.75.54-.61.17-.97.17c-.28 0-.55-.03-.79-.11s-.46-.19-.66-.34-.36-.36-.5-.59-.24-.53-.32-.87-.11-.72-.11-1.16v-1.2a5.1 5.1 0 0 1 .17-1.4c.11-.38.27-.7.48-.94s.46-.42.75-.53.61-.17.97-.17a2.8 2.8 0 0 1 .79.11 1.9 1.9 0 0 1 .65.34c.19.15.36.34.5.59s.24.52.31.86.11.72.11 1.15zm-1.29 1.37v-1.55a4.5 4.5 0 0 0-.05-.71c-.03-.2-.07-.38-.13-.52s-.13-.26-.22-.35-.19-.16-.3-.2-.24-.06-.38-.06c-.17 0-.32.03-.45.1s-.25.17-.34.31-.16.33-.21.57-.07.52-.07.86v1.55a5.2 5.2 0 0 0 .04.72c.03.21.08.38.14.53s.13.27.22.36.19.16.3.21.24.06.38.06c.17 0 .32-.03.45-.1s.25-.18.34-.32.16-.34.2-.58a4.5 4.5 0 0 0 .07-.87zm7.11 1.78v1.02h-4.81v-.87l2.31-2.5.57-.71c.14-.2.24-.38.3-.55s.09-.32.09-.47c0-.22-.04-.41-.12-.57s-.19-.29-.34-.39-.33-.14-.54-.14c-.24 0-.44.06-.61.17s-.29.26-.38.45-.13.41-.13.66h-1.29a2.3 2.3 0 0 1 .29-1.15c.2-.35.48-.63.84-.84s.8-.31 1.3-.31c.49 0 .9.08 1.24.24s.6.39.77.68.26.65.26 1.06c0 .23-.04.45-.11.67s-.18.44-.32.66a5.7 5.7 0 0 1-.48.65l-.62.68-1.39 1.54h3.16zm5.61-3.15v1.2c0 .55-.06 1.01-.17 1.4s-.27.71-.48.95-.46.42-.75.54-.61.17-.97.17c-.28 0-.55-.03-.79-.11s-.46-.19-.66-.34-.36-.36-.5-.59-.24-.53-.32-.87-.11-.72-.11-1.16v-1.2c0-.55.06-1.01.17-1.4s.27-.7.48-.94.46-.42.75-.53.61-.17.97-.17a2.8 2.8 0 0 1 .79.11 1.9 1.9 0 0 1 .65.34c.19.15.36.34.5.59s.24.52.31.86.11.72.11 1.15zm-1.29 1.37v-1.55a4.6 4.6 0 0 0-.05-.71c-.03-.2-.07-.38-.13-.52s-.13-.26-.22-.35-.19-.16-.3-.2-.24-.06-.38-.06c-.17 0-.32.03-.45.1s-.25.17-.34.31-.16.33-.21.57-.07.52-.07.86v1.55a5.2 5.2 0 0 0 .04.72c.03.21.08.38.14.53s.13.27.22.36.19.16.3.21.24.06.38.06c.17 0 .32-.03.45-.1s.25-.18.34-.32.16-.34.2-.58.07-.53.07-.87z" class="C"/><path d="M343.6 212.94a40.8 40.8 0 0 1 40.79 40.79 40.8 40.8 0 0 1-40.79 40.79 40.8 40.8 0 0 1-40.79-40.79 40.8 40.8 0 0 1 40.79-40.79zm0 6.49a34.3 34.3 0 1 0 0 68.6 34.3 34.3 0 1 0 0-68.6z" class="E"/><path d="M343.6 207.38c25.6 0 46.35 20.75 46.35 46.35a47.6 47.6 0 0 1-.04 1.85h-17.64a29.2 29.2 0 0 0 .06-1.85c0-15.87-12.87-28.74-28.74-28.74h0v-17.61z" class="C"/><path d="M317.57 309.59v.5a5.3 5.3 0 0 1-.22 1.6c-.15.47-.36.87-.64 1.2a2.8 2.8 0 0 1-1 .75c-.39.17-.82.26-1.3.26-.47 0-.9-.09-1.29-.26a2.9 2.9 0 0 1-1.01-.75c-.28-.33-.5-.73-.66-1.2s-.23-1-.23-1.6v-.5a5.1 5.1 0 0 1 .23-1.59 3.5 3.5 0 0 1 .66-1.2 2.8 2.8 0 0 1 1-.76c.39-.17.82-.26 1.29-.26.48 0 .92.09 1.3.26s.73.43 1 .76a3.4 3.4 0 0 1 .65 1.2c.15.47.23 1 .23 1.59zm-1.04.5v-.51a4.8 4.8 0 0 0-.15-1.25c-.09-.36-.23-.67-.42-.91a1.8 1.8 0 0 0-.68-.56c-.26-.13-.56-.19-.9-.19-.33 0-.62.06-.89.19s-.49.31-.67.56-.33.55-.43.91-.15.78-.15 1.25v.51c0 .47.05.89.15 1.26s.25.67.44.92.42.43.68.56.56.19.88.19c.34 0 .64-.06.91-.19s.49-.31.67-.56.32-.56.42-.92a5.1 5.1 0 0 0 .14-1.26zm3.95 3.7h-1v-6.5c0-.42.08-.78.23-1.07s.38-.51.67-.66a2.2 2.2 0 0 1 1.03-.23 2.7 2.7 0 0 1 .35.02 2.6 2.6 0 0 1 .35.06l-.05.82c-.08-.02-.16-.03-.26-.04l-.28-.01c-.21 0-.4.04-.55.13s-.27.21-.35.37-.12.36-.12.6v6.5zm1.25-5.88v.77h-3.18v-.77h3.18zm2.62 5.88h-1v-6.5c0-.42.08-.78.23-1.07s.38-.51.67-.66a2.2 2.2 0 0 1 1.03-.23 2.7 2.7 0 0 1 .35.02c.12.01.24.04.35.06l-.05.82c-.08-.02-.16-.03-.26-.04l-.28-.01c-.21 0-.4.04-.55.13s-.27.21-.35.37-.12.36-.12.6v6.5zm1.25-5.88v.77h-3.18v-.77h3.18zm3.43 5.99c-.41 0-.78-.07-1.11-.21a2.5 2.5 0 0 1-.85-.59 2.6 2.6 0 0 1-.54-.9 3.3 3.3 0 0 1-.19-1.14v-.23a3.6 3.6 0 0 1 .21-1.28c.14-.38.33-.69.58-.96s.52-.46.83-.59.63-.2.96-.2a2.5 2.5 0 0 1 1.09.22c.31.14.56.35.75.61a2.6 2.6 0 0 1 .44.91c.09.35.14.73.14 1.14v.45h-4.39v-.82h3.38v-.08a2.5 2.5 0 0 0-.16-.76c-.09-.25-.23-.45-.43-.61s-.47-.24-.81-.24c-.23 0-.44.05-.63.15s-.36.24-.5.42-.24.42-.32.69a3.5 3.5 0 0 0-.11.94v.23c0 .28.04.54.11.79s.19.46.34.64.33.33.55.44.46.16.74.16c.36 0 .66-.07.9-.22s.46-.34.65-.58l.61.48c-.13.19-.29.38-.48.55s-.44.31-.72.42a2.8 2.8 0 0 1-1 .16zm4.46-5.06v4.95h-1v-5.88h.98l.03.92zm1.84-.96v.93c-.08-.02-.16-.03-.24-.03-.07-.01-.16-.01-.25-.01-.23 0-.44.04-.61.11s-.33.17-.45.31-.22.29-.29.47-.11.37-.14.59l-.28.16a4.6 4.6 0 0 1 .1-1c.07-.31.18-.59.33-.83s.34-.43.56-.56a1.6 1.6 0 0 1 .83-.21c.07 0 .16.01.25.03s.16.03.19.05zm9.93-2v7.91h-1.05l-3.98-6.1v6.1h-1.05v-7.91h1.05l4 6.12v-6.12h1.04zm1.44 5.03v-.12c0-.42.06-.82.18-1.18a2.8 2.8 0 0 1 .53-.95c.23-.27.51-.48.84-.63s.7-.23 1.11-.23.78.08 1.11.23.62.36.85.63.41.58.54.95.19.76.19 1.18v.13c0 .42-.06.82-.19 1.18s-.3.68-.54.95-.51.48-.84.63-.7.22-1.11.22-.78-.07-1.11-.22-.61-.36-.85-.63a2.9 2.9 0 0 1-.53-.95c-.12-.36-.18-.75-.18-1.18zm1-.12v.13c0 .29.03.57.1.83s.17.48.31.68.32.36.53.47.45.17.73.17.52-.06.72-.17.38-.27.52-.47.24-.43.31-.68a3.1 3.1 0 0 0 .11-.83v-.12c0-.29-.04-.56-.11-.82s-.17-.49-.31-.69a1.5 1.5 0 0 0-.52-.48c-.21-.12-.45-.17-.73-.17s-.52.06-.73.17-.38.28-.52.48-.24.43-.31.69-.1.53-.1.82zm7.7-.78v.82h-2.65v-.82h2.65zm4.4 2.22c0-.15-.03-.28-.1-.4s-.19-.24-.38-.34-.48-.2-.87-.27c-.33-.07-.62-.15-.89-.24s-.48-.21-.67-.34-.32-.29-.42-.47-.15-.39-.15-.64c0-.23.05-.45.15-.66s.25-.39.44-.55.42-.28.69-.37.57-.14.9-.14c.47 0 .87.08 1.21.25s.59.39.77.67.27.58.27.92h-1c0-.16-.05-.32-.15-.47s-.23-.28-.42-.38-.4-.15-.67-.15c-.28 0-.51.04-.68.13s-.3.19-.37.32-.11.27-.11.41c0 .11.02.21.06.29s.11.16.21.23a1.7 1.7 0 0 0 .41.2c.18.06.4.12.68.18.48.11.88.24 1.19.39s.54.34.69.56.23.49.23.8c0 .26-.05.49-.16.71s-.26.4-.46.55a2.3 2.3 0 0 1-.72.36 3.2 3.2 0 0 1-.93.13c-.52 0-.96-.09-1.31-.28s-.63-.42-.81-.72-.28-.6-.28-.93h1.01c.01.28.1.49.24.66s.32.27.53.34a2.1 2.1 0 0 0 .62.1c.28 0 .51-.04.69-.11s.33-.17.43-.3.15-.27.15-.43zm3.33-6.79v8.34h-1v-8.34h1zm-.24 5.18l-.42-.02a3.5 3.5 0 0 1 .18-1.11 2.8 2.8 0 0 1 .49-.9c.21-.25.46-.45.75-.59a2.2 2.2 0 0 1 .97-.21c.29 0 .55.04.78.12s.43.2.59.37.29.39.38.66.13.6.13.98v3.85h-1.01v-3.86a1.7 1.7 0 0 0-.13-.74c-.09-.19-.22-.32-.4-.41s-.39-.13-.64-.13-.48.05-.68.16-.38.25-.53.43a2.2 2.2 0 0 0-.34.64c-.08.24-.12.49-.12.75zm5.1.29v-.12c0-.42.06-.82.19-1.18a2.8 2.8 0 0 1 .53-.95c.23-.27.51-.48.84-.63s.7-.23 1.11-.23.78.08 1.11.23.62.36.85.63.42.58.54.95.19.76.19 1.18v.13c0 .42-.06.82-.19 1.18s-.3.68-.54.95-.51.48-.84.63-.69.22-1.11.22-.78-.07-1.11-.22-.61-.36-.85-.63a2.9 2.9 0 0 1-.53-.95c-.12-.36-.19-.75-.19-1.18zm1-.12v.13a3.3 3.3 0 0 0 .1.83c.07.26.17.48.31.68s.32.36.53.47.45.17.73.17.52-.06.72-.17.38-.27.52-.47.24-.43.31-.68a3.1 3.1 0 0 0 .11-.83v-.12c0-.29-.04-.56-.11-.82s-.17-.49-.31-.69-.31-.36-.52-.48-.45-.17-.73-.17-.52.06-.73.17-.38.28-.52.48-.24.43-.31.69a3.2 3.2 0 0 0-.1.82zm7.09 1.96l1.51-4.83h.66l-.13.96-1.54 4.92h-.65l.14-1.04zm-1.02-4.83l1.29 4.89.09.99h-.68l-1.71-5.88h1zm4.63 4.85l1.23-4.85h1l-1.71 5.88h-.67l.15-1.03zm-1.3-4.85l1.48 4.75.17 1.12h-.64l-1.58-4.93-.13-.95h.71z" class="B"/><g filter="url(#C)" class="D"><rect x="185.24" y="344.39" width="315.6" height="166.53" rx="15.78"/></g><path d="M203.43 366.79v8.41h-1.45v-8.41h1.45zm3.05 3.5v4.92h-1.39v-6.25h1.31l.08 1.33zm-.25 1.56l-.45-.01c0-.44.06-.85.19-1.22a3 3 0 0 1 .51-.95c.22-.26.48-.47.79-.61a2.3 2.3 0 0 1 1.02-.22c.3 0 .57.04.81.13s.46.21.63.4a1.8 1.8 0 0 1 .4.72 3.6 3.6 0 0 1 .14 1.08v4.04h-1.4v-4.05c0-.3-.04-.54-.13-.71s-.21-.3-.38-.37-.36-.12-.61-.12-.45.05-.64.15-.35.24-.48.41a2 2 0 0 0-.3.6 2.5 2.5 0 0 0-.1.73zm8.32-2.89v1.02h-3.53v-1.02h3.53zm-2.51-1.53h1.39v6.06c0 .19.03.34.08.44s.14.17.24.2a1.1 1.1 0 0 0 .35.05c.1 0 .19-.01.28-.02l.21-.03.01 1.06c-.12.03-.25.07-.41.09s-.32.04-.52.04c-.32 0-.6-.06-.85-.17s-.44-.3-.58-.56-.21-.6-.21-1.03v-6.14zm6.34 7.9c-.46 0-.88-.07-1.25-.22-.37-.16-.69-.37-.95-.64s-.46-.59-.59-.96-.21-.77-.21-1.2v-.23a3.9 3.9 0 0 1 .21-1.33 3 3 0 0 1 .59-1.02c.25-.29.56-.5.9-.65s.72-.23 1.13-.23c.45 0 .84.07 1.17.23a2.2 2.2 0 0 1 .83.63c.22.27.39.59.5.96s.17.79.17 1.24v.6h-4.83v-1h3.46v-.11c-.01-.25-.06-.49-.15-.7a1.2 1.2 0 0 0-.41-.53c-.19-.14-.43-.2-.74-.2-.23 0-.44.05-.62.15s-.32.24-.44.42-.21.41-.28.67-.09.55-.09.87v.23c0 .27.04.53.11.76s.19.43.34.61.32.31.53.41.44.14.71.14c.34 0 .63-.07.9-.2s.49-.33.68-.57l.73.71c-.13.2-.31.38-.53.57s-.48.32-.79.43-.67.17-1.07.17zm4.99-5.18v5.06h-1.39v-6.25h1.33l.06 1.19zm1.91-1.23l-.01 1.3c-.09-.02-.18-.03-.28-.04l-.29-.01c-.24 0-.45.03-.63.1s-.33.16-.46.29-.21.27-.28.45-.1.38-.12.6l-.32.02a4.9 4.9 0 0 1 .11-1.09c.08-.33.19-.63.35-.88s.35-.45.59-.59.52-.21.83-.21c.09 0 .18.01.27.02s.18.03.23.05zm3.01 5.19l1.53-5.15h1.44l-2.17 6.25h-.9l.1-1.1zm-1.17-5.15l1.56 5.17.07 1.08h-.9l-2.18-6.25h1.45zm6.5 0v6.25h-1.4v-6.25h1.4zm-1.49-1.64c0-.21.07-.39.21-.53.14-.14.34-.21.59-.21s.44.07.58.21c.14.14.21.31.21.53a.7.7 0 0 1-.21.52c-.14.14-.34.21-.58.21s-.45-.07-.59-.21-.21-.31-.21-.52zm5.77 8.01c-.46 0-.88-.07-1.25-.22-.37-.16-.69-.37-.95-.64s-.46-.59-.59-.96-.21-.77-.21-1.2v-.23a3.9 3.9 0 0 1 .21-1.33 3 3 0 0 1 .6-1.02c.25-.29.55-.5.9-.65a2.8 2.8 0 0 1 1.13-.23c.45 0 .84.07 1.17.23a2.2 2.2 0 0 1 .83.63c.22.27.39.59.5.96a4.3 4.3 0 0 1 .17 1.24v.6h-4.83v-1h3.45v-.11c-.01-.25-.06-.49-.15-.7s-.23-.4-.41-.53-.43-.2-.74-.2c-.23 0-.44.05-.62.15s-.33.24-.45.42a2.2 2.2 0 0 0-.28.67c-.06.26-.09.55-.09.87v.23c0 .27.04.53.11.76s.19.43.34.61.32.31.53.41.45.14.71.14c.34 0 .63-.07.9-.2s.49-.33.68-.57l.73.71c-.14.2-.31.38-.53.57s-.48.32-.79.43-.67.17-1.07.17zm5.29-1.5l1.44-4.87h.89l-.24 1.46-1.46 4.8h-.8l.16-1.39zm-.85-4.87l1.13 4.89.09 1.36h-.89l-1.69-6.25h1.36zm4.54 4.83l1.09-4.83h1.36l-1.69 6.25h-.89l.13-1.42zm-1.2-4.83l1.43 4.81.18 1.44h-.8l-1.47-4.8-.24-1.45h.91zm12.11 4.08c0-.17-.03-.33-.08-.46a.9.9 0 0 0-.27-.37c-.13-.11-.32-.22-.56-.32a7.4 7.4 0 0 0-.9-.33l-1.11-.41a4.2 4.2 0 0 1-.88-.53c-.25-.2-.45-.44-.58-.7s-.21-.57-.21-.92.07-.66.21-.94.35-.52.62-.73.59-.37.95-.48.77-.17 1.21-.17a3.5 3.5 0 0 1 1.61.35c.45.23.8.54 1.05.93s.37.82.37 1.29h-1.44c0-.28-.06-.52-.18-.73s-.29-.38-.53-.51-.53-.19-.9-.19c-.34 0-.63.05-.86.16s-.4.25-.51.42a1.1 1.1 0 0 0-.17.6c0 .16.04.3.11.43s.19.25.33.36a2.9 2.9 0 0 0 .57.31c.23.1.5.19.8.28.47.14.87.29 1.22.46a3.5 3.5 0 0 1 .87.57 2.1 2.1 0 0 1 .52.72c.12.26.17.57.17.91 0 .35-.07.67-.21.96s-.35.52-.61.72-.58.35-.95.46-.77.16-1.22.16a4.5 4.5 0 0 1-1.2-.16 3.5 3.5 0 0 1-1.06-.49c-.32-.22-.57-.5-.76-.83s-.28-.73-.28-1.17h1.45a1.6 1.6 0 0 0 .14.7c.1.19.23.35.4.47a1.8 1.8 0 0 0 .59.27c.23.06.47.09.73.09a2.2 2.2 0 0 0 .85-.14c.23-.1.4-.23.52-.41s.17-.37.17-.6zm5.47-4.08v1.02h-3.53v-1.02h3.53zm-2.51-1.53h1.39v6.06c0 .19.03.34.08.44s.14.17.24.2a1.1 1.1 0 0 0 .35.05c.1 0 .19-.01.28-.02l.21-.03.01 1.06c-.12.03-.25.07-.4.09s-.32.04-.52.04c-.32 0-.6-.06-.85-.17s-.44-.3-.58-.56-.21-.6-.21-1.03v-6.14zm7.11 6.53v-2.98c0-.22-.04-.42-.12-.58s-.2-.29-.37-.38-.37-.13-.61-.13c-.23 0-.42.04-.59.12s-.3.18-.39.31-.14.28-.14.44h-1.39c0-.25.06-.49.18-.72s.29-.44.52-.62a2.6 2.6 0 0 1 .81-.43 3.4 3.4 0 0 1 1.06-.16 3.1 3.1 0 0 1 1.25.24 1.9 1.9 0 0 1 .86.72c.21.32.32.71.32 1.19v2.78c0 .29.02.54.06.77s.1.42.18.58v.09h-1.43c-.07-.15-.12-.34-.16-.57s-.05-.46-.05-.68zm.2-2.55l.01.86h-1c-.26 0-.49.03-.68.08a1.4 1.4 0 0 0-.49.21.9.9 0 0 0-.29.33c-.07.13-.1.28-.1.45s.04.32.12.46.19.24.33.32.33.12.54.12c.29 0 .53-.06.75-.17s.39-.26.51-.43.19-.34.2-.49l.45.62a2.1 2.1 0 0 1-.24.51c-.11.18-.26.36-.44.52s-.39.3-.64.4-.53.16-.86.16c-.41 0-.77-.08-1.09-.24s-.57-.39-.75-.66c-.18-.28-.27-.6-.27-.95a2 2 0 0 1 .19-.88c.13-.26.31-.47.56-.65s.55-.31.9-.39a4.8 4.8 0 0 1 1.21-.14h1.09zm5.52-2.45v1.02h-3.52v-1.02h3.52zm-2.51-1.53h1.39v6.06c0 .19.03.34.08.44s.14.17.24.2a1.1 1.1 0 0 0 .35.05c.1 0 .19-.01.28-.02l.21-.03.01 1.06c-.12.03-.25.07-.41.09s-.32.04-.52.04c-.32 0-.6-.06-.85-.17s-.44-.3-.58-.56-.21-.6-.21-1.03v-6.14zm7.34 6.31v-4.78h1.4v6.25h-1.32l-.08-1.47zm.2-1.3l.47-.01c0 .42-.05.81-.14 1.16a2.7 2.7 0 0 1-.43.92 2 2 0 0 1-.74.61 2.5 2.5 0 0 1-1.08.21c-.3 0-.58-.04-.84-.13s-.47-.23-.66-.41-.32-.43-.42-.72-.15-.65-.15-1.06v-4.04h1.39V373c0 .23.03.42.08.57s.13.27.22.36.2.16.32.2a1.3 1.3 0 0 0 .39.06c.4 0 .71-.08.94-.23s.39-.37.49-.64.15-.56.15-.9zm6.14 1.08c0-.14-.04-.26-.1-.37-.07-.12-.2-.22-.4-.31s-.48-.18-.86-.25c-.33-.07-.64-.16-.91-.26a2.9 2.9 0 0 1-.7-.37c-.2-.15-.35-.32-.46-.52s-.16-.43-.16-.69c0-.25.06-.5.17-.72s.27-.43.48-.6.46-.31.76-.41.63-.15 1-.15c.52 0 .97.09 1.35.27s.67.41.87.71.3.63.3 1h-1.39c0-.16-.04-.32-.13-.46s-.2-.26-.37-.35-.37-.14-.62-.14c-.24 0-.44.04-.59.12s-.27.17-.35.29-.11.25-.11.39c0 .1.02.2.06.28s.11.16.21.23.23.13.39.19a5.7 5.7 0 0 0 .64.17c.48.1.89.23 1.23.39s.61.35.8.6.28.55.28.92c0 .28-.06.53-.18.76s-.29.43-.51.59-.49.3-.8.39a3.6 3.6 0 0 1-1.04.14c-.57 0-1.05-.1-1.44-.3s-.69-.46-.9-.78-.3-.65-.3-.99h1.35c.02.26.09.46.21.62s.29.26.49.33a1.9 1.9 0 0 0 .61.1c.25 0 .46-.03.63-.1s.3-.16.39-.28.13-.25.13-.4z" class="B"/><path d="M310.19 361.54v12.66h-2.09v-10.19l-3.1 1.05v-1.72l4.93-1.8h.25zm12.77.04v1.14l-5.05 11.48h-2.2l5.04-10.96h-6.54v-1.66h8.75zm3.9 6.75l-1.67-.41.69-6.34h6.81v1.77h-5.07l-.35 3.09c.2-.12.47-.23.81-.34s.74-.17 1.19-.17c.6 0 1.13.1 1.6.3.47.19.88.47 1.2.84.33.36.58.81.75 1.33s.26 1.11.26 1.76a5 5 0 0 1-.26 1.64 3.8 3.8 0 0 1-.76 1.34 3.5 3.5 0 0 1-1.29.91c-.51.21-1.12.32-1.83.32-.53 0-1.03-.07-1.52-.23s-.91-.38-1.29-.68a3.5 3.5 0 0 1-.92-1.13c-.23-.45-.36-.97-.4-1.55h2.05c.05.41.16.76.34 1.05.18.28.42.5.71.65s.64.23 1.02.23c.35 0 .66-.06.91-.18s.47-.31.63-.54c.17-.24.3-.51.38-.83.09-.32.13-.67.13-1.06a3.3 3.3 0 0 0-.15-1.01 2.2 2.2 0 0 0-.42-.8 1.8 1.8 0 0 0-.7-.52c-.28-.13-.61-.19-.98-.19-.5 0-.88.07-1.14.22-.26.14-.5.32-.73.54z" class="C"/><use href="#K" class="E"/><path d="M238.01 393.98a37 37 0 0 1 36.98 36.98 37 37 0 0 1-36.98 36.98 37 37 0 0 1-36.97-36.03l-.01-.95h14.06c0 12.66 10.27 22.93 22.93 22.93s22.93-10.27 22.93-22.93-10.27-22.93-22.93-22.93v-14.05zm-7.48 29.33v11.25h-2.04v-8.87l-2.71.89v-1.65l4.52-1.63h.23zm5.79 6.09l-1.63-.39.62-5.66h6.17v1.69H237l-.29 2.62a3.4 3.4 0 0 1 1.73-.44 3.8 3.8 0 0 1 1.43.26 2.9 2.9 0 0 1 1.07.74 3.2 3.2 0 0 1 .67 1.19 5.1 5.1 0 0 1 .23 1.57 4.6 4.6 0 0 1-.23 1.45c-.15.45-.38.84-.69 1.19s-.7.62-1.16.82-1.02.29-1.65.29a4.6 4.6 0 0 1-1.38-.21 3.8 3.8 0 0 1-1.18-.62 3.2 3.2 0 0 1-1.18-2.4h2.01c.04.34.13.64.28.88s.34.43.59.55.53.19.86.19a1.6 1.6 0 0 0 .75-.16c.22-.11.39-.27.53-.47s.24-.44.31-.71.1-.57.1-.89c0-.31-.04-.6-.12-.86s-.2-.49-.35-.68-.36-.34-.6-.44-.51-.15-.83-.15c-.43 0-.76.06-.99.19s-.43.28-.6.45zm14.42-1.41v1.89c0 .86-.09 1.6-.26 2.21s-.43 1.11-.75 1.5-.72.67-1.18.86-.97.27-1.53.27a4.4 4.4 0 0 1-1.25-.17 3.2 3.2 0 0 1-1.04-.54 3.4 3.4 0 0 1-.79-.94 4.9 4.9 0 0 1-.5-1.36 8.8 8.8 0 0 1-.17-1.83v-1.89a8.2 8.2 0 0 1 .26-2.2c.18-.61.43-1.1.76-1.49a2.8 2.8 0 0 1 1.18-.84 4.4 4.4 0 0 1 1.53-.27 4.5 4.5 0 0 1 1.25.17 3 3 0 0 1 1.03.53 3.1 3.1 0 0 1 .79.92c.22.38.38.83.49 1.36a8.9 8.9 0 0 1 .18 1.82zm-2.03 2.16v-2.45a7.1 7.1 0 0 0-.08-1.12c-.05-.32-.12-.6-.21-.82s-.21-.41-.35-.55a1.4 1.4 0 0 0-.48-.32c-.18-.07-.38-.1-.59-.1-.27 0-.51.05-.72.16a1.3 1.3 0 0 0-.53.49 2.7 2.7 0 0 0-.33.9 7.4 7.4 0 0 0-.11 1.36v2.45a8 8 0 0 0 .07 1.13 3.9 3.9 0 0 0 .22.83c.1.23.21.42.35.57a1.4 1.4 0 0 0 .48.32c.18.07.38.1.59.1.27 0 .51-.05.72-.16s.39-.28.53-.51c.14-.24.25-.54.32-.92a7 7 0 0 0 .12-1.37z" class="C"/><path d="M217.17 481.15l-2.78 7.67h-1.14l3.21-8.41h.73l-.02.75zm2.34 7.67l-2.79-7.67-.02-.75h.73l3.22 8.41h-1.14zm-.15-3.12v.91h-4.73v-.91h4.73zm4.76 2.35a1.6 1.6 0 0 0 .71-.16c.22-.1.39-.25.53-.43s.22-.4.24-.63h1.02a1.9 1.9 0 0 1-.38 1.03c-.23.32-.53.57-.9.77a2.6 2.6 0 0 1-1.22.29c-.47 0-.88-.08-1.23-.25s-.63-.39-.87-.68-.4-.62-.51-.99a4.2 4.2 0 0 1-.17-1.2v-.24c0-.42.06-.82.17-1.19s.29-.71.51-1 .52-.52.87-.68.76-.25 1.23-.25c.49 0 .92.1 1.28.3a2.2 2.2 0 0 1 .86.81c.21.34.33.72.35 1.16h-1.02c-.02-.26-.09-.49-.22-.7s-.29-.37-.51-.5-.46-.19-.75-.19c-.33 0-.6.07-.83.2s-.4.3-.53.52-.22.46-.28.72-.08.53-.08.8v.24c0 .27.03.54.08.81s.14.51.27.72.31.39.53.52.5.19.83.19zm6.19 0a1.6 1.6 0 0 0 .71-.16c.22-.1.39-.25.53-.43a1.2 1.2 0 0 0 .24-.63h1.02c-.02.37-.15.71-.38 1.03s-.53.57-.9.77a2.6 2.6 0 0 1-1.22.29c-.47 0-.88-.08-1.23-.25s-.63-.39-.87-.68-.4-.62-.51-.99a4.2 4.2 0 0 1-.17-1.2v-.24c0-.42.06-.82.17-1.19s.29-.71.51-1 .52-.52.87-.68.76-.25 1.23-.25c.49 0 .92.1 1.28.3a2.2 2.2 0 0 1 .86.81c.21.34.33.72.35 1.16h-1.02c-.02-.26-.09-.49-.22-.7s-.29-.37-.51-.5-.46-.19-.75-.19c-.33 0-.6.07-.83.2s-.4.3-.53.52-.22.46-.28.72-.08.53-.08.8v.24c0 .27.03.54.08.81s.15.51.27.72.31.39.53.52.5.19.83.19zm6.29.88c-.44 0-.83-.07-1.18-.22s-.65-.36-.91-.63c-.25-.27-.44-.59-.58-.96a3.5 3.5 0 0 1-.2-1.21v-.24a3.8 3.8 0 0 1 .23-1.36c.15-.4.35-.74.61-1.02a2.6 2.6 0 0 1 .88-.63 2.5 2.5 0 0 1 1.02-.21c.45 0 .83.08 1.16.23a2.1 2.1 0 0 1 .8.65c.21.27.36.6.46.97s.15.77.15 1.21v.48h-4.67v-.87h3.6v-.08c-.02-.28-.07-.55-.17-.81s-.25-.48-.46-.65-.5-.25-.87-.25c-.24 0-.47.05-.67.16s-.38.25-.53.45-.26.44-.34.73-.12.62-.12 1v.24c0 .3.04.57.12.84s.21.49.36.68.36.35.58.46a1.8 1.8 0 0 0 .79.17c.38 0 .7-.08.96-.23s.49-.36.69-.62l.65.51a3 3 0 0 1-.51.58c-.21.19-.46.34-.77.45-.3.12-.66.17-1.07.17zm4.75-5.17v7.45h-1.07v-8.66h.98l.09 1.2zm4.21 1.87v.12a4.7 4.7 0 0 1-.16 1.27 3.1 3.1 0 0 1-.47 1c-.2.28-.46.51-.76.66s-.64.24-1.03.24c-.4 0-.75-.07-1.05-.2s-.56-.32-.77-.57-.38-.55-.51-.9c-.12-.35-.21-.75-.25-1.19v-.65c.05-.46.13-.88.26-1.24a3.1 3.1 0 0 1 .5-.94c.21-.26.47-.46.77-.6s.65-.21 1.04-.21.74.08 1.05.23a2.1 2.1 0 0 1 .77.65c.21.28.36.62.47 1.01s.16.82.16 1.3zm-1.07.12v-.12c0-.31-.03-.61-.1-.88s-.17-.52-.31-.73-.31-.38-.52-.5-.47-.18-.76-.18c-.27 0-.5.05-.7.14s-.36.22-.5.38a2 2 0 0 0-.34.53 3.1 3.1 0 0 0-.19.61v1.5c.08.27.19.52.32.76s.32.42.56.57c.23.14.52.21.87.21.29 0 .54-.06.75-.18s.38-.29.52-.5a2.3 2.3 0 0 0 .31-.73 3.8 3.8 0 0 0 .1-.88zm5.06-3.19v.82h-3.38v-.82h3.38zm-2.24-1.52h1.07v6.22c0 .21.03.37.1.48s.15.18.25.21.22.05.34.05a1.8 1.8 0 0 0 .28-.02l.23-.05.01.87a2.5 2.5 0 0 1-.34.07c-.13.03-.3.04-.49.04-.26 0-.5-.05-.72-.16s-.4-.28-.53-.52c-.13-.25-.19-.58-.19-.99v-6.22zm6.09 7.89c-.44 0-.83-.07-1.18-.22s-.65-.36-.91-.63-.44-.59-.58-.96a3.5 3.5 0 0 1-.2-1.21v-.24a3.8 3.8 0 0 1 .23-1.36c.15-.4.35-.74.61-1.02a2.6 2.6 0 0 1 .88-.63 2.5 2.5 0 0 1 1.02-.21c.45 0 .83.08 1.16.23a2.1 2.1 0 0 1 .8.65c.21.27.36.6.46.97s.15.77.15 1.21v.48h-4.67v-.87h3.6v-.08c-.02-.28-.07-.55-.17-.81s-.25-.48-.46-.65-.5-.25-.87-.25c-.24 0-.47.05-.67.16s-.38.25-.53.45-.26.44-.34.73-.12.62-.12 1v.24c0 .3.04.57.12.84.09.26.21.49.37.68s.36.35.58.46a1.8 1.8 0 0 0 .79.17c.38 0 .7-.08.96-.23s.49-.36.69-.62l.65.51a3 3 0 0 1-.51.58c-.21.19-.46.34-.77.45-.3.12-.66.17-1.07.17zm7.62-1.33v-7.66h1.07v8.88h-.98l-.09-1.21zm-4.21-1.84v-.12c0-.48.06-.91.17-1.3s.29-.73.5-1.01.48-.5.78-.65.64-.23 1.02-.23c.39 0 .74.07 1.03.21s.55.33.75.6.37.57.49.94.2.78.25 1.24v.53c-.04.46-.12.87-.25 1.24s-.28.68-.49.94-.46.46-.75.6a2.5 2.5 0 0 1-1.04.2c-.37 0-.7-.08-1-.24s-.56-.38-.78-.66-.38-.62-.5-1a4.4 4.4 0 0 1-.17-1.27zm1.07-.12v.12c0 .31.03.61.09.88s.17.51.3.72.31.37.51.49a1.5 1.5 0 0 0 .75.17c.36 0 .64-.08.87-.23s.42-.35.55-.6.25-.51.32-.8v-1.39c-.05-.21-.11-.42-.2-.61a1.9 1.9 0 0 0-.33-.53c-.13-.16-.3-.28-.5-.38s-.43-.14-.7-.14c-.29 0-.55.06-.76.18s-.38.29-.51.5-.24.45-.3.73-.09.57-.09.88z" class="B"/><path d="M342.54 398.42c17.97 0 32.55 14.57 32.55 32.55s-14.57 32.54-32.55 32.55-32.55-14.57-32.55-32.55 14.57-32.55 32.55-32.55zm0 5.18c-15.12 0-27.37 12.25-27.37 27.37s12.25 27.37 27.37 27.37 27.37-12.25 27.37-27.37-12.25-27.37-27.37-27.37z" class="E"/><path d="M342.55 393.98a37 37 0 0 1 36.98 36.98 37 37 0 0 1-36.98 36.98 37 37 0 0 1-36.97-36.03l-.01-.95h14.06c0 12.66 10.27 22.93 22.93 22.93s22.93-10.27 22.93-22.93-10.27-22.93-22.93-22.93v-14.05h0zm-.62 38.98v1.6h-7.6v-1.37l3.64-3.94.9-1.12c.22-.32.38-.61.47-.86.1-.26.15-.51.15-.75 0-.34-.06-.64-.19-.9s-.3-.46-.54-.61-.52-.22-.86-.22c-.37 0-.7.09-.96.26s-.46.41-.6.71-.2.65-.2 1.04h-2.04a3.6 3.6 0 0 1 .46-1.81 3.5 3.5 0 0 1 1.32-1.32c.57-.33 1.26-.49 2.05-.49a4.5 4.5 0 0 1 1.96.38c.53.25.94.61 1.22 1.08s.42 1.02.42 1.67a3.3 3.3 0 0 1-.18 1.06 4.7 4.7 0 0 1-.5 1.04c-.22.34-.46.68-.75 1.03l-.98 1.07-2.19 2.44h4.99zm8.85-4.97v1.89c0 .86-.09 1.6-.26 2.21a4 4 0 0 1-.75 1.5 3 3 0 0 1-1.18.86 4.1 4.1 0 0 1-1.52.27 4.4 4.4 0 0 1-1.25-.17c-.39-.12-.73-.3-1.04-.54a3.7 3.7 0 0 1-.79-.94 4.9 4.9 0 0 1-.5-1.36 8.8 8.8 0 0 1-.17-1.83v-1.89a8.2 8.2 0 0 1 .26-2.2c.18-.61.43-1.1.76-1.49a2.9 2.9 0 0 1 1.18-.84c.46-.18.97-.27 1.52-.27a4.5 4.5 0 0 1 1.25.17 3 3 0 0 1 1.03.53 3.1 3.1 0 0 1 .79.92c.22.38.38.83.49 1.36a8.9 8.9 0 0 1 .18 1.82zm-2.03 2.17v-2.45c0-.43-.03-.81-.08-1.12a4 4 0 0 0-.21-.83c-.09-.23-.21-.41-.35-.55a1.4 1.4 0 0 0-.48-.32c-.18-.07-.38-.1-.59-.1-.27 0-.51.05-.72.16a1.3 1.3 0 0 0-.53.49c-.14.22-.25.53-.33.9a6.6 6.6 0 0 0-.11 1.36v2.45a7.5 7.5 0 0 0 .07 1.13c.05.32.12.6.22.83s.21.42.35.57a1.4 1.4 0 0 0 .48.32c.18.07.38.1.59.1.27 0 .51-.05.72-.16s.39-.28.53-.51c.14-.24.25-.54.32-.92a7 7 0 0 0 .12-1.37z" class="C"/><path d="M308.83 480.4l2.18 4.23 2.19-4.23h1.26l-2.9 5.27v3.14h-1.12v-3.14l-2.9-5.27h1.28zm8.77 8.53c-.44 0-.83-.07-1.18-.22s-.65-.36-.91-.63-.44-.59-.58-.96a3.5 3.5 0 0 1-.2-1.21v-.24a3.8 3.8 0 0 1 .23-1.36c.15-.4.35-.74.61-1.02a2.6 2.6 0 0 1 .88-.63 2.5 2.5 0 0 1 1.02-.21c.45 0 .83.08 1.16.23a2.1 2.1 0 0 1 .8.65c.21.27.36.6.46.97s.15.77.15 1.21v.48h-4.67v-.87h3.6v-.08c-.01-.28-.07-.55-.17-.81s-.25-.48-.46-.65-.5-.25-.87-.25c-.24 0-.47.05-.67.16s-.38.25-.53.45-.26.44-.34.73a3.7 3.7 0 0 0-.12 1v.24c0 .3.04.57.12.84s.21.49.36.68.36.35.58.46a1.8 1.8 0 0 0 .79.17c.38 0 .7-.08.96-.23s.49-.36.69-.62l.65.51a3 3 0 0 1-.51.58c-.21.19-.46.34-.77.45-.3.12-.66.17-1.07.17zm6.3-6.37v.82h-3.38v-.82h3.38zm-2.24-1.52h1.07v6.22c0 .21.03.37.1.48s.15.18.25.21.22.05.34.05a1.8 1.8 0 0 0 .28-.02l.23-.05v.87c-.08.03-.2.05-.33.07s-.3.04-.49.04c-.26 0-.5-.05-.72-.16s-.4-.28-.53-.52c-.13-.25-.19-.58-.19-.99v-6.22zm9.04 1.52v.82h-3.38v-.82h3.38zm-2.24-1.52h1.07v6.22c0 .21.03.37.1.48s.15.18.25.21.22.05.34.05a1.8 1.8 0 0 0 .28-.02l.23-.05v.87c-.08.03-.2.05-.34.07s-.3.04-.49.04c-.26 0-.5-.05-.72-.16s-.39-.28-.53-.52c-.13-.25-.19-.58-.19-.99v-6.22zm3.09 4.72v-.13c0-.45.06-.87.2-1.25s.32-.73.57-1.01.55-.51.9-.67.74-.24 1.18-.24a2.8 2.8 0 0 1 1.19.24 2.5 2.5 0 0 1 .9.67c.25.29.44.62.57 1.01s.2.8.2 1.25v.13c0 .45-.07.87-.2 1.25a3 3 0 0 1-.57 1.01c-.25.28-.55.51-.89.67s-.74.24-1.18.24-.83-.08-1.19-.24-.65-.38-.9-.67-.44-.63-.57-1.01-.2-.8-.2-1.25zm1.07-.13v.13a3.4 3.4 0 0 0 .11.88c.07.27.18.52.33.73s.34.38.56.5.48.18.78.18.55-.06.77-.18.41-.29.55-.5.26-.45.33-.73a3.3 3.3 0 0 0 .12-.88v-.13a3.2 3.2 0 0 0-.12-.87c-.07-.28-.19-.52-.33-.73s-.33-.38-.56-.51-.48-.19-.77-.19-.55.06-.77.19-.4.29-.56.51-.26.46-.33.73c-.07.27-.11.56-.11.87zm12.18-4.48l-2.79 7.67h-1.14l3.21-8.41h.73l-.02.75zm2.33 7.67l-2.79-7.67-.02-.75h.73l3.22 8.41h-1.14zm-.14-3.12v.91h-4.73v-.91H347zm4.76 2.35a1.6 1.6 0 0 0 .71-.16c.21-.1.39-.25.53-.43s.22-.4.24-.63h1.02a1.9 1.9 0 0 1-.37 1.03c-.23.32-.53.57-.9.77a2.6 2.6 0 0 1-1.22.29c-.47 0-.88-.08-1.23-.25s-.64-.39-.87-.68-.4-.62-.51-.99a4.2 4.2 0 0 1-.17-1.2v-.24c0-.42.06-.82.17-1.19s.29-.71.51-1 .52-.52.87-.68.76-.25 1.23-.25c.49 0 .92.1 1.28.3a2.2 2.2 0 0 1 .86.81c.21.34.33.72.35 1.16h-1.02c-.02-.26-.09-.49-.22-.7s-.29-.37-.51-.5-.46-.19-.75-.19c-.33 0-.6.07-.83.2s-.39.3-.53.52-.22.46-.28.72-.08.53-.08.8v.24c0 .27.03.54.08.81a2.3 2.3 0 0 0 .27.72c.13.21.31.39.53.52s.5.19.83.19zm6.19 0a1.6 1.6 0 0 0 .7-.16c.22-.1.39-.25.53-.43s.22-.4.24-.63h1.02a1.9 1.9 0 0 1-.38 1.03c-.23.32-.53.57-.89.77a2.6 2.6 0 0 1-1.22.29c-.47 0-.88-.08-1.23-.25s-.64-.39-.87-.68-.4-.62-.52-.99a4.2 4.2 0 0 1-.17-1.2v-.24c0-.42.06-.82.17-1.19.12-.38.29-.71.52-1s.52-.52.87-.68.76-.25 1.23-.25c.49 0 .92.1 1.28.3a2.2 2.2 0 0 1 .86.81c.21.34.33.72.35 1.16h-1.02c-.02-.26-.09-.49-.22-.7s-.29-.37-.51-.5-.46-.19-.75-.19c-.33 0-.6.07-.83.2s-.39.3-.53.52-.22.46-.28.72-.08.53-.08.8v.24c0 .27.03.54.08.81s.14.51.27.72.31.39.53.52.5.19.83.19zm6.29.88c-.44 0-.83-.07-1.19-.22s-.65-.36-.91-.63-.44-.59-.58-.96a3.5 3.5 0 0 1-.2-1.21v-.24c0-.51.07-.96.23-1.36a3 3 0 0 1 .61-1.02 2.6 2.6 0 0 1 .88-.63 2.5 2.5 0 0 1 1.02-.21c.45 0 .83.08 1.16.23s.59.37.8.65.36.6.46.97.15.77.15 1.21v.48H362v-.87h3.6v-.08c-.01-.28-.07-.55-.17-.81s-.25-.48-.46-.65-.5-.25-.87-.25c-.24 0-.47.05-.67.16s-.38.25-.53.45-.26.44-.34.73a3.7 3.7 0 0 0-.12 1v.24c0 .3.04.57.12.84s.21.49.36.68.36.35.58.46.49.17.79.17c.38 0 .7-.08.96-.23s.49-.36.69-.62l.65.51a3 3 0 0 1-.51.58c-.21.19-.46.34-.77.45s-.66.17-1.07.17zm4.75-5.17v7.45h-1.07v-8.66h.98l.09 1.2zm4.21 1.87v.12a4.7 4.7 0 0 1-.16 1.27 3.1 3.1 0 0 1-.47 1c-.2.28-.46.51-.76.66a2.2 2.2 0 0 1-1.04.24c-.4 0-.75-.07-1.05-.2s-.56-.32-.77-.57-.38-.55-.51-.9-.21-.75-.25-1.19v-.65a5.4 5.4 0 0 1 .26-1.24 3.1 3.1 0 0 1 .5-.94c.21-.26.47-.46.77-.6s.65-.21 1.04-.21.74.08 1.05.23a2.1 2.1 0 0 1 .77.65c.21.28.36.62.47 1.01s.16.82.16 1.3zm-1.07.12v-.12c0-.31-.03-.61-.1-.88a2.2 2.2 0 0 0-.31-.73c-.13-.21-.31-.38-.52-.5s-.46-.18-.76-.18c-.27 0-.51.05-.71.14s-.36.22-.5.38-.25.33-.34.53a3.1 3.1 0 0 0-.19.61v1.5a3.4 3.4 0 0 0 .32.76c.14.23.32.42.56.57.23.14.52.21.87.21.29 0 .54-.06.74-.18s.39-.29.52-.5.24-.45.31-.73a3.8 3.8 0 0 0 .1-.88zm5.06-3.19v.82h-3.38v-.82h3.38zm-2.24-1.52h1.07v6.22c0 .21.03.37.1.48s.15.18.25.21.22.05.33.05c.09 0 .18-.01.28-.02l.22-.05v.87a2.5 2.5 0 0 1-.34.07c-.13.03-.3.04-.49.04-.26 0-.5-.05-.72-.16s-.39-.28-.53-.52c-.13-.25-.19-.58-.19-.99v-6.22z" class="B"/><use href="#K" x="209.08" class="E"/><path d="M447.09 393.98a37 37 0 0 1 36.98 36.98 37 37 0 0 1-36.98 36.98 37 37 0 0 1-36.97-36.03l-.01-.95h14.06c0 12.66 10.27 22.93 22.93 22.93s22.93-10.27 22.93-22.93-10.27-22.93-22.93-22.93h0v-14.05h0zm-1.68 35.42l-1.63-.39.62-5.66h6.17v1.69h-4.49l-.29 2.62a2.9 2.9 0 0 1 .69-.29 3.4 3.4 0 0 1 1.04-.15 3.7 3.7 0 0 1 1.43.26 2.9 2.9 0 0 1 1.07.74c.3.32.52.72.67 1.19a5.1 5.1 0 0 1 .23 1.57 4.6 4.6 0 0 1-.23 1.45c-.15.45-.38.84-.69 1.19s-.7.62-1.16.82-1.02.29-1.65.29c-.48 0-.94-.07-1.38-.21a3.8 3.8 0 0 1-1.18-.62 3.2 3.2 0 0 1-1.18-2.4h2.01c.04.34.13.64.28.88s.34.43.59.55.53.19.86.19a1.6 1.6 0 0 0 .75-.16c.22-.11.39-.27.53-.47s.24-.44.31-.71.1-.57.1-.89c0-.31-.04-.6-.12-.86s-.19-.49-.35-.68-.36-.34-.6-.44-.51-.15-.83-.15c-.43 0-.75.06-.99.19-.23.13-.43.28-.6.46z" class="C"/><path d="M419.47 480.4v8.41h-1.12l-4.24-6.49v6.49h-1.12v-8.41h1.12l4.25 6.51v-6.51h1.1zm1.53 5.36v-.13c0-.45.07-.87.2-1.25a3 3 0 0 1 .57-1.01c.25-.29.54-.51.9-.67s.74-.24 1.18-.24.83.08 1.18.24c.36.16.66.38.9.67s.44.62.57 1.01.2.8.2 1.25v.13c0 .45-.06.87-.2 1.25a3 3 0 0 1-.57 1.01c-.25.28-.55.51-.9.67a2.8 2.8 0 0 1-1.18.24c-.44 0-.83-.08-1.18-.24a2.7 2.7 0 0 1-.9-.67c-.25-.29-.44-.63-.57-1.01s-.2-.8-.2-1.25zm1.07-.13v.13c0 .31.04.61.11.88s.18.52.33.73.34.38.56.5.48.18.78.18.55-.06.77-.18.41-.29.56-.5.26-.45.33-.73a3.3 3.3 0 0 0 .12-.88v-.13a3.2 3.2 0 0 0-.12-.87c-.07-.28-.19-.52-.33-.73a1.6 1.6 0 0 0-.56-.51c-.22-.12-.48-.19-.77-.19s-.55.06-.77.19-.4.29-.55.51a2.3 2.3 0 0 0-.33.73c-.07.27-.11.56-.11.87zm9.06-5.22h2.78c.63 0 1.17.1 1.6.29s.77.48 1 .86c.23.37.35.83.35 1.38 0 .38-.08.74-.24 1.06s-.38.59-.67.81-.64.38-1.04.49l-.31.12h-2.62l-.01-.91h1.98c.4 0 .73-.07 1-.21s.47-.33.6-.57.2-.5.2-.79c0-.32-.06-.61-.19-.85s-.33-.43-.6-.56-.62-.2-1.05-.2h-1.67v7.5h-1.12v-8.41zm4.92 8.41L434 485l1.16-.01 2.07 3.75v.07h-1.19zm4.81.12c-.44 0-.83-.07-1.19-.22-.35-.15-.65-.36-.91-.63a2.8 2.8 0 0 1-.58-.96c-.13-.37-.2-.77-.2-1.21v-.24c0-.51.07-.96.22-1.36s.36-.74.61-1.02a2.6 2.6 0 0 1 .88-.63c.33-.14.67-.21 1.02-.21.45 0 .83.08 1.16.23a2.1 2.1 0 0 1 .8.65c.21.27.36.6.46.97s.15.77.15 1.21v.48h-4.67v-.87h3.6v-.08a2.7 2.7 0 0 0-.17-.81c-.1-.26-.25-.48-.46-.65s-.5-.25-.87-.25c-.24 0-.47.05-.67.16s-.38.25-.53.45-.26.44-.34.73a3.7 3.7 0 0 0-.12 1v.24c0 .3.04.57.12.84s.21.49.36.68.36.35.58.46a1.8 1.8 0 0 0 .79.17c.38 0 .7-.08.96-.23s.49-.36.69-.62l.65.51a3 3 0 0 1-.51.58c-.21.19-.46.34-.77.45s-.66.17-1.07.17zm7.32-1.77c0-.15-.03-.3-.1-.43s-.2-.26-.41-.36-.51-.21-.92-.29a7.3 7.3 0 0 1-.94-.26c-.28-.1-.51-.22-.71-.36s-.34-.31-.44-.5a1.4 1.4 0 0 1-.16-.68c0-.25.05-.48.16-.7s.27-.41.47-.58.45-.3.73-.4.6-.14.95-.14c.5 0 .93.09 1.28.27s.63.41.81.71c.19.29.28.62.28.98h-1.07c0-.17-.05-.34-.16-.5s-.25-.3-.44-.41-.43-.16-.71-.16c-.3 0-.54.05-.72.14s-.31.2-.4.34-.12.29-.12.44c0 .12.02.22.06.31s.12.17.22.25.25.14.44.21a6.7 6.7 0 0 0 .72.2c.51.12.93.25 1.26.42s.58.36.74.6.24.52.24.85c0 .27-.06.52-.17.75s-.28.42-.49.59-.47.29-.76.38c-.29.09-.62.13-.99.13-.55 0-1.02-.1-1.4-.3s-.67-.45-.87-.76-.3-.64-.3-.99h1.07c.02.29.1.53.25.7a1.3 1.3 0 0 0 .57.36 2.2 2.2 0 0 0 .66.1c.29 0 .54-.04.73-.12.2-.08.35-.18.46-.32s.16-.29.16-.46zm3.54-3.39v7.45h-1.07v-8.66h.98l.09 1.2zm4.21 1.87v.12a4.7 4.7 0 0 1-.16 1.27 3.1 3.1 0 0 1-.47 1c-.2.28-.46.51-.76.66s-.64.24-1.03.24c-.4 0-.75-.07-1.05-.2s-.56-.32-.77-.57-.38-.55-.51-.9-.21-.75-.25-1.19v-.65c.05-.46.13-.88.26-1.24a3.1 3.1 0 0 1 .5-.94c.21-.26.47-.46.77-.6s.65-.21 1.04-.21.74.08 1.05.23a2.1 2.1 0 0 1 .77.65c.21.28.36.62.47 1.01s.16.82.16 1.3zm-1.07.12v-.12a3.8 3.8 0 0 0-.1-.88c-.07-.28-.17-.52-.31-.73s-.31-.38-.52-.5-.46-.18-.76-.18c-.27 0-.5.05-.71.14-.2.09-.36.22-.5.38s-.25.33-.34.53-.15.4-.19.61v1.5c.08.27.19.52.32.76s.32.42.55.57c.23.14.52.21.87.21.29 0 .54-.06.74-.18a1.5 1.5 0 0 0 .52-.5 2.3 2.3 0 0 0 .31-.73c.07-.28.1-.57.1-.88zm2.16 0v-.13c0-.45.07-.87.2-1.25a3 3 0 0 1 .57-1.01c.25-.29.55-.51.9-.67s.74-.24 1.18-.24.83.08 1.18.24.65.38.9.67.44.62.57 1.01.2.8.2 1.25v.13c0 .45-.06.87-.2 1.25a3 3 0 0 1-.57 1.01c-.25.28-.55.51-.9.67a2.8 2.8 0 0 1-1.18.24c-.44 0-.83-.08-1.18-.24a2.7 2.7 0 0 1-.9-.67c-.25-.29-.44-.63-.57-1.01s-.2-.8-.2-1.25zm1.07-.13v.13c0 .31.04.61.11.88s.18.52.33.73.34.38.56.5.48.18.78.18.55-.06.77-.18.41-.29.56-.5.26-.45.33-.73a3.3 3.3 0 0 0 .12-.88v-.13a3.2 3.2 0 0 0-.12-.87c-.07-.28-.19-.52-.34-.73a1.6 1.6 0 0 0-.56-.51c-.22-.12-.48-.19-.77-.19s-.55.06-.77.19-.4.29-.55.51a2.3 2.3 0 0 0-.33.73c-.07.27-.11.56-.11.87zm7.03-1.73v4.92h-1.07v-6.25h1.01l.06 1.33zm-.25 1.55l-.45-.02c0-.43.07-.82.19-1.19s.3-.68.52-.95.49-.48.8-.62.66-.22 1.03-.22c.31 0 .59.04.83.13s.46.21.63.39.31.42.4.7a3.4 3.4 0 0 1 .14 1.05v4.1h-1.07v-4.11a1.8 1.8 0 0 0-.14-.79c-.1-.2-.24-.35-.42-.43s-.41-.14-.68-.14-.51.06-.73.17-.4.27-.56.46-.28.42-.36.68-.13.52-.13.8zm9.37 1.7c0-.15-.03-.3-.1-.43s-.2-.26-.41-.36-.51-.21-.92-.29a7.4 7.4 0 0 1-.94-.26c-.28-.1-.51-.22-.71-.36s-.34-.31-.44-.5a1.4 1.4 0 0 1-.16-.68c0-.25.05-.48.16-.7.11-.22.27-.41.47-.58s.45-.3.73-.4.6-.14.95-.14c.5 0 .93.09 1.28.27a2 2 0 0 1 .81.71c.19.29.28.62.28.98h-1.07c0-.17-.05-.34-.16-.5s-.25-.3-.44-.41-.43-.16-.71-.16c-.3 0-.54.05-.72.14s-.31.2-.4.34-.12.29-.12.44c0 .12.02.22.06.31s.12.17.22.25.25.14.44.21.43.13.72.2a5.9 5.9 0 0 1 1.27.42c.33.16.58.36.74.6s.24.52.24.85c0 .27-.06.52-.17.75s-.27.42-.49.59-.47.29-.76.38c-.29.09-.62.13-.99.13-.55 0-1.02-.1-1.4-.3s-.67-.45-.87-.76-.3-.64-.3-.99h1.07a1.1 1.1 0 0 0 .25.7c.15.17.34.29.57.36s.44.1.66.1c.29 0 .54-.04.73-.12s.35-.18.46-.32.16-.29.16-.46zm5.07 1.77c-.43 0-.83-.07-1.18-.22s-.65-.36-.91-.63a2.8 2.8 0 0 1-.58-.96c-.13-.37-.2-.77-.2-1.21v-.24a3.8 3.8 0 0 1 .23-1.36c.15-.4.35-.74.61-1.02a2.6 2.6 0 0 1 .88-.63c.33-.14.67-.21 1.02-.21.45 0 .83.08 1.16.23a2.1 2.1 0 0 1 .8.65c.21.27.36.6.46.97s.15.77.15 1.21v.48h-4.67v-.87h3.6v-.08c-.01-.28-.07-.55-.17-.81s-.25-.48-.46-.65-.5-.25-.87-.25c-.24 0-.47.05-.67.16s-.38.25-.53.45-.26.44-.34.73a3.7 3.7 0 0 0-.12 1v.24c0 .3.04.57.12.84s.21.49.36.68.36.35.58.46a1.8 1.8 0 0 0 .79.17c.38 0 .7-.08.96-.23s.49-.36.69-.62l.65.51a3 3 0 0 1-.51.58c-.21.19-.46.34-.77.45s-.66.17-1.07.17z" class="B"/><defs><filter id="B" x="117.15" y="159.15" width="300.88" height="178.93" filterUnits="userSpaceOnUse" class="G"><feFlood flood-opacity="0" result="A"/><feColorMatrix in="SourceAlpha" values="0 0 0 0 0 0 0 0 0 0 0 0 0 0 0 0 0 0 127 0" result="B"/><feOffset/><feGaussianBlur stdDeviation=".93"/><feComposite in2="B" operator="out"/><feColorMatrix values="0 0 0 0 0.71 0 0 0 0 0.71 0 0 0 0 0.71 0 0 0 0.3 0"/><feBlend in2="A" result="C"/><feColorMatrix in="SourceAlpha" values="0 0 0 0 0 0 0 0 0 0 0 0 0 0 0 0 0 0 127 0" result="B"/><feOffset dy="0.927081"/><feGaussianBlur stdDeviation=".93"/><feComposite in2="B" operator="out"/><feColorMatrix values="0 0 0 0 0 0 0 0 0 0 0 0 0 0 0 0 0 0 0.2 0"/><feBlend in2="C"/><feBlend in="SourceGraphic"/></filter><filter id="C" x="183.27" y="342.42" width="319.54" height="171.47" filterUnits="userSpaceOnUse" class="G"><feFlood flood-opacity="0" result="A"/><feColorMatrix in="SourceAlpha" values="0 0 0 0 0 0 0 0 0 0 0 0 0 0 0 0 0 0 127 0" result="B"/><feOffset/><feGaussianBlur stdDeviation=".99"/><feComposite in2="B" operator="out"/><feColorMatrix values="0 0 0 0 0.831373 0 0 0 0 0.831373 0 0 0 0 0.831373 0 0 0 0.2 0"/><feBlend in2="A" result="C"/><feColorMatrix in="SourceAlpha" values="0 0 0 0 0 0 0 0 0 0 0 0 0 0 0 0 0 0 127 0" result="B"/><feOffset dy="0.986236"/><feGaussianBlur stdDeviation=".99"/><feComposite in2="B" operator="out"/><feColorMatrix values="0 0 0 0 0 0 0 0 0 0 0 0 0 0 0 0 0 0 0.2 0"/><feBlend in2="C"/><feBlend in="SourceGraphic"/></filter><clipPath id="D"><rect x="168" y="33" width="264" height="530" rx="30" class="D"/></clipPath><clipPath id="E"><path transform="translate(385.07 529.67)" d="M0 0h17.6v17.6H0z" class="D"/></clipPath><clipPath id="F"><path transform="translate(338.13 529.67)" d="M0 0h17.6v17.6H0z" class="D"/></clipPath><clipPath id="G"><path transform="translate(291.2 529.67)" d="M0 0h17.6v17.6H0z" class="D"/></clipPath><clipPath id="H"><path transform="translate(389.83 480.17)" d="M0 0h18.33v18.33H0z" class="D"/></clipPath><path id="I" d="M323.47 522.33h46.93v41.07h-46.93z"/><path id="J" d="M168.58 110.99H160v34.53h8.58v-34.53z"/><path id="K" d="M238.01 398.42c17.97 0 32.55 14.57 32.55 32.55s-14.57 32.55-32.55 32.55-32.55-14.57-32.55-32.55 14.57-32.55 32.55-32.55zm0 5.18c-15.12 0-27.37 12.25-27.37 27.37s12.25 27.37 27.37 27.37 27.37-12.25 27.37-27.37-12.25-27.37-27.37-27.37z"/></defs></svg>