<svg xmlns="http://www.w3.org/2000/svg" width="600" height="600" fill="none" xmlns:v="https://vecta.io/nano"><style><![CDATA[.B{fill:#0668e1}.C{fill:#b7e7ff}.D{fill:#fff}.E{fill-rule:evenodd}.F{fill:#e2988f}.G{fill:#d9d9d9}.H{fill:#4c224b}.I{fill:#1b1c17}.J{fill:#c46966}.K{fill:#fce8e3}.L{fill:#d85d63}]]></style><g clip-path="url(#A)"><rect x="153" y="38" width="264" height="529" rx="30" fill="#f9f9f9"/><path d="M153 38h264v130.53H153z" class="B"/><path d="M153 130.47c0-12.96 10.51-23.47 23.47-23.47h217.07c12.96 0 23.47 10.51 23.47 23.47V567H153V130.47z" fill="#f9f9f9"/><g class="G"><rect x="201" y="536" width="196" height="4" rx="2"/><rect x="201" y="544" width="60" height="4" rx="2"/></g><path d="M204.39 525.79h-1.81l-.01-.89h1.58c.27 0 .49-.04.68-.12s.33-.2.43-.35.15-.34.15-.55c0-.24-.04-.43-.14-.58s-.23-.26-.42-.33-.42-.1-.71-.1h-1.19V529h-1.22v-7.11h2.41a4.4 4.4 0 0 1 1.05.11c.31.07.57.19.79.35s.38.35.49.6a2 2 0 0 1 .17.86c0 .29-.07.56-.21.81a1.6 1.6 0 0 1-.62.59c-.27.15-.61.24-1.02.27l-.39.31zm-.05 3.21h-2.14l.55-.97h1.59c.28 0 .51-.05.69-.14s.32-.22.42-.39.14-.36.14-.58c0-.23-.04-.43-.12-.6s-.21-.3-.39-.39-.41-.14-.69-.14h-1.38l.01-.89h1.79l.28.34c.39.01.71.1.96.26a1.5 1.5 0 0 1 .57.62c.12.25.19.53.19.82 0 .45-.1.83-.3 1.14s-.48.54-.84.7a3.4 3.4 0 0 1-1.33.23zm3.36-2.58v-.11a3.3 3.3 0 0 1 .17-1.06 2.5 2.5 0 0 1 .48-.85c.21-.25.47-.43.77-.57s.65-.2 1.03-.2a2.5 2.5 0 0 1 1.04.2c.31.13.56.32.78.57s.37.53.48.85.17.68.17 1.06v.11c0 .38-.05.73-.17 1.06s-.27.61-.48.85-.47.43-.77.57-.65.2-1.03.2-.73-.07-1.04-.2-.56-.33-.77-.57-.37-.53-.48-.85a3.3 3.3 0 0 1-.17-1.06zm1.18-.11v.11c0 .24.02.46.07.67s.13.4.23.56.24.28.4.38.36.14.58.14c.22 0 .41-.04.57-.14s.3-.22.4-.38a1.7 1.7 0 0 0 .23-.56c.05-.21.08-.44.08-.67v-.11c0-.23-.03-.46-.08-.66a1.7 1.7 0 0 0-.23-.56c-.1-.16-.24-.29-.4-.38s-.35-.14-.57-.14-.41.05-.58.14-.29.22-.4.38-.18.35-.23.56a2.9 2.9 0 0 0-.07.66zm5.9-1.58V529h-1.18v-5.28h1.12l.05 1.01zm1.62-1.04l-.01 1.09c-.07-.01-.15-.02-.23-.03l-.24-.01a1.5 1.5 0 0 0-.53.09c-.15.06-.28.14-.39.24s-.18.23-.23.38-.09.32-.1.5l-.27.02c0-.33.03-.64.1-.92s.16-.53.29-.75.3-.38.5-.5.44-.18.7-.18c.07 0 .15.01.23.02s.15.03.19.04zm2 .03V529h-1.18v-5.28h1.18zm-1.26-1.39c0-.18.06-.33.18-.44s.29-.18.5-.18.37.06.49.18.18.26.18.44-.06.32-.18.44-.29.18-.49.18-.38-.06-.5-.18-.18-.26-.18-.44zm5.51 5.24c0-.12-.03-.22-.09-.32s-.17-.19-.34-.26-.4-.15-.72-.22c-.28-.06-.54-.13-.77-.22s-.43-.19-.6-.32-.29-.27-.39-.44-.14-.37-.14-.59c0-.22.05-.42.14-.61s.23-.36.41-.51.39-.26.64-.35.54-.13.85-.13c.44 0 .82.07 1.14.23s.56.35.73.6.25.53.25.85h-1.18c0-.14-.04-.27-.11-.39s-.17-.22-.31-.3-.32-.12-.53-.12c-.2 0-.37.03-.5.1s-.23.14-.29.24-.09.21-.09.33c0 .09.02.17.05.24s.09.13.17.19a1.5 1.5 0 0 0 .33.16c.14.05.32.1.54.14.4.08.75.19 1.04.33s.52.3.67.51.24.47.24.78c0 .23-.05.45-.15.64s-.24.36-.43.5-.42.25-.68.33-.55.12-.88.12c-.48 0-.88-.08-1.22-.25s-.58-.39-.76-.66-.25-.55-.25-.84h1.14c.01.22.07.39.18.52s.25.22.41.28.34.08.51.08c.21 0 .39-.03.53-.08s.25-.14.33-.24.11-.21.11-.34z" class="I"/><path d="M376.98 523.31h.88l1.64 4.39 1.64-4.39h.88l-2.17 5.69h-.69l-2.17-5.69zm-.4 0h.83l.14 3.8V529h-.98v-5.69zm5 0h.84V529h-.98v-1.89l.14-3.8zm1.73 3.62v-.09a2.6 2.6 0 0 1 .13-.85c.09-.26.22-.49.38-.68s.38-.35.62-.45.52-.16.83-.16a2 2 0 0 1 .83.16c.25.11.45.26.62.45a2 2 0 0 1 .39.68c.09.26.13.54.13.85v.09c0 .3-.04.59-.13.85s-.22.49-.39.68-.37.34-.62.45-.52.16-.82.16-.59-.05-.83-.16-.45-.26-.62-.45-.3-.42-.39-.68a2.6 2.6 0 0 1-.13-.85zm.94-.09v.09a2.4 2.4 0 0 0 .06.54c.04.17.1.32.18.45s.19.23.32.3.28.11.46.11a.9.9 0 0 0 .77-.41c.08-.13.14-.28.18-.45s.06-.35.06-.54v-.09c0-.19-.02-.37-.06-.53s-.1-.32-.19-.45-.19-.23-.32-.3-.28-.11-.46-.11a.9.9 0 0 0-.46.11c-.13.07-.23.17-.32.3s-.14.28-.18.45-.06.34-.06.53zm4.71-1.17V529h-.94v-4.23h.89l.06.9zm-.17 1.05h-.31a2.8 2.8 0 0 1 .13-.82c.08-.25.2-.46.34-.64s.33-.32.53-.41.44-.15.69-.15c.2 0 .39.03.55.09s.31.15.43.27.21.29.27.49.09.44.09.73V529h-.95v-2.73c0-.2-.03-.36-.09-.48a.5.5 0 0 0-.25-.25c-.11-.05-.25-.08-.41-.08s-.31.03-.43.1-.24.16-.32.28-.15.25-.2.41-.07.32-.07.49z" class="G"/><use href="#C" class="K"/><path d="M186.2 530.55h-6.35v7.1h6.35v-7.1z" class="F"/><use href="#D" class="L"/><use href="#E" fill="#b73d49"/><use href="#F" class="H"/><path d="M189.03 527.09c-.34-.8-1.03-.41-1.03-.41.14-3.13-1.47-5.3-4.97-5.3s-5.09 2.61-4.97 5.3c0 0-.69-.39-1.03.41s.28 2.67.66 3.27.96.34.96.34a11.8 11.8 0 0 0 .32 1.84 13.8 13.8 0 0 0 2.76 2.93c.77.45 1.9.45 2.59 0a13.8 13.8 0 0 0 2.76-2.93c.18-.47.31-1.86.31-1.86s.58.28.96-.32 1-2.47.66-3.27z" class="F"/><g class="J"><use href="#G"/><use href="#H"/><use href="#I"/><path d="M177.49 528.89c-.03-.12-.31-1.16.07-1.45.13-.08.23-.07.3-.05.19.06.29.3.3.33l-.15.06c-.02-.05-.1-.2-.2-.23-.05-.01-.1-.01-.15.03-.22.16-.12.87-.01 1.27l-.16.04z"/><use href="#J"/></g><path d="M178.07 526.69a5.6 5.6 0 0 1 1.47-2.59c2.02 2.33 4.51 3.85 8.46 2.59l.3-.99-.48-2.18c0-.07-1.56-1.52-1.56-1.52l-2.03-.83h-2.09l-1.67.47-1.47 1.23-.93 1.85v1.97h0z" class="H"/><path fill="#e5e5e5" d="M153 180.93h264v1.47H153z"/><path d="M181.77 162.31h.98v3.8c0 .43-.09.79-.28 1.09s-.44.51-.77.66-.68.22-1.07.22c-.41 0-.77-.07-1.09-.22s-.57-.37-.76-.66-.27-.65-.27-1.09v-3.8h.98v3.8c0 .27.05.5.14.68s.23.3.4.39.38.13.61.13.44-.04.6-.12.31-.21.4-.39.14-.4.14-.68v-3.8zm2.79 0l1.21 2.07 1.21-2.07h1.13l-1.72 2.82 1.76 2.87H187l-1.24-2.11-1.24 2.11h-1.14l1.76-2.87-1.72-2.82h1.13zm6.3 0h2.01c.43 0 .8.07 1.11.2a1.5 1.5 0 0 1 .7.58c.16.25.25.56.25.94 0 .28-.05.53-.16.75s-.25.4-.44.55-.42.26-.68.34l-.3.15h-1.81l-.01-.78h1.36c.23 0 .43-.04.59-.12s.27-.2.35-.34.12-.31.12-.49c0-.2-.04-.37-.12-.51s-.19-.26-.35-.34-.36-.12-.61-.12h-1.03V168h-.98v-5.69zm3.25 5.69l-1.33-2.56h1.03l1.35 2.51v.05h-1.05zm3.56.08c-.31 0-.59-.05-.85-.15s-.46-.25-.64-.43-.31-.4-.4-.65a2.3 2.3 0 0 1-.14-.81v-.16c0-.33.05-.63.14-.9s.23-.5.4-.69.38-.34.61-.44.49-.15.76-.15c.3 0 .57.05.79.15s.41.24.56.43.26.4.34.65a2.9 2.9 0 0 1 .11.84v.4h-3.27v-.68h2.34v-.07c-.01-.17-.04-.33-.1-.48s-.15-.27-.28-.36-.29-.14-.5-.14c-.16 0-.3.03-.42.1s-.22.16-.3.28-.14.28-.19.45-.06.37-.06.59v.16c0 .19.03.36.07.52s.13.29.23.41.22.21.36.28.3.1.48.1a1.3 1.3 0 0 0 .6-.14c.18-.09.33-.22.46-.39l.5.48c-.09.13-.21.26-.35.38a1.8 1.8 0 0 1-.53.29c-.21.07-.45.11-.73.11zm4.8-1.22c0-.09-.02-.18-.07-.25s-.14-.15-.27-.21-.32-.12-.58-.17a5 5 0 0 1-.62-.18c-.19-.07-.34-.16-.48-.25s-.24-.22-.31-.35-.11-.29-.11-.47a1.1 1.1 0 0 1 .11-.49c.08-.15.18-.29.33-.41s.31-.21.51-.28.43-.1.68-.1a2.1 2.1 0 0 1 .91.18c.25.12.45.28.59.48s.2.43.2.68h-.94a.6.6 0 0 0-.34-.55c-.11-.06-.25-.09-.42-.09-.16 0-.3.03-.4.08s-.18.11-.24.19-.07.17-.07.27c0 .07.01.13.04.19s.08.11.14.15.15.09.26.13.26.08.43.11c.32.07.6.16.83.26s.41.24.54.41a1 1 0 0 1 .19.63c0 .19-.04.36-.12.51s-.19.29-.34.4-.33.2-.54.26-.44.09-.7.09c-.38 0-.71-.07-.97-.2s-.47-.31-.6-.53-.2-.44-.2-.67h.91c.01.17.06.31.14.42s.2.18.33.22.27.07.41.07c.17 0 .31-.02.43-.07s.2-.11.26-.19.09-.17.09-.27zm3.61 1.22c-.31 0-.59-.05-.85-.15s-.46-.25-.64-.43a1.9 1.9 0 0 1-.4-.65c-.09-.25-.14-.52-.14-.81v-.16c0-.33.05-.63.14-.9s.23-.5.4-.69.38-.34.61-.44a1.9 1.9 0 0 1 .76-.15c.3 0 .57.05.79.15s.41.24.56.43.26.4.34.65a2.9 2.9 0 0 1 .11.84v.4h-3.27v-.68h2.34v-.07c-.01-.17-.04-.33-.1-.48s-.15-.27-.28-.36-.29-.14-.5-.14c-.16 0-.3.03-.42.1s-.22.16-.3.28-.14.28-.19.45-.06.37-.06.59v.16c0 .19.03.36.07.52s.13.29.23.41.22.21.36.28.3.1.48.1a1.3 1.3 0 0 0 .61-.14c.18-.09.33-.22.46-.39l.5.48c-.09.13-.21.26-.35.38s-.32.22-.54.29-.45.11-.73.11zm4.81-.93v-2.01c0-.15-.03-.28-.08-.39s-.14-.19-.25-.25-.25-.09-.41-.09c-.15 0-.29.03-.4.08s-.2.12-.26.21-.09.19-.09.3h-.94c0-.17.04-.33.12-.48s.2-.3.35-.42.34-.22.55-.29.45-.11.72-.11a2.1 2.1 0 0 1 .84.16c.25.11.44.27.58.49s.22.48.22.81v1.88c0 .19.01.37.04.52a1.7 1.7 0 0 0 .12.39v.06h-.97c-.04-.1-.08-.23-.1-.39a3.2 3.2 0 0 1-.03-.46zm.14-1.72l.01.58h-.67c-.18 0-.33.02-.46.05s-.24.08-.33.14-.16.14-.2.23-.07.19-.07.3.03.22.08.31.13.16.23.22.22.08.37.08c.19 0 .36-.04.5-.12s.26-.18.34-.29.13-.23.13-.33l.31.42c-.03.11-.09.22-.16.34a1.7 1.7 0 0 1-.3.35 1.5 1.5 0 0 1-.43.27c-.17.07-.36.1-.58.1-.28 0-.52-.06-.74-.16s-.39-.26-.51-.45-.18-.41-.18-.65c0-.22.04-.42.13-.59s.21-.32.38-.44.37-.21.61-.27a3.3 3.3 0 0 1 .82-.09h.74zm2.74-.85V168h-.94v-4.23h.9l.04.81zm1.29-.83l-.01.88-.19-.02c-.06-.01-.13-.01-.19-.01-.16 0-.3.02-.43.07s-.23.11-.31.19-.14.19-.19.31-.07.25-.08.4l-.22.02a3.3 3.3 0 0 1 .08-.74c.05-.23.13-.43.24-.6a1.2 1.2 0 0 1 .4-.4c.16-.1.35-.15.56-.15.06 0 .12.01.18.02s.12.02.15.03zm2.24 3.58c.15 0 .29-.03.41-.09s.22-.15.3-.26a.7.7 0 0 0 .13-.38h.89c-.01.27-.09.52-.24.75s-.36.4-.62.53-.54.19-.86.19c-.32 0-.6-.06-.84-.16s-.44-.27-.6-.46-.28-.42-.36-.68a2.8 2.8 0 0 1-.12-.82v-.14a2.8 2.8 0 0 1 .12-.82c.08-.26.2-.48.36-.68s.36-.35.6-.46.52-.17.84-.17c.34 0 .63.07.89.2a1.5 1.5 0 0 1 .6.56c.15.24.23.51.23.83h-.89c-.01-.16-.05-.3-.12-.42s-.16-.23-.29-.3-.27-.11-.44-.11c-.19 0-.35.04-.47.12s-.22.18-.29.31-.12.28-.15.44-.04.33-.04.5v.14a3 3 0 0 0 .04.51c.03.16.08.31.15.44s.17.23.3.31.28.11.48.11zm3.38-5.33v6h-.94v-6h.94zm-.16 3.73h-.31c0-.29.04-.56.12-.81a2.1 2.1 0 0 1 .34-.65 1.5 1.5 0 0 1 .52-.42c.2-.1.43-.15.68-.15.21 0 .4.03.56.09s.31.15.44.28.22.29.28.49a2.4 2.4 0 0 1 .1.73V168h-.95v-2.72c0-.2-.03-.36-.09-.48s-.14-.21-.25-.26-.25-.08-.41-.08c-.17 0-.32.03-.45.1s-.23.16-.32.28a1.3 1.3 0 0 0-.2.41 1.9 1.9 0 0 0-.06.49z" class="I"/><path d="M182.89 128.37l-2.97 8.63h-1.8l3.75-9.95h1.15l-.12 1.33zm2.49 8.63l-2.98-8.63-.13-1.33h1.16l3.76 9.95h-1.81zm-.14-3.69v1.36h-5.41v-1.36h5.41zm6.79-.81h-2.54l-.01-1.25h2.21c.37 0 .69-.06.95-.16s.46-.28.6-.48c.14-.22.21-.47.21-.77 0-.33-.06-.6-.19-.81s-.32-.36-.59-.46-.59-.14-1-.14h-1.66V137h-1.72v-9.95h3.38c.55 0 1.03.05 1.46.16a3 3 0 0 1 1.1.49c.31.22.54.5.69.83a2.8 2.8 0 0 1 .24 1.2c0 .41-.1.79-.29 1.13s-.49.61-.87.83a3.4 3.4 0 0 1-1.43.38l-.55.43zm-.07 4.5h-3l.77-1.36h2.23c.39 0 .71-.06.97-.19s.45-.31.58-.54.2-.5.2-.81c0-.32-.06-.6-.17-.84s-.29-.43-.54-.55-.57-.2-.96-.2h-1.93l.01-1.25h2.51l.39.47c.55.02 1 .14 1.35.36a2.1 2.1 0 0 1 .79.87c.17.36.26.74.26 1.15 0 .63-.14 1.16-.42 1.59s-.67.76-1.18.98-1.14.33-1.86.33zm11.07-3.24h1.71c-.06.65-.24 1.23-.55 1.74s-.74.91-1.31 1.2-1.24.44-2.04.44c-.61 0-1.17-.11-1.66-.33-.49-.22-.91-.54-1.26-.94s-.62-.9-.81-1.48-.27-1.23-.27-1.94v-.83c0-.72.09-1.36.28-1.94a4.3 4.3 0 0 1 .82-1.48c.36-.41.78-.73 1.28-.95a4.2 4.2 0 0 1 1.69-.33c.79 0 1.46.15 2.01.44s.97.7 1.27 1.21a4.3 4.3 0 0 1 .56 1.77h-1.71c-.05-.43-.15-.8-.3-1.1s-.37-.54-.67-.7a2.4 2.4 0 0 0-1.16-.25c-.39 0-.73.07-1.03.22s-.53.36-.73.64a3.1 3.1 0 0 0-.44 1.05 6.3 6.3 0 0 0-.14 1.41v.84a6.6 6.6 0 0 0 .13 1.37c.09.41.23.75.41 1.05.19.29.42.52.71.68s.63.24 1.03.24c.49 0 .88-.08 1.18-.23s.54-.38.69-.68a3.1 3.1 0 0 0 .31-1.1zm12.63 0h1.71c-.05.65-.24 1.23-.55 1.74s-.75.91-1.31 1.2-1.24.44-2.04.44c-.62 0-1.17-.11-1.66-.33-.49-.22-.91-.54-1.27-.94s-.62-.9-.81-1.48c-.18-.58-.27-1.23-.27-1.94v-.83a6.3 6.3 0 0 1 .28-1.94 4.3 4.3 0 0 1 .82-1.48c.35-.41.78-.73 1.28-.95a4.2 4.2 0 0 1 1.69-.33c.79 0 1.46.15 2.01.44s.97.7 1.27 1.21a4.3 4.3 0 0 1 .56 1.77h-1.71c-.04-.43-.15-.8-.3-1.1s-.37-.54-.67-.7-.68-.25-1.16-.25c-.39 0-.73.07-1.03.22s-.54.36-.73.64a3.1 3.1 0 0 0-.45 1.05c-.1.41-.14.88-.14 1.41v.84a6.6 6.6 0 0 0 .13 1.37c.09.41.23.75.41 1.05s.42.52.71.68.63.24 1.03.24c.49 0 .88-.08 1.18-.23.31-.16.54-.38.69-.68a3.1 3.1 0 0 0 .31-1.1zm11.2-2.01v.55c0 .75-.1 1.43-.29 2.02s-.48 1.11-.84 1.53-.79.74-1.3.96a4.2 4.2 0 0 1-1.68.33 4.2 4.2 0 0 1-1.68-.33c-.5-.22-.94-.54-1.31-.96a4.5 4.5 0 0 1-.86-1.53c-.2-.6-.3-1.27-.3-2.02v-.55a6.3 6.3 0 0 1 .3-2.02c.2-.6.48-1.11.85-1.52.37-.42.8-.75 1.31-.96a4.1 4.1 0 0 1 1.68-.34c.61 0 1.17.11 1.68.34s.94.54 1.31.96c.36.42.65.93.84 1.52a6.3 6.3 0 0 1 .3 2.02zm-1.72.55v-.56a5.9 5.9 0 0 0-.16-1.47c-.1-.43-.26-.79-.47-1.07-.2-.29-.46-.51-.76-.66s-.64-.22-1.02-.22a2.2 2.2 0 0 0-1.01.22c-.3.15-.55.36-.76.66a3.2 3.2 0 0 0-.47 1.07 5.9 5.9 0 0 0-.16 1.47v.56a6 6 0 0 0 .16 1.48c.11.43.27.79.48 1.09s.47.51.77.66.63.22 1.01.22.72-.07 1.02-.22.55-.37.75-.66.36-.66.47-1.09a6 6 0 0 0 .16-1.48zm11.33-5.25V137h-1.72l-4.46-7.13V137h-1.72v-9.95h1.72l4.48 7.14v-7.14h1.7zm7.28 7.39c0-.21-.03-.39-.1-.55-.06-.16-.17-.31-.32-.44s-.37-.26-.66-.38a8.8 8.8 0 0 0-1.07-.39l-1.31-.49c-.4-.18-.74-.39-1.04-.63s-.53-.52-.69-.83-.25-.68-.25-1.09c0-.41.09-.77.25-1.11s.42-.62.73-.86a3.5 3.5 0 0 1 1.13-.57c.43-.14.91-.2 1.44-.2.74 0 1.37.14 1.91.41s.95.64 1.24 1.1a2.8 2.8 0 0 1 .44 1.52h-1.7c0-.33-.07-.62-.21-.87s-.35-.46-.63-.6-.63-.22-1.06-.22c-.41 0-.74.06-1.01.18s-.47.29-.6.5-.2.45-.2.71c0 .19.04.36.13.51s.22.29.4.42.4.25.67.36.59.22.95.33c.55.16 1.03.35 1.44.55s.75.42 1.03.67.48.54.62.85.21.67.21 1.07c0 .42-.09.8-.25 1.13-.17.33-.41.62-.72.85s-.68.41-1.12.54a5.3 5.3 0 0 1-1.45.19 5.3 5.3 0 0 1-1.41-.19c-.46-.13-.88-.32-1.26-.58a3 3 0 0 1-.9-.98c-.22-.4-.34-.86-.34-1.39h1.72c0 .32.05.6.16.83s.27.42.47.56.43.25.7.31.56.1.86.1c.4 0 .74-.06 1-.17s.48-.27.62-.48.2-.44.2-.71zm8.83-7.39h1.71v6.65c0 .76-.16 1.39-.49 1.9a3.1 3.1 0 0 1-1.34 1.16 4.5 4.5 0 0 1-1.88.38c-.72 0-1.35-.13-1.91-.38s-1-.64-1.33-1.16-.48-1.14-.48-1.9v-6.65h1.71v6.65c0 .48.08.87.25 1.18s.4.53.7.68.66.22 1.07.22.76-.07 1.06-.22c.3-.15.53-.37.7-.68s.25-.7.25-1.18v-6.65zm9.81 8.59V137h-5v-1.36h5zm-4.52-8.59V137h-1.72v-9.95h1.72zm8.23 0V137h-1.7v-9.95h1.7zm3.12 0v1.37h-7.92v-1.37h7.92zm4.53 1.33l-2.97 8.63h-1.8l3.75-9.95h1.15l-.12 1.33zm2.49 8.63l-2.98-8.63-.13-1.33h1.15l3.76 9.95h-1.81zm-.14-3.69v1.36h-5.41v-1.36h5.41zm10.96-6.26V137h-1.72l-4.46-7.13V137h-1.72v-9.95h1.72l4.48 7.14v-7.14h1.7zm7.92 6.71h1.71c-.06.65-.24 1.23-.55 1.74s-.75.91-1.31 1.2-1.24.44-2.04.44c-.62 0-1.17-.11-1.66-.33-.49-.22-.91-.54-1.26-.94s-.62-.9-.81-1.48-.27-1.23-.27-1.94v-.83c0-.72.09-1.36.28-1.94a4.3 4.3 0 0 1 .82-1.48c.35-.41.78-.73 1.28-.95a4.2 4.2 0 0 1 1.69-.33c.79 0 1.46.15 2.01.44s.97.7 1.27 1.21a4.3 4.3 0 0 1 .56 1.77h-1.71c-.05-.43-.14-.8-.3-1.1s-.37-.54-.67-.7a2.4 2.4 0 0 0-1.16-.25c-.39 0-.73.07-1.03.22s-.53.36-.73.64a3.1 3.1 0 0 0-.44 1.05 6.3 6.3 0 0 0-.14 1.41v.84a6.6 6.6 0 0 0 .13 1.37c.09.41.23.75.41 1.05s.42.52.71.68.63.24 1.03.24c.49 0 .88-.08 1.18-.23s.54-.38.69-.68a3.1 3.1 0 0 0 .31-1.1zm4.22-6.71l2.31 4.75 2.31-4.75h1.9l-3.35 6.29V137h-1.73v-3.66l-3.35-6.29h1.91z" class="B"/><path d="M182.71 146.89h1.22v4.75c0 .54-.12.99-.35 1.36a2.2 2.2 0 0 1-.96.83 3.2 3.2 0 0 1-1.34.27c-.51 0-.97-.09-1.37-.27s-.72-.46-.95-.83-.34-.82-.34-1.36v-4.75h1.22v4.75a1.8 1.8 0 0 0 .17.84c.12.22.28.38.5.48s.47.16.76.16a1.7 1.7 0 0 0 .76-.16 1.1 1.1 0 0 0 .5-.48 1.8 1.8 0 0 0 .18-.84v-4.75zm3.49 0l1.51 2.59 1.51-2.59h1.41l-2.15 3.52 2.2 3.59h-1.43l-1.55-2.64-1.55 2.64h-1.43l2.21-3.59-2.15-3.52h1.42zm8.36 0l-2.77 7.72h-.92l2.77-7.72h.92zm4.92 0h1.22v4.75c0 .54-.12.99-.35 1.36a2.2 2.2 0 0 1-.96.83 3.2 3.2 0 0 1-1.34.27c-.51 0-.97-.09-1.37-.27s-.72-.46-.95-.83-.34-.82-.34-1.36v-4.75h1.22v4.75a1.8 1.8 0 0 0 .18.84 1.1 1.1 0 0 0 .5.48c.22.1.47.16.76.16a1.7 1.7 0 0 0 .76-.16 1.1 1.1 0 0 0 .5-.48 1.8 1.8 0 0 0 .18-.84v-4.75zm3.86 0V154h-1.23v-7.11h1.23zm6.08 7.11h-1.52l.01-.97h1.51c.44 0 .81-.1 1.1-.29s.53-.47.67-.83.23-.78.23-1.28v-.39a3.6 3.6 0 0 0-.13-1.02c-.08-.3-.21-.55-.38-.75s-.37-.35-.61-.46-.52-.16-.84-.16h-1.59v-.98h1.59c.47 0 .9.08 1.29.24s.73.38 1.01.68.51.65.66 1.06.23.88.23 1.39v.38c0 .51-.08.97-.23 1.39s-.37.77-.66 1.06-.63.52-1.03.68-.84.23-1.32.23zm-.84-7.11V154h-1.23v-7.11h1.23zm7.52 7.21c-.39 0-.74-.06-1.06-.19s-.58-.31-.8-.54a2.4 2.4 0 0 1-.5-.81c-.12-.31-.17-.65-.17-1.01v-.19a3.3 3.3 0 0 1 .18-1.12c.12-.34.29-.62.5-.86s.47-.42.76-.55.61-.19.95-.19a2.4 2.4 0 0 1 .99.19c.28.13.52.31.7.54s.33.5.42.81.14.66.14 1.04v.5h-4.08v-.84h2.92v-.09c-.01-.21-.05-.41-.13-.59s-.19-.34-.35-.45-.36-.17-.62-.17c-.2 0-.37.04-.52.13s-.27.2-.38.36-.18.34-.24.57a3.2 3.2 0 0 0-.08.74v.19c0 .23.03.45.09.65s.16.37.28.51.27.26.45.35.38.12.6.12c.28 0 .53-.06.76-.17s.41-.28.58-.48l.62.6c-.11.17-.26.33-.44.48s-.41.27-.67.37-.56.14-.91.14zm6-1.53c0-.12-.03-.22-.09-.32s-.17-.19-.34-.26-.4-.15-.72-.22c-.28-.06-.54-.13-.77-.22s-.43-.19-.6-.32-.29-.27-.39-.44-.14-.37-.14-.59c0-.22.05-.42.14-.61s.23-.36.41-.51.39-.26.64-.35.54-.13.85-.13c.44 0 .82.07 1.14.22a1.7 1.7 0 0 1 .73.6c.17.25.25.53.25.85h-1.18c0-.14-.04-.27-.11-.39s-.17-.22-.31-.3-.32-.12-.53-.12c-.2 0-.37.03-.5.1s-.23.14-.29.24-.09.21-.09.33c0 .09.02.17.05.24s.09.13.18.19.19.11.33.16a4.8 4.8 0 0 0 .54.14c.4.08.75.19 1.04.33s.52.3.67.51.23.47.23.78c0 .23-.05.45-.15.64s-.24.36-.43.5-.42.25-.68.33-.55.12-.88.12c-.48 0-.88-.09-1.22-.25s-.59-.39-.76-.66c-.17-.27-.25-.55-.25-.84h1.14c.01.22.07.39.18.52s.25.22.41.28.34.08.51.08c.21 0 .39-.03.53-.08s.25-.14.33-.23.11-.22.11-.34zm3.44-3.85V154h-1.18v-5.28h1.18zm-1.26-1.39a.6.6 0 0 1 .18-.44c.12-.12.29-.18.5-.18s.37.06.49.18.18.27.18.44-.06.32-.18.44-.28.17-.49.17-.38-.06-.5-.17a.6.6 0 0 1-.18-.44zm5.93 1.39h1.07v5.14a2.3 2.3 0 0 1-.3 1.21c-.2.33-.48.59-.85.76s-.78.26-1.25.26c-.2 0-.43-.03-.67-.09s-.48-.15-.71-.28-.42-.29-.57-.5l.55-.69a1.8 1.8 0 0 0 .63.49 1.7 1.7 0 0 0 .72.16c.27 0 .5-.05.69-.15s.34-.24.44-.44.16-.43.16-.7v-3.96l.11-1.2zm-3.59 2.7v-.1a3.8 3.8 0 0 1 .15-1.09c.1-.33.24-.62.42-.85s.4-.43.67-.55.55-.19.88-.19c.34 0 .63.06.87.19s.45.3.61.53a2.7 2.7 0 0 1 .38.82c.09.32.16.67.21 1.05v.33c-.04.38-.11.72-.21 1.04s-.24.58-.4.81-.37.4-.62.53-.53.19-.85.19-.61-.07-.87-.2-.48-.32-.67-.56-.32-.52-.42-.85-.15-.69-.15-1.07zm1.18-.1v.1a3.2 3.2 0 0 0 .07.67c.05.21.12.39.22.55s.23.28.38.37.34.13.55.13a1.2 1.2 0 0 0 .68-.18c.18-.12.32-.28.41-.47s.17-.43.2-.67v-.88c-.02-.19-.06-.37-.12-.54s-.14-.31-.24-.43a1 1 0 0 0-.38-.29c-.15-.07-.33-.11-.54-.11s-.4.05-.55.14-.29.22-.39.38-.17.34-.22.56a3 3 0 0 0-.07.68zm5.87-1.47V154h-1.18v-5.28h1.11l.07 1.13zm-.21 1.32h-.38c0-.37.06-.72.16-1.03s.25-.58.43-.81a1.9 1.9 0 0 1 .66-.52c.26-.12.54-.19.86-.19.25 0 .48.04.69.11s.39.18.53.34.26.36.34.61.12.55.12.91V154h-1.18v-3.42c0-.25-.04-.45-.11-.6s-.18-.25-.32-.32-.31-.1-.51-.1-.38.04-.54.13-.29.2-.41.35-.19.32-.25.51-.09.4-.09.62z" class="I"/><g clip-path="url(#B)" class="D E"><path d="M392.43 78.6c-.99 0-1.97.24-2.86.69s-1.64 1.12-2.22 1.93-.95 1.75-1.09 2.73-.04 1.99.28 2.93.87 1.79 1.59 2.47 1.59 1.19 2.55 1.47 1.96.33 2.94.14 1.89-.61 2.67-1.22l2.68 2.68c.14.13.32.21.52.21s.38-.08.51-.21.21-.32.21-.51-.07-.38-.21-.52l-2.68-2.68c.72-.92 1.18-2.02 1.3-3.19a6.2 6.2 0 0 0-.59-3.39c-.51-1.05-1.31-1.94-2.3-2.56s-2.14-.95-3.31-.95zm-4.77 6.23c0-1.26.5-2.48 1.4-3.37s2.11-1.4 3.37-1.4 2.48.5 3.37 1.4 1.4 2.11 1.4 3.37-.5 2.48-1.4 3.37-2.11 1.4-3.37 1.4-2.48-.5-3.37-1.4-1.4-2.11-1.4-3.37z"/></g><g class="D"><path d="M193.5 81.22h3.41c.71 0 1.33.11 1.84.32s.9.53 1.18.95.41.94.41 1.55c0 .49-.09.91-.26 1.26s-.41.66-.73.9a3.6 3.6 0 0 1-1.1.57l-.55.28h-3.01l-.01-1.4h2.25c.37 0 .67-.06.91-.19s.42-.31.54-.53a1.6 1.6 0 0 0 .19-.78c0-.31-.06-.58-.18-.81s-.3-.41-.55-.53a2.1 2.1 0 0 0-.93-.19h-1.64v7.99h-1.77v-9.38zm5.3 9.38l-2.17-4.2 1.88-.01 2.2 4.12v.09h-1.9zm6.1.13c-.53 0-1-.09-1.43-.26a3 3 0 0 1-1.08-.72 3.3 3.3 0 0 1-.68-1.08c-.15-.41-.23-.86-.23-1.33v-.26a4.4 4.4 0 0 1 .23-1.46c.16-.44.37-.82.66-1.14a2.9 2.9 0 0 1 1.02-.73 3.3 3.3 0 0 1 1.31-.26 3.2 3.2 0 0 1 1.31.25c.38.16.69.4.95.7s.44.66.57 1.08.19.88.19 1.39v.72h-5.47v-1.17h3.79v-.13c-.01-.27-.06-.52-.15-.74s-.24-.41-.44-.54-.45-.21-.77-.21c-.25 0-.48.06-.66.17s-.34.26-.46.46-.21.43-.27.71a4.3 4.3 0 0 0-.09.92v.26a2.7 2.7 0 0 0 .12.81c.08.25.2.47.35.65s.35.32.57.43.48.15.76.15a2.2 2.2 0 0 0 .97-.21c.29-.14.55-.35.76-.63l.86.89c-.15.21-.34.42-.59.62a2.9 2.9 0 0 1-.89.48 3.7 3.7 0 0 1-1.21.18zm6.19-1.42l1.62-5.68h1.78l-2.39 6.97h-1.08l.07-1.29zm-1.19-5.68l1.64 5.7.06 1.28h-1.09l-2.4-6.97h1.79zm7.29 0v6.97h-1.71v-6.97h1.71zm-1.82-1.82c0-.25.09-.46.26-.63s.41-.25.71-.25.53.08.7.25.26.38.26.63-.09.46-.26.63-.41.25-.7.25-.53-.08-.71-.25-.26-.38-.26-.63zm6.58 8.93c-.53 0-1-.09-1.42-.26a3.1 3.1 0 0 1-1.08-.72 3.3 3.3 0 0 1-.68-1.08c-.16-.41-.23-.86-.23-1.33v-.26c0-.54.08-1.02.23-1.46s.37-.82.66-1.14a2.9 2.9 0 0 1 1.02-.73 3.3 3.3 0 0 1 1.31-.26 3.2 3.2 0 0 1 1.31.25c.38.16.69.4.95.7s.44.66.57 1.08.19.88.19 1.39v.72h-5.47v-1.17h3.79v-.13c-.01-.27-.06-.52-.16-.74s-.24-.41-.44-.54-.45-.21-.77-.21c-.25 0-.48.06-.66.17s-.34.26-.46.46a2.3 2.3 0 0 0-.27.71 4.3 4.3 0 0 0-.09.92v.26c0 .29.04.56.12.81s.2.47.35.65.35.32.57.43.48.15.76.15a2.2 2.2 0 0 0 .97-.21c.29-.14.55-.35.76-.63l.86.89c-.15.21-.34.42-.59.62a2.9 2.9 0 0 1-.89.48 3.7 3.7 0 0 1-1.2.18zm5.91-1.8l1.53-5.3h1.08l-.32 1.83-1.54 5.14h-.93l.19-1.68zm-.84-5.3l1.15 5.31.1 1.66h-1.08l-1.83-6.97h1.66zm4.87 5.23l1.12-5.23h1.65l-1.82 6.97h-1.08l.12-1.74zm-1.25-5.23l1.52 5.25.2 1.73h-.94l-1.55-5.14-.32-1.83h1.09zm8.86 5.07c0-.15-.04-.28-.12-.39a1 1 0 0 0-.44-.32 4.6 4.6 0 0 0-.93-.28 6.9 6.9 0 0 1-1-.29c-.31-.12-.57-.26-.79-.42s-.39-.36-.52-.59-.18-.49-.18-.79c0-.29.06-.56.19-.81s.31-.48.54-.68.52-.35.86-.46a3.7 3.7 0 0 1 1.15-.17c.59 0 1.1.1 1.53.29s.76.46.99.8.34.71.34 1.13h-1.7c0-.18-.04-.35-.13-.5s-.21-.27-.38-.36-.39-.14-.65-.14c-.24 0-.44.04-.6.12s-.28.18-.36.3-.12.26-.12.41c0 .11.02.21.06.3.05.09.12.17.23.24s.24.14.42.2a5.2 5.2 0 0 0 .66.17c.52.1.97.24 1.36.41s.7.39.91.67.33.64.33 1.07c0 .31-.07.59-.2.85s-.33.47-.58.66-.56.34-.91.44-.75.15-1.19.15c-.64 0-1.18-.11-1.62-.34a2.6 2.6 0 0 1-1-.88c-.23-.36-.34-.73-.34-1.11h1.63c.01.27.09.49.22.65s.3.28.5.35.42.1.65.1a1.8 1.8 0 0 0 .65-.1c.18-.07.31-.17.4-.29a.7.7 0 0 0 .14-.43zm-58.79-7.05l-1.31-1.1-7.33 6.17 7.33 6.17 1.31-1.1-6.02-5.06 6.02-5.06z"/></g><path d="M205.09 253.7v7.3h-1.26v-7.3h1.26zm2.64 3.03V261h-1.21v-5.42h1.14l.07 1.16zm-.22 1.35h-.39c0-.38.06-.74.16-1.06a2.6 2.6 0 0 1 .44-.83c.19-.23.42-.41.68-.53a2 2 0 0 1 .88-.19c.26 0 .5.04.71.11s.4.18.55.35.27.37.35.63.12.57.12.94v3.5h-1.21v-3.51c0-.26-.04-.47-.12-.62s-.18-.26-.32-.33-.32-.1-.53-.1-.39.04-.56.13-.3.2-.42.36-.2.32-.26.52-.09.41-.09.63zm7.22-2.51v.88h-3.06v-.88h3.06zm-2.17-1.33h1.21v5.25c0 .17.02.3.07.39s.12.14.21.18.19.05.31.05c.08 0 .16 0 .24-.01l.19-.03.01.92a3.1 3.1 0 0 1-.35.08c-.13.02-.28.04-.45.04-.28 0-.52-.05-.74-.15s-.38-.26-.5-.49a1.9 1.9 0 0 1-.18-.89v-5.33zm5.5 6.85a2.9 2.9 0 0 1-1.09-.2 2.4 2.4 0 0 1-.82-.56c-.22-.24-.4-.52-.52-.84s-.18-.67-.18-1.04v-.2c0-.43.06-.81.19-1.15s.3-.64.52-.88a2.2 2.2 0 0 1 .78-.57c.3-.13.63-.19.98-.19.39 0 .73.06 1.02.19a1.9 1.9 0 0 1 .72.55c.19.23.34.51.43.84s.15.68.15 1.07v.52h-4.19v-.87h3v-.1c-.01-.22-.05-.42-.13-.61s-.2-.34-.36-.46-.37-.18-.64-.18a1.1 1.1 0 0 0-.54.13c-.15.08-.28.21-.39.37s-.18.35-.24.58-.08.48-.08.76v.2a2.2 2.2 0 0 0 .1.66c.07.2.16.38.29.53s.28.27.46.36.39.13.62.13c.29 0 .55-.06.78-.18s.42-.28.59-.5l.64.62c-.12.17-.27.33-.46.49s-.42.28-.69.38-.58.15-.93.15zm4.33-4.49V261h-1.21v-5.42h1.15l.06 1.03zm1.66-1.07l-.01 1.12c-.07-.01-.15-.02-.24-.03l-.25-.01c-.21 0-.39.03-.55.09s-.29.14-.4.25-.18.24-.24.39-.09.32-.1.52l-.28.02c0-.34.03-.66.1-.95a2.6 2.6 0 0 1 .3-.77c.14-.22.31-.39.51-.52s.45-.19.72-.19c.07 0 .15.01.23.02s.15.03.2.04zm2.61 4.5l1.33-4.47h1.25l-1.88 5.42h-.78l.09-.96zm-1.02-4.47l1.35 4.49.06.94h-.78l-1.89-5.42h1.26zm5.64 0V261h-1.21v-5.42h1.21zm-1.29-1.42c0-.18.06-.34.18-.46s.29-.19.51-.19.38.06.51.19.19.27.19.46a.6.6 0 0 1-.19.45c-.12.12-.29.18-.51.18s-.39-.06-.51-.18-.18-.27-.18-.45zm5.01 6.95a2.9 2.9 0 0 1-1.09-.2 2.4 2.4 0 0 1-.82-.56c-.22-.24-.4-.52-.52-.84s-.18-.67-.18-1.04v-.2c0-.43.06-.81.19-1.15s.3-.64.52-.88a2.2 2.2 0 0 1 .78-.57c.3-.13.63-.19.98-.19.39 0 .73.06 1.02.19a1.9 1.9 0 0 1 .72.55c.19.23.34.51.43.84s.15.68.15 1.07v.52h-4.19v-.87h3v-.1a1.7 1.7 0 0 0-.13-.61c-.08-.19-.2-.34-.36-.46s-.37-.18-.64-.18a1.1 1.1 0 0 0-.54.13c-.15.08-.28.21-.39.37s-.18.35-.24.58-.08.48-.08.76v.2a2.2 2.2 0 0 0 .1.66c.07.2.16.38.29.53s.28.27.46.36.39.13.62.13c.29 0 .55-.06.78-.18s.42-.28.59-.5l.64.62c-.12.17-.27.33-.46.49s-.42.28-.69.38-.58.15-.93.15zm4.59-1.3l1.25-4.22h.77l-.21 1.26-1.26 4.16h-.69l.14-1.2zm-.74-4.22l.98 4.24.08 1.18h-.77l-1.47-5.42h1.18zm3.94 4.19l.95-4.19h1.18l-1.46 5.42h-.77l.11-1.23zm-1.04-4.19l1.24 4.17.16 1.25h-.69l-1.28-4.17-.21-1.26h.79zm11.44 4.43v1h-3.87v-1h3.88zm-3.52-6.3v7.3h-1.26v-7.3h1.26zm3.01 3.05v.98h-3.37v-.98h3.37zm.48-3.05v1h-3.85v-1h3.85zm1.85 1.88l1.03 1.8 1.05-1.8h1.33l-1.64 2.66 1.71 2.76h-1.33l-1.1-1.87-1.1 1.88h-1.33l1.7-2.76-1.64-2.66h1.32zm5.45 1.04v6.47h-1.21v-7.51h1.11l.1 1.04zm3.53 1.62v.11a4.1 4.1 0 0 1-.14 1.1c-.09.33-.23.63-.41.88s-.4.44-.66.58a1.9 1.9 0 0 1-.9.21c-.34 0-.63-.06-.89-.19s-.46-.31-.64-.54a2.9 2.9 0 0 1-.42-.81 5.2 5.2 0 0 1-.22-1.03v-.41c.04-.4.12-.76.22-1.08s.25-.6.42-.84a1.8 1.8 0 0 1 .64-.54c.25-.13.54-.19.88-.19.34 0 .64.07.91.2s.49.32.67.56a2.5 2.5 0 0 1 .41.87c.09.34.13.71.13 1.13zm-1.21.11v-.11c0-.25-.02-.48-.07-.7s-.12-.41-.22-.57-.23-.29-.39-.38-.34-.14-.56-.14-.4.04-.55.11-.28.17-.39.3a1.4 1.4 0 0 0-.24.45c-.06.17-.1.35-.12.55v.97c.04.24.11.46.2.66a1.2 1.2 0 0 0 .41.48c.18.12.41.18.69.18.22 0 .4-.05.56-.14a1.1 1.1 0 0 0 .38-.39 1.9 1.9 0 0 0 .22-.58c.05-.22.07-.45.07-.69zm4.63 2.76a2.9 2.9 0 0 1-1.09-.2c-.32-.13-.59-.32-.82-.56s-.4-.52-.52-.84-.18-.67-.18-1.04v-.2c0-.43.06-.81.19-1.15s.3-.64.52-.88.48-.44.78-.57.63-.19.98-.19c.39 0 .73.06 1.02.19a1.9 1.9 0 0 1 .72.55 2.3 2.3 0 0 1 .43.84c.1.32.15.68.15 1.07v.52h-4.19v-.87h3v-.1a1.7 1.7 0 0 0-.13-.61c-.08-.19-.2-.34-.36-.46s-.37-.18-.64-.18a1.1 1.1 0 0 0-.54.13c-.15.08-.28.21-.39.37s-.18.35-.24.58-.08.48-.08.76v.2a2.2 2.2 0 0 0 .09.66c.07.2.16.38.29.53s.28.27.46.36.39.13.62.13c.29 0 .55-.06.78-.18s.42-.28.59-.5l.64.62a2.5 2.5 0 0 1-.46.49 2.3 2.3 0 0 1-.69.38c-.27.1-.58.15-.93.15zm4.33-4.49V261h-1.21v-5.42h1.15l.06 1.03zm1.66-1.07l-.01 1.12c-.07-.01-.15-.02-.24-.03l-.25-.01c-.21 0-.39.03-.55.09s-.29.14-.4.25a1.1 1.1 0 0 0-.24.39c-.06.15-.09.32-.1.52l-.27.02c0-.34.03-.66.1-.95a2.6 2.6 0 0 1 .3-.77c.14-.22.31-.39.51-.52s.45-.19.72-.19c.07 0 .15.01.24.02s.15.03.2.04zm2.05.03V261h-1.21v-5.42h1.21zm-1.29-1.42c0-.18.06-.34.18-.46s.29-.19.51-.19.38.06.51.19.19.27.19.46a.6.6 0 0 1-.19.45c-.12.12-.29.18-.51.18a.7.7 0 0 1-.51-.18c-.12-.12-.18-.27-.18-.45zm5.01 6.95a2.9 2.9 0 0 1-1.09-.2 2.4 2.4 0 0 1-.82-.56c-.22-.24-.4-.52-.52-.84s-.18-.67-.18-1.04v-.2c0-.43.06-.81.19-1.15a2.6 2.6 0 0 1 .52-.88 2.2 2.2 0 0 1 .78-.57c.3-.13.63-.19.98-.19.39 0 .73.06 1.02.19a1.9 1.9 0 0 1 .72.55c.19.23.34.51.43.84s.15.68.15 1.07v.52h-4.19v-.87h3v-.1c-.01-.22-.05-.42-.13-.61s-.19-.34-.36-.46-.37-.18-.64-.18a1.1 1.1 0 0 0-.54.13c-.15.08-.28.21-.39.37s-.18.35-.24.58a3.3 3.3 0 0 0-.08.76v.2c0 .24.03.46.09.66s.16.38.29.53.28.27.46.36.39.13.62.13c.29 0 .55-.06.78-.18a1.8 1.8 0 0 0 .59-.5l.64.62a2.5 2.5 0 0 1-.46.49c-.19.15-.42.28-.69.38s-.58.15-.93.15zm4.31-4.37V261h-1.21v-5.42h1.14l.07 1.16zm-.22 1.35h-.39c0-.38.06-.74.16-1.06a2.6 2.6 0 0 1 .44-.83c.19-.23.42-.41.68-.53a2 2 0 0 1 .88-.19c.26 0 .5.04.71.11s.4.18.55.35.27.37.35.63.12.57.12.94v3.5h-1.21v-3.51c0-.26-.04-.47-.12-.62s-.18-.26-.33-.33-.32-.1-.53-.1-.39.04-.56.13-.3.2-.42.36-.19.32-.25.52-.09.41-.09.63zm6.95 2.05c.2 0 .37-.04.53-.12s.29-.19.39-.33.15-.3.16-.49h1.14c-.01.35-.11.67-.31.96s-.47.52-.8.69a2.4 2.4 0 0 1-1.1.25 2.6 2.6 0 0 1-1.08-.21c-.31-.14-.56-.34-.77-.59s-.36-.54-.46-.87-.15-.68-.15-1.05v-.18c0-.37.05-.72.15-1.05s.26-.62.46-.87a2.1 2.1 0 0 1 .77-.59c.31-.14.67-.22 1.08-.22.43 0 .81.09 1.14.26s.58.41.77.72.29.66.3 1.06h-1.14c-.01-.2-.06-.38-.15-.54s-.21-.3-.37-.39-.35-.15-.57-.15c-.24 0-.45.05-.61.15a1 1 0 0 0-.38.4c-.09.17-.15.36-.2.57s-.06.42-.06.65v.18c0 .22.02.44.06.65s.1.4.19.57.22.3.38.4.36.15.61.15zm5.54.96a2.9 2.9 0 0 1-1.09-.2 2.4 2.4 0 0 1-.82-.56c-.22-.24-.4-.52-.52-.84s-.18-.67-.18-1.04v-.2c0-.43.06-.81.19-1.15a2.6 2.6 0 0 1 .52-.88 2.2 2.2 0 0 1 .78-.57c.3-.13.63-.19.98-.19.39 0 .73.06 1.02.19a1.9 1.9 0 0 1 .72.55c.19.23.34.51.43.84s.15.68.15 1.07v.52h-4.19v-.87h3v-.1c-.01-.22-.05-.42-.13-.61s-.19-.34-.36-.46-.37-.18-.64-.18a1.1 1.1 0 0 0-.54.13c-.15.08-.28.21-.39.37s-.18.35-.24.58a3.3 3.3 0 0 0-.08.76v.2a2.2 2.2 0 0 0 .1.66c.07.2.16.38.29.53s.28.27.46.36.39.13.62.13c.29 0 .55-.06.78-.18s.42-.28.59-.5l.64.62a2.5 2.5 0 0 1-.46.49c-.19.15-.42.28-.69.38s-.58.15-.93.15z" fill="#000"/><use href="#K" class="C"/><g class="B"><use href="#L"/><use href="#M"/><use href="#N"/><path d="M207.1 275.6a.9.9 0 1 0 0-1.8.9.9 0 1 0 0 1.8z"/><use href="#O"/></g><path d="M227.54 284a7.5 7.5 0 1 0 0-15 7.5 7.5 0 1 0 0 15z" class="C"/><g class="B"><use href="#P"/><path d="M230.39 275.6a.9.9 0 1 0 0-1.8.9.9 0 1 0 0 1.8zm-5.25 0a.9.9 0 1 0 0-1.8.9.9 0 1 0 0 1.8z"/></g><path d="M245.58 284a7.5 7.5 0 1 0 0-15 7.5 7.5 0 1 0 0 15z" class="C"/><g class="B"><use href="#Q"/><path d="M248.43 275.6a.9.9 0 1 0 0-1.8.9.9 0 1 0 0 1.8zm-5.25 0a.9.9 0 1 0 0-1.8.9.9 0 1 0 0 1.8z"/></g><path d="M263.62 284a7.5 7.5 0 1 0 0-15 7.5 7.5 0 1 0 0 15z" class="C"/><g class="B"><use href="#R"/><path d="M266.47 275.6a.9.9 0 1 0 0-1.8.9.9 0 1 0 0 1.8zm-5.25 0a.9.9 0 1 0 0-1.8.9.9 0 1 0 0 1.8z"/></g><path d="M281.66 284a7.5 7.5 0 1 0 0-15 7.5 7.5 0 1 0 0 15z" class="C"/><g class="B"><use href="#S"/><path d="M284.51 275.6a.9.9 0 1 0 0-1.8.9.9 0 1 0 0 1.8zm-5.25 0a.9.9 0 1 0 0-1.8.9.9 0 1 0 0 1.8z"/></g><path d="M299.7 284a7.5 7.5 0 1 0 0-15 7.5 7.5 0 1 0 0 15z" class="C"/><g class="B"><use href="#T"/><path d="M302.55 275.6a.9.9 0 1 0 0-1.8.9.9 0 1 0 0 1.8zm-5.25 0a.9.9 0 1 0 0-1.8.9.9 0 1 0 0 1.8z"/></g><path d="M317.74 284a7.5 7.5 0 1 0 0-15 7.5 7.5 0 1 0 0 15z" class="C"/><g class="B"><use href="#U"/><path d="M320.58 275.6a.9.9 0 1 0 0-1.8.9.9 0 1 0 0 1.8zm-5.24 0a.9.9 0 1 0 0-1.8.9.9 0 1 0 0 1.8z"/></g><path d="M335.78 284a7.5 7.5 0 1 0 0-15 7.5 7.5 0 1 0 0 15z" class="C"/><g class="B"><use href="#V"/><path d="M338.63 275.6a.9.9 0 1 0 0-1.8.9.9 0 1 0 0 1.8zm-5.25 0a.9.9 0 1 0 0-1.8.9.9 0 1 0 0 1.8z"/></g><path d="M353.82 284a7.5 7.5 0 1 0 0-15 7.5 7.5 0 1 0 0 15z" class="C"/><g class="B"><use href="#W"/><path d="M356.67 275.6a.9.9 0 1 0 0-1.8.9.9 0 1 0 0 1.8zm-5.25 0a.9.9 0 1 0 0-1.8.9.9 0 1 0 0 1.8zm20.44 8.4a7.5 7.5 0 1 0 0-15 7.5 7.5 0 1 0 0 15z"/></g><g class="D"><use href="#X"/><use href="#Y" class="E"/></g><path d="M389.9 284a7.5 7.5 0 1 0 0-15 7.5 7.5 0 1 0 0 15z" class="C"/><g class="B"><path d="M392.98 277.63c-.22 0-.29.14-.29.27-.16 1.23-2.04 2.35-3.16 2.35s-3-1.12-3.16-2.35c0-.2-.15-.27-.29-.27-.22 0-.29.14-.29.27 0 1.91 1.69 3.48 3.75 3.48s3.75-1.5 3.75-3.48c0-.14-.15-.27-.29-.27z"/><use href="#Z" class="E"/></g><path d="M203.74 300.7h2.58a3.6 3.6 0 0 1 1.42.25c.39.17.69.41.9.74s.32.72.32 1.2c0 .36-.07.69-.2.96s-.32.51-.57.7a2.7 2.7 0 0 1-.87.44l-.38.19h-2.32l-.01-1h1.74c.3 0 .55-.05.75-.16s.35-.25.45-.44.16-.4.16-.63c0-.25-.05-.47-.15-.66s-.25-.34-.45-.44-.46-.15-.78-.15H205v6.3h-1.26v-7.3zm4.17 7.3l-1.71-3.28h1.32l1.74 3.22v.06h-1.34zm4.57.1a2.9 2.9 0 0 1-1.09-.2 2.4 2.4 0 0 1-.82-.56c-.22-.24-.4-.52-.52-.84s-.18-.67-.18-1.04v-.2a3.4 3.4 0 0 1 .19-1.15c.12-.34.3-.64.52-.88a2.2 2.2 0 0 1 .78-.57c.3-.13.63-.19.98-.19.39 0 .73.06 1.02.19a1.9 1.9 0 0 1 .72.55 2.3 2.3 0 0 1 .43.84c.1.32.15.68.15 1.07v.52h-4.19v-.87h3v-.1a1.7 1.7 0 0 0-.13-.61c-.08-.19-.2-.34-.36-.46s-.37-.18-.64-.18a1.1 1.1 0 0 0-.54.13c-.15.08-.28.21-.39.37s-.18.35-.24.58a3.3 3.3 0 0 0-.08.76v.2c0 .24.03.46.09.66s.16.38.29.53.28.27.46.36.39.13.62.13c.29 0 .55-.06.78-.18s.42-.28.59-.5l.64.62a2.5 2.5 0 0 1-.46.49c-.19.15-.42.28-.69.38s-.58.15-.93.15zm5.33-.96c.2 0 .38-.04.53-.12s.29-.19.39-.33.16-.3.16-.49h1.14c-.01.35-.11.67-.31.96s-.47.52-.8.69a2.4 2.4 0 0 1-1.1.25 2.6 2.6 0 0 1-1.08-.21c-.31-.14-.56-.34-.77-.59s-.36-.54-.46-.87-.15-.68-.15-1.05v-.18c0-.37.05-.72.15-1.05s.26-.62.46-.87a2.1 2.1 0 0 1 .77-.59c.31-.14.67-.21 1.08-.21a2.4 2.4 0 0 1 1.14.26c.33.17.58.41.77.72s.29.66.3 1.06h-1.14c-.01-.2-.06-.38-.15-.54s-.21-.3-.37-.39-.35-.15-.57-.15c-.24 0-.45.05-.61.15a1 1 0 0 0-.38.4c-.09.17-.16.36-.2.57s-.06.42-.06.65v.18c0 .22.02.44.06.65s.1.4.19.57a1.1 1.1 0 0 0 .38.4c.16.1.36.15.61.15zm2.92-1.79v-.12c0-.39.06-.75.17-1.09s.28-.63.49-.88a2.2 2.2 0 0 1 .79-.58c.31-.14.67-.21 1.06-.21s.75.07 1.06.21a2.2 2.2 0 0 1 .8.58c.22.25.38.54.5.88s.17.7.17 1.09v.12c0 .39-.06.75-.17 1.09a2.6 2.6 0 0 1-.5.88 2.3 2.3 0 0 1-.79.58 2.6 2.6 0 0 1-1.06.21c-.4 0-.75-.07-1.07-.21a2.3 2.3 0 0 1-.79-.58 2.6 2.6 0 0 1-.5-.88c-.11-.33-.17-.7-.17-1.09zm1.21-.12v.12c0 .24.03.47.07.69s.13.41.24.57.24.29.41.39a1.2 1.2 0 0 0 .6.14c.22 0 .42-.05.58-.14s.3-.22.41-.39.19-.35.24-.57a2.9 2.9 0 0 0 .08-.69v-.12c0-.24-.03-.47-.08-.68s-.13-.41-.24-.58-.24-.3-.41-.39-.36-.15-.59-.15-.42.05-.59.15-.3.22-.41.39-.19.36-.24.58a3 3 0 0 0-.07.68zm6.06-1.55V308h-1.21v-5.42h1.14l.07 1.1zm-.2 1.41h-.41c0-.37.05-.72.14-1.04s.23-.59.41-.83a1.8 1.8 0 0 1 .67-.55c.27-.13.58-.19.94-.19.25 0 .47.04.68.11s.39.18.54.34.27.35.35.59.13.53.13.87V308h-1.21v-3.51c0-.26-.04-.47-.12-.62s-.19-.26-.34-.32-.32-.1-.52-.1c-.23 0-.42.04-.58.13s-.29.2-.39.36a1.6 1.6 0 0 0-.22.52c-.05.2-.07.41-.07.63zm3.36-.32l-.57.13a3.1 3.1 0 0 1 .13-.93c.09-.29.23-.55.41-.77s.4-.4.67-.53.57-.19.91-.19c.28 0 .53.04.74.12s.41.19.56.35.27.37.35.63.12.56.12.92V308h-1.21v-3.51c0-.27-.04-.49-.12-.64s-.19-.25-.33-.31-.31-.09-.52-.09c-.19 0-.35.04-.5.11s-.26.16-.36.29-.17.26-.22.42-.07.33-.07.51zm5.78-1.09V308h-1.21v-5.42h1.14l.07 1.1zm-.19 1.41h-.41c0-.37.05-.72.14-1.04a2.5 2.5 0 0 1 .41-.83 1.8 1.8 0 0 1 .67-.55c.27-.13.58-.19.94-.19.25 0 .47.04.68.11s.39.18.54.34.27.35.35.59.13.53.13.87V308h-1.21v-3.51c0-.26-.04-.47-.12-.62s-.19-.26-.34-.32-.32-.1-.52-.1c-.23 0-.42.04-.58.13s-.28.2-.39.36-.17.32-.22.52-.07.41-.07.63zm3.36-.32l-.57.13a3.1 3.1 0 0 1 .13-.93c.09-.29.23-.55.41-.77s.4-.4.67-.53.57-.19.91-.19c.28 0 .53.04.74.12s.41.19.56.35.27.37.35.63a3.1 3.1 0 0 1 .12.92V308h-1.21v-3.51c0-.27-.04-.49-.12-.64s-.19-.25-.33-.31-.32-.09-.52-.09c-.19 0-.35.04-.5.11a1 1 0 0 0-.36.29c-.1.12-.17.26-.22.42s-.07.33-.07.51zm6.96 3.33a2.9 2.9 0 0 1-1.09-.2 2.4 2.4 0 0 1-.82-.56c-.22-.24-.4-.52-.52-.84s-.18-.67-.18-1.04v-.2c0-.43.06-.81.19-1.15s.3-.64.52-.88.48-.44.78-.57.63-.19.98-.19c.39 0 .73.06 1.02.19s.53.31.72.55a2.3 2.3 0 0 1 .43.84c.1.32.14.68.14 1.07v.52h-4.19v-.87h3v-.1a1.7 1.7 0 0 0-.13-.61c-.08-.19-.2-.34-.36-.46s-.37-.18-.64-.18a1.1 1.1 0 0 0-.54.13c-.15.08-.28.21-.39.37s-.18.35-.24.58a3.3 3.3 0 0 0-.08.76v.2c0 .24.03.46.09.66s.16.38.29.53.28.27.46.36.39.13.62.13c.29 0 .55-.06.78-.18s.42-.28.59-.5l.64.62a2.5 2.5 0 0 1-.46.49c-.19.15-.42.28-.69.38s-.58.15-.93.15zm4.31-4.37V308h-1.21v-5.42h1.14l.07 1.16zm-.22 1.35h-.39c0-.38.06-.74.16-1.06s.25-.6.44-.83.42-.41.68-.53.56-.19.88-.19c.26 0 .5.04.71.11s.4.19.55.35.27.37.35.63.12.57.12.94v3.5h-1.21v-3.51c0-.26-.04-.47-.12-.62s-.18-.26-.33-.33-.32-.1-.53-.1-.39.04-.56.13-.3.2-.42.36-.2.32-.26.52-.09.41-.09.63zm8.04 1.79v-6.58h1.21v7.7h-1.1l-.11-1.12zm-3.53-1.53v-.11c0-.41.05-.79.15-1.12s.24-.63.42-.88.41-.44.67-.57.56-.2.89-.2.61.06.86.19.46.31.63.55a2.8 2.8 0 0 1 .42.84c.1.32.18.69.22 1.08v.34c-.04.39-.12.74-.22 1.06s-.24.6-.42.83a1.8 1.8 0 0 1-.64.54c-.25.13-.54.19-.87.19a1.9 1.9 0 0 1-.89-.21c-.26-.14-.48-.33-.67-.58a2.7 2.7 0 0 1-.42-.87c-.1-.34-.15-.7-.15-1.1zm1.21-.11v.11a3.5 3.5 0 0 0 .06.69 1.9 1.9 0 0 0 .22.57 1.1 1.1 0 0 0 .94.52c.27 0 .5-.06.68-.18s.32-.28.42-.49.17-.44.21-.69v-.91a2.2 2.2 0 0 0-.12-.55c-.06-.17-.14-.32-.25-.45s-.23-.23-.39-.3-.33-.11-.54-.11c-.22 0-.41.05-.56.14s-.28.22-.38.39a1.9 1.9 0 0 0-.22.57 3.3 3.3 0 0 0-.07.7zm9.84-2.67v.88h-3.06v-.88h3.06zm-2.17-1.33h1.21v5.25c0 .17.02.3.07.39s.12.14.21.18.19.05.31.05c.08 0 .16 0 .24-.01l.19-.03v.92a3.1 3.1 0 0 1-.35.08c-.13.02-.28.04-.45.04-.28 0-.52-.05-.74-.15s-.38-.26-.5-.49a1.9 1.9 0 0 1-.18-.89v-5.33zm2.76 4.1v-.12c0-.39.06-.75.17-1.09s.28-.63.49-.88a2.2 2.2 0 0 1 .79-.58c.31-.14.67-.21 1.06-.21s.75.07 1.06.21a2.2 2.2 0 0 1 .8.58c.22.25.38.54.5.88s.17.7.17 1.09v.12c0 .39-.06.75-.17 1.09a2.6 2.6 0 0 1-.5.88 2.3 2.3 0 0 1-.79.58 2.6 2.6 0 0 1-1.06.21c-.4 0-.75-.07-1.07-.21a2.3 2.3 0 0 1-.79-.58 2.6 2.6 0 0 1-.5-.88c-.11-.33-.17-.7-.17-1.09zm1.21-.12v.12c0 .24.02.47.07.69s.13.41.24.57.24.29.41.39a1.2 1.2 0 0 0 .6.14c.22 0 .42-.05.58-.14s.3-.22.41-.39.19-.35.24-.57a2.9 2.9 0 0 0 .08-.69v-.12c0-.24-.03-.47-.08-.68s-.13-.41-.24-.58-.24-.3-.41-.39-.36-.15-.59-.15-.43.05-.59.15-.3.22-.41.39-.19.36-.24.58a3 3 0 0 0-.07.68zm10.46 1.68v-2.59c0-.19-.03-.36-.1-.5s-.18-.25-.32-.33-.32-.12-.53-.12a1.2 1.2 0 0 0-.51.1c-.14.07-.26.16-.34.27s-.12.24-.12.39h-1.2c0-.21.05-.42.16-.62s.25-.38.45-.54.43-.28.71-.37.58-.13.92-.13c.41 0 .77.07 1.08.2s.57.34.75.62.28.62.28 1.03v2.41c0 .25.02.47.05.67s.09.36.16.51v.08h-1.24c-.06-.13-.1-.3-.14-.5s-.05-.4-.05-.59zm.18-2.21l.01.75h-.87c-.22 0-.42.02-.59.07s-.31.1-.43.18-.2.18-.26.29-.08.24-.08.39a.8.8 0 0 0 .1.4c.07.12.16.21.29.28s.29.1.47.1c.25 0 .46-.05.65-.15s.33-.23.44-.38.16-.29.17-.43l.39.54c-.04.14-.11.28-.21.44s-.22.31-.38.45a1.9 1.9 0 0 1-1.3.48c-.35 0-.67-.07-.95-.21a1.7 1.7 0 0 1-.65-.58c-.16-.24-.24-.52-.24-.83 0-.29.05-.54.16-.76s.27-.41.48-.56a2.3 2.3 0 0 1 .78-.34 4.2 4.2 0 0 1 1.05-.12h.95zm6.24-4v7.3h-1.26v-7.3h1.26zm2.98 3.19v1h-3.3v-1h3.3zm.42-3.19v1h-3.72v-1h3.72zm1.96 2.91V308h-1.21v-5.42h1.15l.06 1.03zm1.66-1.07l-.01 1.12c-.07-.01-.15-.02-.24-.03l-.25-.01c-.21 0-.39.03-.55.09s-.29.14-.4.25a1.1 1.1 0 0 0-.24.39c-.06.15-.09.32-.1.52l-.28.02c0-.34.03-.66.1-.95a2.6 2.6 0 0 1 .3-.77c.14-.22.31-.39.51-.52s.45-.19.72-.19c.07 0 .15.01.24.02s.15.03.19.05zm2.05.04V308h-1.21v-5.42h1.21zm-1.29-1.42c0-.18.06-.34.18-.46s.29-.19.51-.19.38.06.51.19.19.27.19.46a.6.6 0 0 1-.19.45c-.12.12-.29.18-.51.18s-.39-.06-.51-.18-.18-.27-.18-.45zm5.01 6.95a2.9 2.9 0 0 1-1.09-.2 2.4 2.4 0 0 1-.82-.56c-.22-.24-.4-.52-.52-.84s-.18-.67-.18-1.04v-.2c0-.43.06-.81.19-1.15s.3-.64.52-.88a2.2 2.2 0 0 1 .78-.57c.3-.13.63-.19.98-.19.39 0 .73.06 1.02.19a1.9 1.9 0 0 1 .72.55c.19.23.34.51.43.84s.15.68.15 1.07v.52h-4.19v-.87h3v-.1c-.01-.22-.05-.42-.13-.61s-.19-.34-.36-.46-.37-.18-.64-.18a1.1 1.1 0 0 0-.54.13c-.15.08-.28.21-.39.37s-.18.35-.24.58-.08.48-.08.76v.2a2.2 2.2 0 0 0 .09.66c.07.2.16.38.29.53s.28.27.46.36.39.13.62.13c.29 0 .55-.06.78-.18s.43-.28.59-.5l.64.62c-.12.17-.27.33-.46.49s-.42.28-.69.38-.58.15-.93.15zm4.31-4.37V308h-1.21v-5.42h1.14l.07 1.16zm-.22 1.35h-.39c0-.38.06-.74.16-1.06a2.6 2.6 0 0 1 .44-.83c.19-.23.42-.41.68-.53a2 2 0 0 1 .88-.19c.26 0 .5.04.71.11s.4.19.55.35.27.37.35.63.12.57.12.94v3.5h-1.21v-3.51c0-.26-.04-.47-.12-.62s-.18-.26-.32-.33-.32-.1-.53-.1-.39.04-.56.13-.3.2-.42.36-.2.32-.26.52-.09.41-.09.63zm8.04 1.79v-6.58h1.21v7.7h-1.1l-.12-1.12zm-3.53-1.53v-.11c0-.41.05-.79.15-1.12s.24-.63.42-.88.41-.44.67-.57.56-.2.89-.2.62.06.86.19.46.31.63.55.31.51.42.84.18.69.22 1.08v.34c-.04.39-.12.74-.22 1.06s-.24.6-.42.83a1.8 1.8 0 0 1-.64.54c-.25.13-.54.19-.87.19a1.9 1.9 0 0 1-.89-.21c-.26-.14-.48-.33-.67-.58a2.7 2.7 0 0 1-.42-.87c-.1-.34-.15-.7-.15-1.1zm1.21-.11v.11c0 .25.02.48.06.69a1.9 1.9 0 0 0 .21.57c.1.16.22.29.38.38a1.1 1.1 0 0 0 .56.14c.27 0 .5-.06.68-.18s.31-.28.42-.49.17-.44.21-.69v-.91c-.02-.2-.06-.38-.12-.55s-.14-.32-.25-.45-.23-.23-.39-.3-.33-.11-.54-.11c-.22 0-.41.05-.56.14s-.28.22-.38.39a1.9 1.9 0 0 0-.21.57 3.3 3.3 0 0 0-.07.7z" fill="#000"/><path d="M209.5 331a7.5 7.5 0 1 0 0-15 7.5 7.5 0 1 0 0 15z" class="C"/><g class="B"><path d="M212.95 328.45c-.22 0-.3-.15-.3-.3 0-1.73-1.42-3.23-3.22-3.23a3.2 3.2 0 0 0-3.22 3.23c0 .22-.15.3-.3.3-.22 0-.3-.15-.3-.3 0-2.1 1.72-3.82 3.82-3.82a3.8 3.8 0 0 1 3.82 3.82c0 .15-.15.3-.3.3zm-.6-5.85a.9.9 0 1 0 0-1.8.9.9 0 1 0 0 1.8zm-1.57-1.8c-.07 0-.22 0-.22-.07-.15-.15-.15-.3 0-.45l1.28-1.35c.15-.15.3-.15.45 0s.15.3 0 .45l-1.27 1.27c-.08.15-.15.15-.23.15zm-3.68 1.8a.9.9 0 1 0 0-1.8.9.9 0 1 0 0 1.8zm1.65-1.8c-.08 0-.23-.07-.23-.15l-1.27-1.27c-.15-.15-.15-.3 0-.45s.3-.15.45 0l1.28 1.35c.15.15.15.3 0 .45-.08.07-.15.07-.22.07z"/></g><path d="M227.54 331a7.5 7.5 0 1 0 0-15 7.5 7.5 0 1 0 0 15z" class="C"/><g class="B"><path d="M224.16 327.4h-.15c-.23-.07-.23-.23-.23-.37.53-1.57 2.03-2.62 3.6-2.62s2.92.98 3.52 2.4c.08.23 0 .38-.15.45-.23.07-.37 0-.45-.23-.53-1.2-1.65-2.02-2.92-2.02-1.35 0-2.55.9-3 2.17 0 .15-.08.23-.23.23zm6.23-4.8a.9.9 0 1 0 0-1.8.9.9 0 1 0 0 1.8zm-5.25 0a.9.9 0 1 0 0-1.8.9.9 0 1 0 0 1.8z"/></g><path d="M245.58 331a7.5 7.5 0 1 0 0-15 7.5 7.5 0 1 0 0 15z" class="C"/><g class="B"><path d="M242.21 327.4h-.15c-.22-.07-.22-.22-.22-.45.53-1.2 2.03-1.95 3.6-1.95s2.93.68 3.53 1.73c.08.15 0 .38-.15.45s-.37 0-.45-.15c-.53-.9-1.65-1.42-2.93-1.42-1.35 0-2.62.6-3 1.57 0 .15-.07.22-.22.22zm6.22-4.8a.9.9 0 1 0 0-1.8.9.9 0 1 0 0 1.8zm-5.25 0a.9.9 0 1 0 0-1.8.9.9 0 1 0 0 1.8z"/></g><path d="M263.62 331a7.5 7.5 0 1 0 0-15 7.5 7.5 0 1 0 0 15z" class="C"/><g class="B"><path d="M265.87 326.27c-.07 0-.15 0-.23-.07a4.2 4.2 0 0 0-4.2 0c-.15.15-.37.07-.45-.15-.15-.15-.07-.37.15-.45 1.35-.9 3.6-.9 4.88 0 .15.15.23.3.15.45s-.15.23-.3.23zm.6-3.67a.9.9 0 1 0 0-1.8.9.9 0 1 0 0 1.8zm-5.25 0a.9.9 0 1 0 0-1.8.9.9 0 1 0 0 1.8z"/></g><path d="M281.66 331a7.5 7.5 0 1 0 0-15 7.5 7.5 0 1 0 0 15z" class="C"/><g class="B"><path d="M283.08 326.05c-.07 0-.15 0-.15-.07-1.2-.6-2.62 0-2.62 0-.23.07-.37 0-.52-.23-.08-.23 0-.37.22-.52.07 0 1.8-.75 3.3 0 .15.07.23.3.15.52s-.22.3-.37.3zm1.43-3.45a.9.9 0 1 0 0-1.8.9.9 0 1 0 0 1.8zm-5.25 0a.9.9 0 1 0 0-1.8.9.9 0 1 0 0 1.8z"/></g><path d="M299.7 331a7.5 7.5 0 1 0 0-15 7.5 7.5 0 1 0 0 15z" class="C"/><g class="B"><path d="M302.25 326.27h-5.1c-.23 0-.3-.15-.3-.3 0-.22.15-.3.3-.3h5.1c.23 0 .3.15.3.3s-.07.3-.3.3zm.3-3.67a.9.9 0 1 0 0-1.8.9.9 0 1 0 0 1.8zm-5.25 0a.9.9 0 1 0 0-1.8.9.9 0 1 0 0 1.8z"/></g><path d="M317.74 331a7.5 7.5 0 1 0 0-15 7.5 7.5 0 1 0 0 15z" class="C"/><g class="B"><path d="M317.81 326.35c-1.43 0-2.4-.68-2.48-.75-.15-.15-.22-.3-.07-.45s.3-.23.45-.07c.08.07 1.95 1.35 4.2 0 .15-.08.38-.08.45.15.07.15.07.38-.15.45a4.3 4.3 0 0 1-2.4.68zm2.77-3.75a.9.9 0 1 0 0-1.8.9.9 0 1 0 0 1.8zm-5.24 0a.9.9 0 1 0 0-1.8.9.9 0 1 0 0 1.8z"/></g><path d="M335.78 331a7.5 7.5 0 1 0 0-15 7.5 7.5 0 1 0 0 15z" class="C"/><g class="B"><path d="M332.41 325h-.15c-.22.07-.22.23-.22.45.52 1.2 2.02 1.95 3.6 1.95s2.93-.68 3.53-1.73c.07-.15 0-.37-.15-.45s-.37 0-.45.15c-.52.9-1.65 1.43-2.93 1.43-1.35 0-2.62-.6-3-1.57 0-.15-.07-.23-.22-.23zm6.22-2.4a.9.9 0 1 0 0-1.8.9.9 0 1 0 0 1.8zm-5.25 0a.9.9 0 1 0 0-1.8.9.9 0 1 0 0 1.8z"/></g><path d="M353.82 331a7.5 7.5 0 1 0 0-15 7.5 7.5 0 1 0 0 15z" class="C"/><g class="B"><path d="M350.45 324.4h-.15c-.22.07-.22.23-.22.38.52 1.57 2.02 2.63 3.6 2.63s2.93-.98 3.53-2.4c.07-.23 0-.37-.15-.45-.22-.07-.37 0-.45.23-.52 1.2-1.65 2.02-2.93 2.02-1.35 0-2.55-.9-3-2.17 0-.15-.07-.23-.22-.23zm6.22-1.8a.9.9 0 1 0 0-1.8.9.9 0 1 0 0 1.8zm-5.25 0a.9.9 0 1 0 0-1.8.9.9 0 1 0 0 1.8zm20.44 8.4a7.5 7.5 0 1 0 0-15 7.5 7.5 0 1 0 0 15z"/></g><g class="D"><path d="M374.94 324.63c-.22 0-.29.14-.29.27-.16 1.23-2.04 2.35-3.16 2.35s-3-1.12-3.16-2.35c0-.2-.15-.27-.29-.27-.22 0-.29.14-.29.27 0 1.91 1.69 3.48 3.75 3.48s3.75-1.5 3.75-3.48c0-.14-.15-.27-.29-.27z"/><path d="M369.52 319.38c.07 0 .13 0 .19.01s.11.03.15.07c.11.09.12.16.08.21s-.13.09-.23.11l-.23.06c-.28.07-.42.11-.76.32-.09.06-.17.11-.25.18l-.23.2c-.02.01-.04.04-.07.07l-.1.11c-.1.1-.22.2-.29.13-.11-.1.09-.38.16-.48l.01-.02c.19-.28.42-.5.68-.66s.56-.26.89-.31zm5.09 2.9c-.61-.45-1.2-.44-1.76 0-.25.2-.36.09-.25-.18s.25-.49.44-.67c.76-.74 1.45-.08 1.78.65.11.23.05.39-.21.2zm-4.43 0c-.61-.45-1.2-.44-1.76 0-.25.2-.36.09-.25-.18s.25-.49.43-.67c.76-.74 1.45-.08 1.78.65.11.23.05.39-.21.2zm3.3-2.88c-.13-.01-.24 0-.32.07-.18.14-.07.23.1.28.42.13.52.09.93.33.22.13.42.28.6.44.08.07.32.4.43.31s-.12-.39-.18-.48c-.38-.55-.9-.88-1.56-.96z" class="E"/></g><path d="M389.9 331a7.5 7.5 0 1 0 0-15 7.5 7.5 0 1 0 0 15z" class="C"/><g class="B"><path d="M392.98 324.63c-.22 0-.29.14-.29.27-.16 1.23-2.04 2.35-3.16 2.35s-3-1.12-3.16-2.35c0-.2-.15-.27-.29-.27-.22 0-.29.14-.29.27 0 1.91 1.69 3.48 3.75 3.48s3.75-1.5 3.75-3.48c0-.14-.15-.27-.29-.27z"/><path d="M387.56 319.38c.07 0 .13 0 .19.01s.11.03.15.07c.11.09.12.16.08.21s-.13.09-.23.11l-.23.06c-.28.07-.42.11-.76.32-.09.06-.17.11-.25.18l-.23.2c-.02.01-.04.04-.07.07l-.1.11c-.1.1-.22.2-.29.13-.11-.1.09-.38.16-.48l.01-.02c.19-.28.42-.5.68-.66s.56-.26.89-.31zm5.34 3.37c-.2.86-1.87.38-2.25 0-.18-.18-.12-.39-.01-.66s.25-.49.44-.67c.76-.74 1.45-.08 1.78.65.11.23.1.41.04.67zm-4.87 0c-.45.38-1.08.41-1.5 0-.2-.2-.43-.39-.32-.66s.25-.49.43-.67c.76-.74 1.45-.08 1.78.65.11.23-.17.47-.4.67zm3.49-3.35c-.13-.01-.24 0-.32.07-.18.14-.07.23.1.28.42.13.52.09.93.33.22.13.42.28.6.44.08.07.32.4.43.31s-.12-.39-.18-.48c-.38-.55-.9-.88-1.56-.96z" class="E"/></g><path d="M206.51 352.28h-1.9v-1h1.9c.33 0 .6-.05.8-.16a1 1 0 0 0 .45-.44c.1-.19.15-.41.15-.65 0-.23-.05-.45-.15-.65s-.24-.37-.45-.49-.47-.19-.8-.19H205v6.3h-1.26v-7.3h2.77c.56 0 1.04.1 1.44.3a2.1 2.1 0 0 1 .91.82c.21.35.31.75.31 1.19 0 .47-.1.88-.31 1.21s-.51.6-.91.78-.87.27-1.44.27zm4.88-1.67V355h-1.21v-5.42h1.15l.06 1.03zm1.66-1.07l-.01 1.12c-.07-.01-.15-.02-.24-.03l-.25-.01c-.21 0-.39.03-.55.09s-.29.14-.4.25a1.1 1.1 0 0 0-.24.39c-.06.15-.09.32-.1.52l-.27.02c0-.34.03-.66.1-.95a2.6 2.6 0 0 1 .3-.77c.14-.22.31-.39.51-.52s.45-.19.72-.19c.07 0 .15.01.24.02s.15.03.19.05zm3.05 5.56a2.9 2.9 0 0 1-1.09-.2 2.4 2.4 0 0 1-.82-.56c-.22-.24-.4-.52-.52-.84s-.18-.67-.18-1.04v-.2c0-.43.06-.81.19-1.15s.3-.64.52-.88a2.2 2.2 0 0 1 .78-.57c.3-.13.63-.19.98-.19.39 0 .73.06 1.02.19a1.9 1.9 0 0 1 .72.55c.19.23.34.51.43.84s.15.68.15 1.07v.52h-4.19v-.87h3v-.1a1.7 1.7 0 0 0-.13-.61c-.08-.19-.19-.34-.36-.46s-.37-.18-.64-.18a1.1 1.1 0 0 0-.54.13c-.15.08-.28.21-.39.37s-.18.35-.24.58-.08.48-.08.76v.2a2.2 2.2 0 0 0 .1.66c.07.2.16.38.29.53s.28.27.46.36.39.13.62.13c.29 0 .55-.06.78-.18s.43-.28.59-.5l.64.62a2.5 2.5 0 0 1-.46.49c-.19.15-.42.28-.69.38s-.58.15-.93.15zm4.75-.1h-1.21v-5.94c0-.41.07-.74.23-1.02s.37-.49.66-.63.62-.22 1.01-.22c.12 0 .24.01.36.03s.23.03.34.06l-.03.93c-.07-.02-.14-.03-.22-.03l-.25-.01c-.18 0-.34.03-.48.11-.13.07-.23.16-.3.29s-.1.29-.1.48V355zm1.12-5.42v.88h-3.16v-.88h3.16zm3.15 5.52a2.9 2.9 0 0 1-1.09-.2 2.4 2.4 0 0 1-.82-.56c-.22-.24-.4-.52-.52-.84s-.18-.67-.18-1.04v-.2c0-.43.06-.81.19-1.15s.3-.64.52-.88.48-.44.78-.57.63-.19.98-.19c.39 0 .73.06 1.02.19s.53.31.72.55a2.3 2.3 0 0 1 .43.84c.1.32.14.68.14 1.07v.52h-4.19v-.87h3v-.1a1.7 1.7 0 0 0-.13-.61c-.08-.19-.2-.34-.36-.46s-.37-.18-.64-.18a1.1 1.1 0 0 0-.54.13c-.15.08-.28.21-.39.37s-.18.35-.24.58a3.3 3.3 0 0 0-.08.76v.2c0 .24.03.46.09.66s.16.38.29.53.28.27.46.36.39.13.62.13c.29 0 .55-.06.78-.18s.42-.28.59-.5l.64.62a2.5 2.5 0 0 1-.46.49c-.19.15-.42.28-.69.38s-.58.15-.93.15zm4.33-4.49V355h-1.21v-5.42h1.15l.06 1.03zm1.66-1.07l-.01 1.12c-.07-.01-.15-.02-.24-.03l-.25-.01c-.21 0-.39.03-.55.09s-.29.14-.4.25-.18.24-.24.39-.09.32-.1.52l-.27.02c0-.34.03-.66.1-.95a2.6 2.6 0 0 1 .3-.77c.14-.22.31-.39.51-.52s.45-.19.72-.19c.07 0 .15.01.23.02s.15.03.2.05zm1.97 1.07V355h-1.21v-5.42h1.15l.06 1.03zm1.66-1.07l-.01 1.12c-.07-.01-.15-.02-.24-.03l-.25-.01c-.21 0-.39.03-.55.09s-.29.14-.4.25-.18.24-.24.39-.09.32-.1.52l-.28.02c0-.34.03-.66.1-.95a2.6 2.6 0 0 1 .3-.77c.14-.22.31-.39.51-.52s.45-.19.72-.19c.07 0 .15.01.24.02s.15.03.19.05zm3.05 5.56a2.9 2.9 0 0 1-1.09-.2c-.32-.13-.59-.32-.82-.56s-.4-.52-.52-.84-.18-.67-.18-1.04v-.2c0-.43.06-.81.19-1.15s.3-.64.52-.88.48-.44.78-.57.63-.19.98-.19c.39 0 .73.06 1.02.19a1.9 1.9 0 0 1 .72.55 2.3 2.3 0 0 1 .43.84c.1.32.15.68.15 1.07v.52h-4.19v-.87h3v-.1a1.7 1.7 0 0 0-.13-.61c-.08-.19-.2-.34-.36-.46s-.37-.18-.64-.18a1.1 1.1 0 0 0-.54.13c-.15.08-.28.21-.39.37s-.18.35-.24.58-.08.48-.08.76v.2a2.2 2.2 0 0 0 .09.66c.07.2.16.38.29.53s.28.27.46.36.39.13.62.13c.29 0 .55-.06.78-.18s.42-.28.59-.5l.64.62a2.5 2.5 0 0 1-.46.49 2.3 2.3 0 0 1-.69.38c-.27.1-.58.15-.93.15zm6.42-1.22v-6.58h1.21v7.7h-1.1l-.12-1.12zm-3.53-1.53v-.11c0-.41.05-.79.14-1.12s.24-.63.42-.88.41-.44.67-.57.56-.2.89-.2.62.06.86.19.46.31.63.55a2.8 2.8 0 0 1 .42.84c.1.32.18.69.22 1.08v.34c-.04.39-.12.74-.22 1.06s-.24.6-.42.83a1.8 1.8 0 0 1-.64.54c-.25.13-.54.19-.87.19a1.9 1.9 0 0 1-.89-.21c-.26-.14-.48-.33-.67-.58a2.7 2.7 0 0 1-.42-.87c-.1-.34-.14-.7-.14-1.1zm1.21-.11v.11a3.5 3.5 0 0 0 .06.69 1.9 1.9 0 0 0 .22.57 1.1 1.1 0 0 0 .94.52c.27 0 .5-.06.68-.18s.32-.28.42-.49.17-.44.21-.69v-.91c-.02-.2-.06-.38-.13-.55s-.14-.32-.25-.45-.23-.23-.39-.3-.33-.11-.54-.11c-.22 0-.41.05-.56.14s-.28.22-.38.39a1.9 1.9 0 0 0-.22.57 3.3 3.3 0 0 0-.07.7zm12.25 1.76v1h-3.87v-1h3.88zm-3.52-6.3v7.3h-1.26v-7.3h1.26zm3.01 3.05v.98h-3.37v-.98h3.37zm.48-3.05v1h-3.85v-1h3.85zm2.14 2.98V355h-1.21v-5.42h1.14l.07 1.1zm-.19 1.41h-.41c0-.37.05-.72.14-1.04a2.5 2.5 0 0 1 .41-.83c.18-.24.41-.42.67-.55s.58-.19.94-.19c.25 0 .47.04.68.11s.39.18.54.34.27.35.35.59.13.53.13.87V355h-1.21v-3.51c0-.26-.04-.47-.12-.62s-.19-.26-.34-.32-.31-.1-.52-.1a1.2 1.2 0 0 0-.58.13c-.16.09-.29.2-.39.36a1.6 1.6 0 0 0-.22.52c-.05.2-.07.41-.07.63zm3.36-.32l-.57.13a3.1 3.1 0 0 1 .13-.93c.09-.29.23-.55.41-.77s.4-.4.67-.53.57-.19.91-.19a2.2 2.2 0 0 1 .74.12c.22.07.41.19.56.35s.27.37.35.63a3.1 3.1 0 0 1 .12.92V355h-1.21v-3.51c0-.27-.04-.49-.12-.64s-.19-.25-.33-.31-.32-.09-.52-.09c-.19 0-.35.04-.5.11a1 1 0 0 0-.36.29c-.1.12-.17.26-.22.42s-.07.33-.07.51zm5.78-1.15v6.47h-1.21v-7.51h1.11l.1 1.04zm3.53 1.62v.11a4.1 4.1 0 0 1-.14 1.1c-.09.33-.22.63-.41.88s-.4.44-.66.58-.56.21-.9.21-.63-.06-.89-.19-.46-.31-.64-.54-.31-.5-.42-.81a5.2 5.2 0 0 1-.22-1.03v-.41c.04-.4.12-.76.22-1.08s.25-.6.42-.84a1.8 1.8 0 0 1 .64-.54c.25-.13.54-.19.88-.19.34 0 .64.07.91.2s.49.32.67.56.32.53.41.87.14.71.14 1.13zm-1.21.11v-.11c0-.25-.02-.48-.07-.7a1.8 1.8 0 0 0-.22-.57c-.1-.16-.23-.29-.39-.38s-.34-.14-.56-.14-.4.04-.55.11-.28.17-.39.3a1.4 1.4 0 0 0-.24.45c-.06.17-.1.35-.12.55v.97c.04.24.11.46.21.66s.23.36.41.48.41.18.69.18c.22 0 .4-.05.56-.14s.28-.22.38-.39.17-.36.22-.58.07-.45.07-.69zm3.53-5.04v7.7h-1.21v-7.7h1.21zm1.09 5.05v-.12c0-.39.06-.75.17-1.09s.28-.63.49-.88.48-.44.79-.58a2.6 2.6 0 0 1 1.06-.21c.4 0 .75.07 1.06.21a2.2 2.2 0 0 1 .8.58c.22.25.38.54.5.88s.17.7.17 1.09v.12c0 .39-.06.75-.17 1.09a2.6 2.6 0 0 1-.5.88 2.3 2.3 0 0 1-.79.58 2.6 2.6 0 0 1-1.06.21c-.4 0-.75-.07-1.07-.21s-.57-.33-.79-.58a2.6 2.6 0 0 1-.5-.88c-.11-.33-.17-.7-.17-1.09zm1.21-.12v.12c0 .24.02.47.07.69s.13.41.24.57.24.29.41.39a1.2 1.2 0 0 0 .6.14c.22 0 .42-.05.58-.14s.3-.22.41-.39.19-.35.24-.57.08-.45.08-.69v-.12c0-.24-.03-.47-.08-.68s-.13-.41-.24-.58-.24-.3-.41-.39-.36-.15-.59-.15-.42.05-.59.15-.3.22-.41.39-.19.36-.24.58a3 3 0 0 0-.07.68zm6.34 2.18l1.47-4.83h1.29l-2.18 6.25c-.05.13-.12.28-.2.44s-.19.31-.32.45-.29.26-.48.35-.42.14-.69.14c-.11 0-.21-.01-.31-.03l-.28-.06v-.92l.12.01h.12c.2 0 .37-.02.5-.07a.7.7 0 0 0 .33-.23c.09-.11.16-.25.22-.43l.39-1.05zm-.83-4.83l1.29 4.06.22 1.27-.84.21-1.97-5.55h1.3zm6.61 5.52a2.9 2.9 0 0 1-1.09-.2 2.4 2.4 0 0 1-.82-.56c-.22-.24-.4-.52-.52-.84s-.18-.67-.18-1.04v-.2c0-.43.06-.81.19-1.15s.3-.64.52-.88.48-.44.78-.57.63-.19.98-.19c.39 0 .73.06 1.02.19a1.9 1.9 0 0 1 .72.55c.19.23.34.51.43.84s.15.68.15 1.07v.52h-4.19v-.87h3v-.1c-.01-.22-.05-.42-.13-.61-.08-.19-.19-.34-.36-.46s-.37-.18-.64-.18a1.1 1.1 0 0 0-.54.13c-.15.08-.28.21-.39.37s-.18.35-.24.58-.08.48-.08.76v.2a2.2 2.2 0 0 0 .09.66c.07.2.16.38.29.53s.28.27.46.36.39.13.62.13c.29 0 .55-.06.78-.18s.43-.28.59-.5l.64.62c-.12.17-.27.33-.46.49s-.42.28-.69.38-.58.15-.93.15zm4.33-4.49V355h-1.21v-5.42h1.15l.06 1.03zm1.66-1.07l-.01 1.12c-.07-.01-.15-.02-.24-.03l-.25-.01c-.21 0-.39.03-.55.09s-.29.14-.4.25-.18.24-.24.39-.09.32-.1.52l-.28.02c0-.34.03-.66.1-.95s.17-.55.3-.77.31-.39.51-.52.45-.19.72-.19c.07 0 .15.01.24.02s.15.03.2.05z" fill="#000"/><path d="M209.5 378a7.5 7.5 0 1 0 0-15 7.5 7.5 0 1 0 0 15z" class="C"/><g class="B"><path d="M212.95 375.45c-.22 0-.3-.15-.3-.3 0-1.73-1.42-3.23-3.22-3.23a3.2 3.2 0 0 0-3.22 3.23c0 .22-.15.3-.3.3-.22 0-.3-.15-.3-.3 0-2.1 1.72-3.82 3.82-3.82a3.8 3.8 0 0 1 3.82 3.82c0 .15-.15.3-.3.3zm-.6-5.85a.9.9 0 1 0 0-1.8.9.9 0 1 0 0 1.8zm-1.57-1.8c-.07 0-.22 0-.22-.07-.15-.15-.15-.3 0-.45l1.28-1.35c.15-.15.3-.15.45 0s.15.3 0 .45l-1.27 1.27c-.08.15-.15.15-.23.15zm-3.68 1.8a.9.9 0 1 0 0-1.8.9.9 0 1 0 0 1.8zm1.65-1.8c-.08 0-.23-.07-.23-.15l-1.27-1.27c-.15-.15-.15-.3 0-.45s.3-.15.45 0l1.28 1.35c.15.15.15.3 0 .45-.08.07-.15.07-.22.07z"/></g><path d="M227.54 378a7.5 7.5 0 1 0 0-15 7.5 7.5 0 1 0 0 15z" class="C"/><g class="B"><path d="M224.16 374.4h-.15c-.23-.07-.23-.23-.23-.37.53-1.57 2.03-2.62 3.6-2.62s2.92.98 3.52 2.4c.08.23 0 .38-.15.45-.23.07-.37 0-.45-.23-.53-1.2-1.65-2.02-2.92-2.02-1.35 0-2.55.9-3 2.17 0 .15-.08.23-.23.23zm6.23-4.8a.9.9 0 1 0 0-1.8.9.9 0 1 0 0 1.8zm-5.25 0a.9.9 0 1 0 0-1.8.9.9 0 1 0 0 1.8z"/></g><path d="M245.58 378a7.5 7.5 0 1 0 0-15 7.5 7.5 0 1 0 0 15z" class="C"/><g class="B"><path d="M242.21 374.4h-.15c-.22-.07-.22-.22-.22-.45.53-1.2 2.03-1.95 3.6-1.95s2.93.68 3.53 1.73c.08.15 0 .38-.15.45s-.37 0-.45-.15c-.53-.9-1.65-1.42-2.93-1.42-1.35 0-2.62.6-3 1.57 0 .15-.07.22-.22.22zm6.22-4.8a.9.9 0 1 0 0-1.8.9.9 0 1 0 0 1.8zm-5.25 0a.9.9 0 1 0 0-1.8.9.9 0 1 0 0 1.8z"/></g><path d="M263.62 378a7.5 7.5 0 1 0 0-15 7.5 7.5 0 1 0 0 15z" class="C"/><g class="B"><path d="M265.87 373.27c-.07 0-.15 0-.23-.07a4.2 4.2 0 0 0-4.2 0c-.15.15-.37.07-.45-.15-.15-.15-.07-.37.15-.45 1.35-.9 3.6-.9 4.88 0 .15.15.23.3.15.45s-.15.23-.3.23zm.6-3.67a.9.9 0 1 0 0-1.8.9.9 0 1 0 0 1.8zm-5.25 0a.9.9 0 1 0 0-1.8.9.9 0 1 0 0 1.8z"/></g><path d="M281.66 378a7.5 7.5 0 1 0 0-15 7.5 7.5 0 1 0 0 15z" class="C"/><g class="B"><path d="M283.08 373.05c-.07 0-.15 0-.15-.07-1.2-.6-2.62 0-2.62 0-.23.07-.37 0-.52-.23-.08-.23 0-.37.22-.52.07 0 1.8-.75 3.3 0 .15.07.23.3.15.52s-.22.3-.37.3zm1.43-3.45a.9.9 0 1 0 0-1.8.9.9 0 1 0 0 1.8zm-5.25 0a.9.9 0 1 0 0-1.8.9.9 0 1 0 0 1.8z"/></g><path d="M299.7 378a7.5 7.5 0 1 0 0-15 7.5 7.5 0 1 0 0 15z" class="C"/><g class="B"><path d="M302.25 373.27h-5.1c-.23 0-.3-.15-.3-.3 0-.22.15-.3.3-.3h5.1c.23 0 .3.15.3.3s-.07.3-.3.3zm.3-3.67a.9.9 0 1 0 0-1.8.9.9 0 1 0 0 1.8zm-5.25 0a.9.9 0 1 0 0-1.8.9.9 0 1 0 0 1.8z"/></g><path d="M317.74 378a7.5 7.5 0 1 0 0-15 7.5 7.5 0 1 0 0 15z" class="C"/><g class="B"><path d="M317.81 373.35c-1.43 0-2.4-.68-2.48-.75-.15-.15-.22-.3-.07-.45s.3-.23.45-.07c.08.07 1.95 1.35 4.2 0 .15-.08.38-.08.45.15.07.15.07.38-.15.45a4.3 4.3 0 0 1-2.4.68zm2.77-3.75a.9.9 0 1 0 0-1.8.9.9 0 1 0 0 1.8zm-5.24 0a.9.9 0 1 0 0-1.8.9.9 0 1 0 0 1.8z"/></g><path d="M335.78 378a7.5 7.5 0 1 0 0-15 7.5 7.5 0 1 0 0 15z" class="C"/><g class="B"><path d="M332.41 372h-.15c-.22.07-.22.23-.22.45.52 1.2 2.02 1.95 3.6 1.95s2.93-.68 3.53-1.73c.07-.15 0-.37-.15-.45s-.37 0-.45.15c-.52.9-1.65 1.43-2.93 1.43-1.35 0-2.62-.6-3-1.57 0-.15-.07-.23-.22-.23zm6.22-2.4a.9.9 0 1 0 0-1.8.9.9 0 1 0 0 1.8zm-5.25 0a.9.9 0 1 0 0-1.8.9.9 0 1 0 0 1.8z"/></g><path d="M353.82 378a7.5 7.5 0 1 0 0-15 7.5 7.5 0 1 0 0 15z" class="C"/><g class="B"><path d="M350.45 371.4h-.15c-.22.07-.22.23-.22.38.52 1.57 2.02 2.63 3.6 2.63s2.93-.98 3.53-2.4c.07-.23 0-.37-.15-.45-.22-.07-.37 0-.45.23-.52 1.2-1.65 2.02-2.93 2.02-1.35 0-2.55-.9-3-2.17 0-.15-.07-.23-.22-.23zm6.22-1.8a.9.9 0 1 0 0-1.8.9.9 0 1 0 0 1.8zm-5.25 0a.9.9 0 1 0 0-1.8.9.9 0 1 0 0 1.8zm20.44 8.4a7.5 7.5 0 1 0 0-15 7.5 7.5 0 1 0 0 15z"/></g><g class="D"><path d="M374.94 371.63c-.22 0-.29.14-.29.27-.16 1.23-2.04 2.35-3.16 2.35s-3-1.12-3.16-2.35c0-.2-.15-.27-.29-.27-.22 0-.29.14-.29.27 0 1.91 1.69 3.48 3.75 3.48s3.75-1.5 3.75-3.48c0-.14-.15-.27-.29-.27z"/><path d="M369.52 366.38c.07 0 .13 0 .19.01s.11.03.15.07c.11.09.12.16.08.21s-.13.09-.23.11l-.23.06c-.28.07-.42.11-.76.32-.09.06-.17.11-.25.18l-.23.2c-.02.01-.04.04-.07.07l-.1.11c-.1.1-.22.2-.29.13-.11-.1.09-.38.16-.48l.01-.02c.19-.28.42-.5.68-.66s.56-.26.89-.31zm5.09 2.9c-.61-.45-1.2-.44-1.76 0-.25.2-.36.09-.25-.18s.25-.49.44-.67c.76-.74 1.45-.08 1.78.65.11.23.05.39-.21.2zm-4.43 0c-.61-.45-1.2-.44-1.76 0-.25.2-.36.09-.25-.18s.25-.49.43-.67c.76-.74 1.45-.08 1.78.65.11.23.05.39-.21.2zm3.3-2.88c-.13-.01-.24 0-.32.07-.18.14-.07.23.1.28.42.13.52.09.93.33.22.13.42.28.6.44.08.07.32.4.43.31s-.12-.39-.18-.48c-.38-.55-.9-.88-1.56-.96z" class="E"/></g><path d="M389.9 378a7.5 7.5 0 1 0 0-15 7.5 7.5 0 1 0 0 15z" class="C"/><g class="B"><path d="M392.98 371.63c-.22 0-.29.14-.29.27-.16 1.23-2.04 2.35-3.16 2.35s-3-1.12-3.16-2.35c0-.2-.15-.27-.29-.27-.22 0-.29.14-.29.27 0 1.91 1.69 3.48 3.75 3.48s3.75-1.5 3.75-3.48c0-.14-.15-.27-.29-.27z"/><path d="M387.56 366.38c.07 0 .13 0 .19.01s.11.03.15.07c.11.09.12.16.08.21s-.13.09-.23.11l-.23.06c-.28.07-.42.11-.76.32-.09.06-.17.11-.25.18l-.23.2c-.02.01-.04.04-.07.07l-.1.11c-.1.1-.22.2-.29.13-.11-.1.09-.38.16-.48l.01-.02c.19-.28.42-.5.68-.66s.56-.26.89-.31zm5.34 3.37c-.2.86-1.87.38-2.25 0-.18-.18-.12-.39-.01-.66s.25-.49.44-.67c.76-.74 1.45-.08 1.78.65.11.23.1.41.04.67zm-4.87 0c-.45.38-1.08.41-1.5 0-.2-.2-.43-.39-.32-.66s.25-.49.43-.67c.76-.74 1.45-.08 1.78.65.11.23-.17.47-.4.67zm3.49-3.35c-.13-.01-.24 0-.32.07-.18.14-.07.23.1.28.42.13.52.09.93.33.22.13.42.28.6.44.08.07.32.4.43.31s-.12-.39-.18-.48c-.38-.55-.9-.88-1.56-.96z" class="E"/></g><g fill="#878787"><path d="M202.58 395.31h2.01a2.8 2.8 0 0 1 1.1.2 1.5 1.5 0 0 1 .7.58 1.7 1.7 0 0 1 .25.94 1.7 1.7 0 0 1-.16.75c-.1.22-.25.4-.44.55s-.42.26-.68.34l-.3.14h-1.81l-.01-.78h1.35c.24 0 .43-.04.59-.12s.27-.2.35-.34.12-.31.12-.49c0-.2-.04-.37-.12-.51s-.19-.26-.35-.34-.36-.12-.6-.12h-1.03V401h-.98v-5.69zm3.25 5.69l-1.34-2.56h1.03l1.36 2.51v.05h-1.05zm3.56.08c-.31 0-.59-.05-.85-.15a1.8 1.8 0 0 1-.64-.43c-.18-.18-.31-.4-.4-.65s-.14-.52-.14-.81v-.16c0-.33.05-.63.15-.9s.23-.5.4-.69.38-.34.61-.44.49-.15.76-.15c.3 0 .57.05.79.15s.41.24.56.43.26.4.34.65.11.53.11.84v.4h-3.27v-.68h2.34v-.07c0-.17-.04-.33-.1-.48s-.15-.27-.28-.36-.29-.14-.5-.14c-.16 0-.3.03-.42.1s-.22.16-.3.28a1.7 1.7 0 0 0-.19.45 2.6 2.6 0 0 0-.06.59v.16a2.1 2.1 0 0 0 .07.52c.04.16.13.29.23.41s.22.21.36.28.3.1.48.1c.23 0 .43-.05.61-.14s.33-.22.46-.39l.5.48c-.09.13-.21.26-.36.38s-.32.22-.53.29-.45.11-.73.11zm3.37-3.49v5.04h-.94v-5.85h.87l.07.81zm2.75 1.26v.08a3.2 3.2 0 0 1-.11.86c-.07.26-.17.49-.32.68s-.31.34-.51.45-.44.16-.7.16-.49-.05-.69-.14-.36-.24-.5-.42a2.1 2.1 0 0 1-.33-.63c-.08-.24-.14-.51-.17-.81v-.32a4.3 4.3 0 0 1 .17-.84 2.1 2.1 0 0 1 .33-.65c.14-.18.3-.32.5-.42s.42-.15.68-.15c.27 0 .5.05.71.16s.38.25.52.44.25.41.32.68.11.56.11.88zm-.94.08v-.08c0-.2-.02-.38-.05-.54s-.09-.32-.17-.45-.18-.23-.3-.3-.26-.11-.43-.11-.31.03-.43.09-.22.13-.3.23-.14.21-.19.35-.07.27-.09.43v.76a1.6 1.6 0 0 0 .16.51c.08.15.18.28.32.38s.32.14.54.14c.17 0 .31-.04.43-.11s.22-.17.29-.3a1.5 1.5 0 0 0 .17-.45 2.6 2.6 0 0 0 .05-.54zm2.75-3.93v6h-.94v-6h.94zm3.41 5.15v-2.01c0-.15-.03-.28-.08-.39s-.14-.19-.25-.25-.25-.09-.41-.09c-.15 0-.29.03-.4.08s-.2.12-.26.21-.09.19-.09.3h-.94a1 1 0 0 1 .12-.48c.08-.15.2-.3.35-.42a1.8 1.8 0 0 1 .55-.29c.21-.07.45-.11.72-.11a2.1 2.1 0 0 1 .84.16c.25.11.44.27.58.48s.22.48.22.81v1.88c0 .19.01.37.04.52a1.8 1.8 0 0 0 .12.39v.06h-.97c-.04-.1-.08-.23-.1-.39l-.04-.46zm.14-1.72l.01.58h-.68c-.17 0-.33.02-.46.05a1 1 0 0 0-.33.14c-.09.06-.16.14-.2.23s-.07.19-.07.3.03.21.08.31.13.16.23.22a.8.8 0 0 0 .37.08 1 1 0 0 0 .5-.12c.14-.08.26-.18.34-.29s.13-.23.13-.33l.31.42c-.03.11-.09.22-.16.34s-.17.24-.3.35-.27.2-.43.27-.36.1-.58.1c-.28 0-.52-.05-.74-.16s-.39-.26-.51-.45-.18-.4-.18-.64c0-.22.04-.42.13-.59s.21-.32.38-.44a1.8 1.8 0 0 1 .61-.27 3.3 3.3 0 0 1 .82-.09h.74zm2.96 2.11l1.15-3.77h1.01l-1.7 4.87-.15.34c-.06.12-.15.24-.25.35a1.1 1.1 0 0 1-.37.27c-.15.07-.33.11-.54.11-.08 0-.16-.01-.24-.02l-.22-.04v-.72l.09.01h.09c.16 0 .29-.02.39-.06s.19-.1.25-.18.13-.19.17-.34l.31-.82zm-.65-3.77l1 3.16.17.99-.65.17-1.54-4.32h1.02zm18.4-1.46h2.01a2.8 2.8 0 0 1 1.1.2 1.5 1.5 0 0 1 .7.58 1.7 1.7 0 0 1 .25.94 1.7 1.7 0 0 1-.16.75c-.1.22-.25.4-.44.55s-.42.26-.68.34l-.3.14h-1.81l-.01-.78h1.35c.24 0 .43-.04.59-.12s.27-.2.35-.34.12-.31.12-.49c0-.2-.04-.37-.12-.51s-.19-.26-.35-.34-.36-.12-.6-.12h-1.03V401h-.98v-5.69zm3.25 5.69l-1.34-2.56h1.03l1.36 2.51v.05h-1.05zm3.56.08c-.31 0-.59-.05-.85-.15a1.8 1.8 0 0 1-.64-.43c-.18-.18-.31-.4-.4-.65s-.14-.52-.14-.81v-.16c0-.33.05-.63.15-.9s.23-.5.4-.69.38-.34.61-.44.49-.15.76-.15c.3 0 .57.05.79.15s.41.24.56.43.26.4.34.65.11.53.11.84v.4h-3.27v-.68h2.34v-.07c0-.17-.04-.33-.1-.48s-.15-.27-.28-.36-.29-.14-.5-.14c-.16 0-.3.03-.42.1s-.22.16-.3.28a1.7 1.7 0 0 0-.19.45 2.6 2.6 0 0 0-.06.59v.16a2.1 2.1 0 0 0 .07.52c.04.16.13.29.23.41s.22.21.36.28.3.1.48.1c.23 0 .43-.05.61-.14s.33-.22.46-.39l.5.48c-.09.13-.21.26-.36.38s-.32.22-.53.29-.45.11-.73.11zm3.37-3.49v5.04h-.94v-5.85h.87l.07.81zm2.75 1.26v.08a3.2 3.2 0 0 1-.11.86c-.07.26-.17.49-.32.68s-.31.34-.51.45-.44.16-.7.16-.49-.05-.69-.14-.36-.24-.5-.42a2.1 2.1 0 0 1-.33-.63c-.08-.24-.14-.51-.17-.81v-.32a4.3 4.3 0 0 1 .17-.84 2.1 2.1 0 0 1 .33-.65c.14-.18.3-.32.5-.42s.42-.15.68-.15c.27 0 .5.05.71.16s.38.25.52.44.25.41.32.68.11.56.11.88zm-.94.08v-.08c0-.2-.02-.38-.05-.54s-.09-.32-.17-.45-.18-.23-.3-.3-.26-.11-.43-.11-.31.03-.43.09-.22.13-.3.23-.14.21-.19.35-.07.27-.09.43v.76a1.6 1.6 0 0 0 .16.51c.08.15.18.28.32.38s.32.14.54.14c.17 0 .31-.04.43-.11s.22-.17.29-.3a1.5 1.5 0 0 0 .17-.45 2.6 2.6 0 0 0 .05-.54zm1.56 0v-.09a2.6 2.6 0 0 1 .13-.85c.09-.26.22-.49.38-.68s.38-.35.62-.45.52-.16.83-.16a2 2 0 0 1 .83.16c.24.11.45.26.62.45a2 2 0 0 1 .39.68c.09.26.13.54.13.85v.09a2.6 2.6 0 0 1-.13.85c-.09.26-.22.49-.39.68s-.37.34-.62.45a2 2 0 0 1-.82.16c-.3 0-.59-.05-.83-.16s-.45-.26-.62-.45-.3-.42-.39-.68a2.6 2.6 0 0 1-.13-.85zm.94-.09v.09a2.4 2.4 0 0 0 .06.54c.04.17.1.32.18.44s.19.23.32.3.29.11.46.11a.9.9 0 0 0 .77-.41c.08-.13.14-.28.18-.44a2.3 2.3 0 0 0 .06-.54v-.09a2.2 2.2 0 0 0-.06-.53c-.04-.16-.1-.32-.19-.45s-.19-.23-.32-.3-.28-.11-.46-.11a.9.9 0 0 0-.46.11c-.13.07-.23.17-.32.3s-.14.28-.18.45-.06.34-.06.53zm4.72-1.27V401h-.94v-4.23h.9l.04.8zm1.29-.83l-.01.88-.19-.02c-.07-.01-.13-.01-.2-.01-.16 0-.3.02-.43.07s-.23.11-.31.19-.14.19-.19.31-.07.25-.08.4l-.22.02a3.3 3.3 0 0 1 .08-.74 1.8 1.8 0 0 1 .24-.6 1.2 1.2 0 0 1 .4-.4c.16-.1.35-.14.56-.14a1.1 1.1 0 0 1 .18.02l.15.03zm2.72.03v.69h-2.38v-.69h2.38zm-1.69-1.04h.94v4.09c0 .13.02.23.05.3s.09.11.16.14.15.04.24.04c.06 0 .13 0 .19-.01l.14-.02v.72c-.08.02-.17.05-.27.06s-.22.03-.35.03c-.22 0-.41-.04-.57-.11a.8.8 0 0 1-.39-.38c-.09-.18-.14-.41-.14-.69v-4.15z"/></g><g class="G"><rect x="202" y="217" width="192" height="4" rx="2"/><rect x="202" y="225" width="84" height="4" rx="2"/></g><path d="M205.65 207.87v-4.98h1.22v4.98c0 .47-.1.87-.3 1.21a2 2 0 0 1-.82.76 2.6 2.6 0 0 1-1.19.26 3 3 0 0 1-1.21-.23 1.8 1.8 0 0 1-.82-.7c-.2-.32-.3-.72-.3-1.2h1.23a1.5 1.5 0 0 0 .13.68c.09.17.22.29.38.37a1.4 1.4 0 0 0 .58.11c.21 0 .4-.05.56-.14s.3-.24.39-.42.14-.42.14-.69zm4.84 2.23c-.39 0-.74-.06-1.06-.19s-.58-.31-.8-.54a2.4 2.4 0 0 1-.5-.81c-.12-.31-.18-.65-.18-1.01v-.19a3.3 3.3 0 0 1 .18-1.12c.12-.34.29-.62.5-.86s.47-.42.76-.55.61-.19.95-.19a2.4 2.4 0 0 1 .99.19c.28.13.52.31.7.54s.33.5.42.81.14.66.14 1.04v.5h-4.08v-.84h2.92v-.09c-.01-.21-.05-.41-.13-.59a1 1 0 0 0-.35-.45c-.16-.11-.37-.17-.62-.17-.2 0-.37.04-.52.13s-.28.2-.38.36-.18.34-.23.57a3.2 3.2 0 0 0-.08.74v.19c0 .23.03.45.09.65s.16.37.28.51.27.26.45.35.38.12.6.12c.28 0 .53-.06.76-.17s.41-.28.58-.48l.62.6a2.4 2.4 0 0 1-.44.48 2.2 2.2 0 0 1-.67.37c-.26.09-.56.14-.91.14zm4.2-4.25V210h-1.18v-5.28h1.11l.07 1.13zm-.21 1.32h-.38c0-.37.06-.72.16-1.03s.25-.58.43-.81.41-.4.66-.52.54-.19.86-.19c.25 0 .48.04.69.11s.39.18.53.34.26.36.34.61.12.55.12.91V210h-1.18v-3.42c0-.25-.04-.45-.11-.6s-.18-.25-.32-.32-.31-.1-.51-.1-.38.04-.54.13-.3.2-.41.35a1.7 1.7 0 0 0-.25.51c-.06.19-.09.4-.09.62zm5.87-2.45V210h-1.18v-5.28h1.18zm-1.26-1.39c0-.18.06-.33.18-.44s.29-.18.5-.18.37.06.49.18.18.27.18.44-.06.32-.18.44-.28.17-.49.17-.38-.06-.5-.17-.18-.26-.18-.44z" class="I"/><path d="M380.92 204.31V210h-.97v-5.69h.97zm1.78 0v.78h-4.53v-.78h4.53zm4.51 2.38v.78h-3.02v-.78h3.02zm-2.78-2.38V210h-.98v-5.69h.98zm3.53 0V210h-.98v-5.69h.98zm4.36 0h.98v3.8c0 .43-.09.79-.28 1.09s-.44.51-.77.66-.68.22-1.07.22a2.6 2.6 0 0 1-1.09-.22c-.32-.15-.57-.37-.76-.66s-.27-.65-.27-1.09v-3.8h.98v3.8c0 .27.05.5.14.68s.23.3.4.39.38.13.61.13.44-.04.61-.12.3-.21.4-.39.14-.4.14-.68v-3.8z" class="G"/><path d="M184 225c6.63 0 12-5.25 12-11.73s-5.37-11.73-12-11.73-12 5.25-12 11.73S177.37 225 184 225z" class="K"/><path d="M190.99 212.33c.85-4.83-1.19-10.97-6.78-11.32-1.78-.11-3.53.53-4.43 1.77-3.09 1.19-3.35 6.49-3 8.31.94 5-3.62 4.14-2.46 8.83l9.53-.51h.36l9.36.12c.79-3.54-2.98-3.3-2.59-7.2z" class="H"/><path d="M186.81 211.73h-5.62v7.01h5.62v-7.01z" class="F"/><path d="M194.31 219.27c-2.64-1.09-7.47-1.91-7.47-1.91-1.85 1.53-4.2 1.52-5.66 0 0 0-4.89.71-7.65 1.65 1.97 3.42 5.65 5.78 9.91 5.97.19.01.38.01.57.01 4.38-.01 8.2-2.31 10.29-5.73z" class="L"/><g class="D"><path d="M188.97 210.88c-.21 0-.38.3-.38.66s.17.66.38.66.38-.3.38-.66-.17-.66-.38-.66zm0 1.03c-.14 0-.26-.2-.26-.45s.12-.45.26-.45.26.2.26.45-.12.45-.26.45zm-10.35-.37c0 .37.17.66.38.66s.38-.3.38-.66-.17-.66-.38-.66-.38.3-.38.66zm.12-.08c0-.25.12-.45.26-.45s.26.2.26.45-.12.45-.26.45-.26-.2-.26-.45z"/></g><path d="M183.99 203.24c-3.62 0-4.45 2.66-4.37 5.33l.17 3.82c.18.48 1.45 3.34 4.2 3.34 2.75 0 4.02-2.87 4.2-3.34s.17-1.89.17-3.82c.08-2.67-.75-5.32-4.37-5.33z" class="F"/><path d="M183.99 215.81a4 4 0 0 1-2.89-1.27l.12-.11c.81.81 1.74 1.22 2.77 1.22 1.01 0 1.94-.4 2.73-1.18l.11.11c-.83.81-1.79 1.23-2.85 1.23z" class="J"/><g class="F"><path d="M179.77 208.47s-.73-1.05-1.48-.44-.02 4.09 1.48 3.48 0-3.05 0-3.05zm8.45 0s.73-1.05 1.48-.44.02 4.09-1.48 3.48 0-3.05 0-3.05z"/></g><g class="J"><path d="M179.66 210.43l-.16.01.09 1.13.16-.01-.08-1.12zm8.68-.12l-.09 1.24.16.01.09-1.24-.16-.01zm-9.67-.47c-.17-.56-.17-.95 0-1.15.13-.15.3-.15.31-.15l-.01.16v-.08.08s-.1 0-.17.09-.17.35.03 1.01l-.15.05zm10.71 0l-.15-.05c.2-.66.11-.91.03-1.01s-.17-.09-.17-.09l-.01-.16c.01 0 .18-.01.31.15.17.21.17.6 0 1.15z"/></g><g class="D"><path d="M179.32 211.71c-.03 0-.05 0-.08-.01-.01 0-.01-.01-.02-.01-.05.13-.13.22-.22.22-.14 0-.26-.2-.26-.45s.12-.45.26-.45c.09-.01.06-.12 0-.12-.21 0-.38.3-.38.66s.17.66.38.66c.17 0 .32-.21.36-.49h-.05zm9.65-.83c-.06 0-.09.11 0 .12.14 0 .26.2.26.45s-.12.45-.26.45c-.08 0-.15-.06-.2-.16l-.04.03-.1.06c.06.22.19.37.34.37.21 0 .38-.3.38-.66s-.17-.66-.38-.66z"/></g><path d="M179.59 208.26c-.03-1.88 1.4-2.85 1.4-2.85 1.29 2.21 4.85 2.96 8.09 1.86 0 0-.32-5.31-5.39-5s-4.1 5.98-4.1 5.98z" class="H"/><g class="G"><rect x="232" y="445" width="160" height="4" rx="2"/><rect x="232" y="453" width="60" height="4" rx="2"/></g><path d="M237.42 433.86v.97h-3.77v-.97h3.77zm-3.47-2.97V438h-1.22v-7.11h1.22zm4.41 0V438h-1.22v-7.11h1.22zm4.32 6.05v-2.52c0-.19-.03-.35-.1-.49s-.17-.24-.31-.32-.31-.11-.52-.11c-.19 0-.36.03-.5.1s-.25.15-.33.26-.12.24-.12.38h-1.17a1.3 1.3 0 0 1 .15-.61 1.6 1.6 0 0 1 .44-.52 2.2 2.2 0 0 1 .69-.36c.27-.09.57-.13.9-.13.4 0 .75.07 1.06.2s.55.34.73.61.27.6.27 1.01v2.35c0 .24.02.46.05.65a2.1 2.1 0 0 0 .15.49v.08h-1.21c-.06-.13-.1-.29-.13-.48s-.04-.39-.04-.58zm.17-2.15l.01.73h-.84c-.22 0-.41.02-.58.06s-.3.1-.42.18-.19.17-.25.28-.08.24-.08.38.03.27.1.39.16.2.28.27a1 1 0 0 0 .46.1 1.3 1.3 0 0 0 .63-.15c.18-.1.33-.22.43-.37a.8.8 0 0 0 .17-.41l.38.52c-.04.13-.11.28-.2.43s-.22.3-.37.44-.33.25-.54.34-.45.13-.72.13c-.34 0-.65-.07-.92-.21s-.48-.33-.63-.56-.23-.51-.23-.81c0-.28.05-.53.16-.74s.26-.4.47-.55.46-.26.76-.33a4.1 4.1 0 0 1 1.03-.12h.92zm3.42-1.06V438h-1.18v-5.28h1.12l.05 1.01zm1.62-1.04l-.01 1.09c-.07-.01-.15-.02-.23-.03l-.24-.01a1.5 1.5 0 0 0-.53.09c-.15.06-.28.14-.39.24s-.18.23-.23.38-.09.32-.1.5l-.27.02c0-.33.03-.64.1-.92s.16-.53.29-.75.3-.38.5-.5.44-.18.7-.18c.07 0 .15.01.23.02s.15.03.19.04zm1.92 1.04V438h-1.18v-5.28h1.12l.05 1.01zm1.62-1.04l-.01 1.09a2.5 2.5 0 0 0-.23-.03l-.25-.01a1.5 1.5 0 0 0-.53.09c-.15.06-.28.14-.39.24-.1.1-.18.23-.23.38s-.09.32-.1.5l-.27.02c0-.33.03-.64.1-.92s.16-.53.29-.75a1.5 1.5 0 0 1 .5-.5c.2-.12.43-.18.7-.18.07 0 .15.01.23.02s.15.03.19.04zm2.36 4.74l1.44-4.71h1.26l-2.12 6.09a4.2 4.2 0 0 1-.19.42c-.08.15-.18.3-.31.44s-.28.25-.46.34-.41.13-.67.13a1.5 1.5 0 0 1-.3-.03l-.27-.05v-.9l.12.01h.12a1.4 1.4 0 0 0 .49-.07c.13-.05.24-.12.32-.22s.16-.24.22-.42l.38-1.03zm-.81-4.71l1.25 3.96.21 1.24-.81.21-1.92-5.41h1.27z" class="I"/><path d="M378 436.72l1.13-4.41h.59l-.07 1.14-1.21 4.55h-.62l.17-1.28zm-.85-4.41l.92 4.38.08 1.31h-.66l-1.32-5.69h.97zm3.86 4.36l.91-4.36h.98l-1.32 5.69h-.66l.09-1.32zm-1.06-4.36l1.12 4.42.16 1.27h-.62l-1.19-4.55-.06-1.14h.59zm7.39 4.91v.78h-3.02v-.78h3.02zm-2.74-4.91V438h-.98v-5.69h.98zm2.35 2.38v.76h-2.62v-.76h2.63zm.38-2.38v.78h-3v-.78h3zm2.47 5.69h-1.21v-.78h1.21c.35 0 .65-.08.88-.23a1.4 1.4 0 0 0 .54-.66 2.6 2.6 0 0 0 .18-1.02V435c0-.31-.04-.58-.11-.82a1.6 1.6 0 0 0-.31-.6c-.13-.16-.3-.28-.49-.37s-.42-.12-.67-.12h-1.27v-.78h1.27a2.7 2.7 0 0 1 1.03.19c.31.13.58.31.81.54s.4.52.53.85a3.2 3.2 0 0 1 .18 1.11v.3a3.2 3.2 0 0 1-.18 1.11 2.4 2.4 0 0 1-.53.85c-.23.23-.5.42-.82.54s-.67.19-1.06.19zm-.67-5.69V438h-.98v-5.69h.98z" class="G"/><path d="M214 452.99c6.63 0 12-5.32 12-11.88s-5.37-11.88-12-11.88-12 5.32-12 11.88 5.37 11.88 12 11.88z" class="K"/><path d="M217.2 439.55h-6.35v7.1h6.35v-7.1z" class="F"/><path d="M224.29 447.29c-3.39-1.5-7.08-2.03-7.08-2.03-1.7 1.75-4.85 1.77-6.35 0 0 0-3.69.53-7.08 2.03a12 12 0 0 0 10.26 5.71 12 12 0 0 0 10.26-5.71z" class="L"/><path d="M213.94 447.39h-.06c-1.64-.02-3.02-.73-3.79-1.96l.14-.08c.74 1.18 2.08 1.87 3.66 1.89h.06c1.63 0 3.12-.72 3.89-1.89l.14.09c-.8 1.22-2.34 1.96-4.02 1.96z" fill="#b73d49"/><path d="M220.03 435.64c0 3.28-1.82 7.55-5.85 7.47-4.33 0-5.98-3.79-5.98-7.07-.76-2.13.15-4.45 1.73-4.88.99-1.63 2.7-2.16 4.43-2.16 3.32 0 6.59 2.41 5.67 6.64z" class="H"/><path d="M220.03 436.09c-.34-.8-1.03-.41-1.03-.41.14-3.13-1.47-5.31-4.97-5.31s-5.09 2.61-4.97 5.31c0 0-.69-.39-1.03.41s.28 2.68.66 3.27.96.34.96.34a11.8 11.8 0 0 0 .32 1.84 13.8 13.8 0 0 0 2.76 2.93c.77.45 1.9.45 2.59 0a13.8 13.8 0 0 0 2.76-2.93c.18-.46.31-1.86.31-1.86s.58.28.96-.32 1-2.47.66-3.27z" class="F"/><g class="J"><path d="M214.06 444.58c-1.43 0-2.48-.98-3.15-1.71l.12-.11c.65.71 1.67 1.66 3.03 1.66 1.29 0 2.22-.84 2.97-1.66l.12.11c-.77.85-1.74 1.71-3.09 1.71zm-4.41-5.73l-.16.02.1.86.16-.02-.1-.86zm8.76-.01l-.09.83.16.02.09-.83-.16-.02zm-9.92-.95c-.03-.12-.31-1.16.07-1.45.13-.08.23-.07.3-.05.19.06.29.3.3.33l-.15.06c-.02-.05-.1-.2-.2-.23-.05-.02-.1-.01-.15.03-.22.16-.12.87-.01 1.27l-.16.04zm11.09 0l-.16-.04c.11-.41.21-1.11-.01-1.28-.05-.03-.1-.04-.15-.03-.1.03-.18.18-.2.23l-.15-.06c.01-.03.11-.26.3-.33.06-.02.17-.03.29.05.38.29.11 1.33.08 1.45z"/></g><path d="M209.07 435.69a5.6 5.6 0 0 1 1.47-2.59c2.02 2.33 4.51 3.85 8.46 2.59l.3-.99-.48-2.18c0-.08-1.56-1.52-1.56-1.52l-2.03-.83h-2.09l-1.67.47-1.47 1.23-.93 1.85v1.97h0z" class="H"/><g fill="#878787"><path d="M232.58 470.31h2.01a2.8 2.8 0 0 1 1.1.2 1.5 1.5 0 0 1 .7.58 1.7 1.7 0 0 1 .25.94 1.7 1.7 0 0 1-.16.75c-.1.22-.25.4-.44.55s-.42.26-.68.34l-.3.14h-1.81l-.01-.78h1.35c.24 0 .43-.04.59-.12s.27-.2.35-.34.12-.31.12-.49c0-.2-.04-.37-.12-.51s-.19-.26-.35-.34-.36-.12-.6-.12h-1.03V476h-.98v-5.69zm3.25 5.69l-1.34-2.56h1.03l1.36 2.51v.05h-1.05zm3.56.08c-.31 0-.59-.05-.85-.15a1.8 1.8 0 0 1-.64-.43c-.18-.18-.31-.4-.4-.65s-.14-.52-.14-.81v-.16c0-.33.05-.63.15-.9s.23-.5.4-.69.38-.34.61-.44.49-.15.76-.15c.3 0 .57.05.79.15s.41.24.56.43.26.4.34.65.11.53.11.84v.4h-3.27v-.68h2.34v-.07c0-.17-.04-.33-.1-.48s-.15-.27-.28-.36-.29-.14-.5-.14c-.16 0-.3.03-.42.1s-.22.16-.3.28a1.7 1.7 0 0 0-.19.45 2.6 2.6 0 0 0-.06.59v.16a2.1 2.1 0 0 0 .07.52c.04.16.13.29.23.41s.22.21.36.28.3.1.48.1c.23 0 .43-.05.61-.14s.33-.22.46-.39l.5.48c-.09.13-.21.26-.36.38s-.32.22-.53.29-.45.11-.73.11zm3.37-3.49v5.04h-.94v-5.85h.87l.07.81zm2.75 1.26v.08a3.2 3.2 0 0 1-.11.86c-.07.26-.17.49-.32.68s-.31.34-.51.45-.44.16-.7.16-.49-.05-.69-.14-.36-.24-.5-.42a2.1 2.1 0 0 1-.33-.63c-.08-.24-.14-.51-.17-.81v-.32a4.3 4.3 0 0 1 .17-.84 2.1 2.1 0 0 1 .33-.65c.14-.18.3-.32.5-.42s.42-.15.68-.15c.27 0 .5.05.71.16s.38.25.52.44.25.41.32.68.11.56.11.88zm-.94.08v-.08c0-.2-.02-.38-.05-.54s-.09-.32-.17-.45-.18-.23-.3-.3-.26-.11-.43-.11-.31.03-.43.09-.22.13-.3.23-.14.21-.19.35-.07.27-.09.43v.76a1.6 1.6 0 0 0 .16.51c.08.15.18.28.32.38s.32.14.54.14c.17 0 .31-.04.43-.11s.22-.17.29-.3a1.5 1.5 0 0 0 .17-.45 2.6 2.6 0 0 0 .05-.54zm2.75-3.93v6h-.94v-6h.94zm3.41 5.15v-2.01c0-.15-.03-.28-.08-.39s-.14-.19-.25-.25-.25-.09-.41-.09c-.15 0-.29.03-.4.08s-.2.12-.26.21-.09.19-.09.3h-.94a1 1 0 0 1 .12-.48c.08-.15.2-.3.35-.42a1.8 1.8 0 0 1 .55-.29c.21-.07.45-.11.72-.11a2.1 2.1 0 0 1 .84.16c.25.11.44.27.58.48s.22.48.22.81v1.88c0 .19.01.37.04.52a1.8 1.8 0 0 0 .12.39v.06h-.97c-.04-.1-.08-.23-.1-.39l-.04-.46zm.14-1.72l.01.58h-.68c-.17 0-.33.02-.46.05a1 1 0 0 0-.33.14c-.09.06-.16.14-.2.23s-.07.19-.07.3.03.21.08.31.13.16.23.22a.8.8 0 0 0 .37.08 1 1 0 0 0 .5-.12c.14-.08.26-.18.34-.29s.13-.23.13-.33l.31.42c-.03.11-.09.22-.16.34s-.17.24-.3.35-.27.2-.43.27-.36.1-.58.1c-.28 0-.52-.05-.74-.16s-.39-.26-.51-.45-.18-.4-.18-.64c0-.22.04-.42.13-.59s.21-.32.38-.44a1.8 1.8 0 0 1 .61-.27 3.3 3.3 0 0 1 .82-.09h.74zm2.96 2.11l1.15-3.77h1.01l-1.7 4.87-.15.34c-.06.12-.15.24-.25.35a1.1 1.1 0 0 1-.37.27c-.15.07-.33.11-.54.11-.08 0-.16-.01-.24-.02l-.22-.04v-.72l.09.01h.09c.16 0 .29-.02.39-.06s.19-.1.25-.18.13-.19.17-.34l.31-.82zm-.65-3.77l1 3.16.17.99-.65.17-1.54-4.32h1.02zm18.4-1.46h2.01a2.8 2.8 0 0 1 1.11.2 1.5 1.5 0 0 1 .7.58 1.7 1.7 0 0 1 .25.94 1.7 1.7 0 0 1-.16.75c-.1.22-.25.4-.44.55s-.42.26-.68.34l-.3.14h-1.81l-.01-.78h1.36c.23 0 .43-.04.59-.12s.27-.2.35-.34.12-.31.12-.49c0-.2-.04-.37-.12-.51s-.19-.26-.35-.34-.36-.12-.61-.12h-1.03V476h-.98v-5.69zm3.25 5.69l-1.34-2.56h1.03l1.35 2.51v.05h-1.05zm3.56.08a2.3 2.3 0 0 1-.85-.15 1.9 1.9 0 0 1-.64-.43c-.18-.18-.31-.4-.4-.65s-.14-.52-.14-.81v-.16c0-.33.05-.63.14-.9s.23-.5.4-.69.38-.34.61-.44.49-.15.76-.15c.3 0 .57.05.79.15s.41.24.56.43.26.4.34.65.11.53.11.84v.4h-3.27v-.68h2.34v-.07c-.01-.17-.04-.33-.1-.48s-.15-.27-.28-.36-.29-.14-.5-.14c-.16 0-.3.03-.42.1s-.22.16-.3.28a1.7 1.7 0 0 0-.19.45 2.6 2.6 0 0 0-.06.59v.16a2.1 2.1 0 0 0 .07.52c.04.16.13.29.23.41s.22.21.36.28.3.1.48.1c.23 0 .43-.05.61-.14s.33-.22.46-.39l.5.48c-.09.13-.21.26-.36.38s-.32.22-.54.29-.45.11-.73.11zm3.37-3.49v5.04h-.94v-5.85h.87l.07.81zm2.75 1.26v.08a3.2 3.2 0 0 1-.11.86c-.07.26-.18.49-.32.68s-.31.34-.51.45-.44.16-.7.16-.49-.05-.69-.14-.36-.24-.5-.42a2.1 2.1 0 0 1-.33-.63c-.08-.24-.14-.51-.17-.81v-.32a4.3 4.3 0 0 1 .17-.84 2.1 2.1 0 0 1 .33-.65c.14-.18.3-.32.5-.42s.42-.15.68-.15c.27 0 .5.05.71.16s.38.25.52.44.25.41.32.68.11.56.11.88zm-.94.08v-.08c0-.2-.02-.38-.05-.54s-.09-.32-.17-.45-.18-.23-.3-.3-.26-.11-.43-.11-.31.03-.43.09-.22.13-.3.23-.14.21-.19.35-.07.27-.09.43v.76a1.6 1.6 0 0 0 .16.51c.08.15.18.28.32.38s.32.14.54.14c.17 0 .31-.04.43-.11s.22-.17.29-.3.13-.28.17-.45a2.6 2.6 0 0 0 .05-.54zm1.56 0v-.09a2.6 2.6 0 0 1 .13-.85c.09-.26.22-.49.38-.68s.38-.35.62-.45.52-.16.83-.16a2 2 0 0 1 .83.16c.24.11.45.26.62.45a2 2 0 0 1 .39.68c.09.26.13.54.13.85v.09a2.6 2.6 0 0 1-.13.85c-.09.26-.22.49-.39.68s-.37.34-.62.45a2 2 0 0 1-.82.16c-.3 0-.59-.05-.83-.16s-.45-.26-.62-.45-.3-.42-.39-.68a2.6 2.6 0 0 1-.13-.85zm.94-.09v.09a2.4 2.4 0 0 0 .06.54c.04.17.1.32.18.44s.19.23.32.3.29.11.46.11a.9.9 0 0 0 .77-.41c.08-.13.14-.28.18-.44a2.3 2.3 0 0 0 .06-.54v-.09a2.2 2.2 0 0 0-.06-.53c-.04-.16-.1-.32-.19-.45s-.19-.23-.32-.3-.28-.11-.46-.11a.9.9 0 0 0-.46.11c-.13.07-.23.17-.32.3s-.14.28-.18.45-.06.34-.06.53zm4.72-1.27V476h-.94v-4.23h.9l.04.8zm1.29-.83l-.01.88-.19-.02c-.07-.01-.13-.01-.2-.01-.16 0-.3.02-.43.07s-.23.11-.31.19-.14.19-.19.31-.07.25-.08.4l-.22.02a3.3 3.3 0 0 1 .08-.74 1.8 1.8 0 0 1 .24-.6 1.2 1.2 0 0 1 .4-.4c.16-.1.35-.14.56-.14a1.1 1.1 0 0 1 .18.02l.15.03zm2.72.03v.69h-2.38v-.69h2.38zm-1.69-1.04h.94v4.09c0 .13.02.23.05.3s.09.11.16.14.15.04.24.04c.06 0 .13 0 .19-.01l.14-.02v.72c-.08.02-.17.05-.27.06s-.22.03-.35.03c-.22 0-.41-.04-.57-.11a.8.8 0 0 1-.39-.38c-.09-.18-.14-.41-.14-.69v-4.15z"/></g><g stroke="#d3d3d3"><path d="M184 228v229h12m-25 41h231"/></g><g class="D"><path d="M368.23 53.22c.22.15.26.47.09.68l-4.52 5.64c-.38.48-1.11.48-1.5 0l-4.52-5.64c-.17-.21-.13-.52.09-.68a9.3 9.3 0 0 1 5.18-1.63 9.2 9.2 0 0 1 5.18 1.63zm10.61-1.28c.31-.31.83-.09.83.35v7.62c0 .54-.44.98-.98.98h-7.62c-.44 0-.65-.53-.35-.83l8.11-8.11zm12.07.14h.73c.4 0 .73.33.73.73v7.33c0 .4-.33.73-.73.73h-4.4c-.41 0-.73-.33-.73-.73v-7.33c0-.4.33-.73.73-.73h.73v-.98h2.93v.98z"/><path opacity=".6" d="M178.85 50.68V58h-1.21v-5.89l-1.79.61v-1l2.85-1.04h.14zm7.43 6.36V58h-4.89v-.83l2.38-2.59.62-.76c.15-.21.26-.41.32-.58s.09-.34.09-.51c0-.23-.04-.43-.13-.61s-.21-.32-.37-.42-.36-.16-.6-.16c-.27 0-.5.06-.68.18s-.32.28-.42.49-.14.44-.14.7h-1.21c0-.42.1-.81.29-1.16s.47-.63.84-.84.81-.32 1.33-.32c.49 0 .9.08 1.24.25s.6.4.78.7.27.66.27 1.07c0 .23-.04.45-.11.68s-.18.45-.32.67-.29.44-.48.67l-.61.67-1.58 1.74h3.37zm1.03.36c0-.19.06-.34.19-.47s.3-.2.52-.2.39.07.52.2.19.28.19.47-.06.34-.19.47-.3.19-.52.19a.7.7 0 0 1-.52-.19c-.13-.13-.19-.28-.19-.47zm.01-4.27c0-.19.06-.34.19-.47s.3-.2.52-.2.39.07.52.2.19.28.19.47-.06.34-.19.47-.3.19-.52.19a.7.7 0 0 1-.52-.19c-.13-.13-.19-.28-.19-.47zm4.03.68h.72c.28 0 .51-.05.7-.15s.33-.23.42-.4.14-.37.14-.59c0-.23-.04-.43-.13-.59s-.2-.3-.37-.39-.37-.14-.63-.14c-.21 0-.41.04-.58.13s-.31.2-.41.36-.15.34-.15.55h-1.21a1.8 1.8 0 0 1 .31-1.03c.2-.3.48-.54.83-.71s.75-.26 1.19-.26a3 3 0 0 1 1.23.24c.35.15.63.38.83.69s.3.69.3 1.14c0 .21-.05.42-.15.63s-.24.41-.43.59-.43.32-.71.43a2.8 2.8 0 0 1-.99.16h-.91v-.67zm0 .94v-.66h.91c.43 0 .79.05 1.09.15s.55.24.74.42.33.37.42.6.13.46.13.71c0 .34-.06.65-.19.91s-.29.49-.52.67a2.3 2.3 0 0 1-.79.42c-.3.09-.62.14-.97.14a3.1 3.1 0 0 1-.9-.13c-.29-.09-.54-.22-.77-.39s-.41-.39-.54-.65a2 2 0 0 1-.2-.9h1.21a1.1 1.1 0 0 0 .15.58c.1.16.25.29.43.39s.4.14.64.14c.25 0 .47-.05.66-.14s.33-.22.42-.4c.1-.18.15-.39.15-.64 0-.28-.06-.51-.17-.69s-.27-.31-.47-.39-.44-.13-.72-.13h-.72zm9.17-1.01v1.19a5.5 5.5 0 0 1-.17 1.46c-.11.4-.27.73-.48.98a1.9 1.9 0 0 1-.76.55 2.6 2.6 0 0 1-.98.18 2.8 2.8 0 0 1-.8-.11c-.24-.07-.47-.19-.66-.35s-.37-.36-.51-.61a3.4 3.4 0 0 1-.32-.9c-.07-.35-.11-.75-.11-1.21v-1.19c0-.57.06-1.06.17-1.45s.28-.72.49-.97.46-.43.75-.55a2.7 2.7 0 0 1 .98-.17c.29 0 .56.04.8.11s.47.18.66.34.36.35.5.6.25.54.32.89a5.8 5.8 0 0 1 .11 1.2zm-1.21 1.36v-1.54c0-.29-.02-.55-.05-.77a2.3 2.3 0 0 0-.15-.57c-.06-.16-.14-.28-.24-.38s-.21-.17-.33-.22-.26-.07-.42-.07a1.1 1.1 0 0 0-.5.11.9.9 0 0 0-.37.34c-.1.16-.18.36-.23.62a4.9 4.9 0 0 0-.07.93v1.54a5.4 5.4 0 0 0 .05.78c.03.22.08.42.15.58s.15.29.24.39a.9.9 0 0 0 .33.22 1.2 1.2 0 0 0 .42.07c.19 0 .36-.04.51-.11s.27-.19.37-.35a1.9 1.9 0 0 0 .23-.64c.05-.26.07-.57.07-.94z"/></g></g><g fill="#262c44"><path d="M379.48 574H189.61c-23.09 0-41.87-20.59-41.87-45.89V72.89c0-25.3 18.78-45.89 41.87-45.89h189.87c23.09 0 41.87 20.59 41.87 45.89v455.22c0 25.3-18.78 45.89-41.87 45.89zM189.61 38.47c-17.32 0-31.4 15.44-31.4 34.42v455.22c0 18.98 14.09 34.42 31.41 34.42h189.87c17.32 0 31.41-15.44 31.41-34.42V72.89c0-18.98-14.09-34.42-31.41-34.42H189.61z"/><path d="M425 111.99h-8.58v87.81H425v-87.8z"/><use href="#a"/><use href="#a" y="49.26"/><path d="M313.2 65.24h-46a9.1 9.1 0 0 1-9.11-9.09 9.1 9.1 0 0 1 9.11-9.09h46a9.1 9.1 0 0 1 9.11 9.09 9.1 9.1 0 0 1-9.11 9.09z"/></g><path d="M313.2 60.97c2.67 0 4.83-2.16 4.83-4.82s-2.16-4.82-4.83-4.82-4.83 2.16-4.83 4.82 2.16 4.82 4.83 4.82z" fill="#000"/><path d="M313.2 59.03c1.59 0 2.89-1.29 2.89-2.88s-1.29-2.88-2.89-2.88-2.89 1.29-2.89 2.88 1.29 2.88 2.89 2.88z" fill="#181d2d"/><path d="M297.23 58.48H270.2c-1.29 0-2.33-1.04-2.33-2.33s1.05-2.33 2.33-2.33h27.04c1.29 0 2.34 1.04 2.34 2.33s-1.05 2.33-2.34 2.33z" fill="#000"/><path d="M465.24 170.27a24 24 0 0 0 16.5-45.08 24 24 0 0 0-16.5 45.08z" class="B"/><path d="M478.4 166.41c-.68-.25-.74-.78-.57-1.23a10.4 10.4 0 0 0-6.14-13.24c-5.41-1.98-11.26.73-13.24 6.14-.25.68-.78.74-1.23.57-.68-.25-.74-.78-.57-1.23a12.3 12.3 0 0 1 15.7-7.29c6.31 2.31 9.68 9.16 7.29 15.7-.16.45-.78.74-1.23.57zm4.64-18.25a2.9 2.9 0 0 0 3.7-1.71c.55-1.49-.22-3.15-1.72-3.69s-3.15.22-3.69 1.72.22 3.15 1.71 3.69zm-2.76-7.14c-.23-.08-.68-.25-.59-.47-.29-.62-.12-1.07.5-1.35l5.32-2.65c.62-.29 1.07-.12 1.35.5s.12 1.07-.5 1.35l-5.23 2.43c-.39.37-.62.29-.84.2zm-13.02 1.37c1.49.55 3.15-.22 3.69-1.71a2.9 2.9 0 0 0-1.71-3.7c-1.49-.55-3.15.22-3.69 1.72s.22 3.15 1.71 3.69zm6.94-3.6c-.23-.08-.59-.47-.51-.7l-2.43-5.23c-.28-.62-.12-1.07.5-1.35s1.07-.12 1.35.5l2.35 5.46c.29.62.12 1.07-.5 1.35-.31.14-.53.06-.76-.02z" class="D"/><path d="M422.37 540.6a32 32 0 0 0 16-61.97 32 32 0 0 0-16 61.97z" class="B"/><path d="M437.96 523.8l-21.07-5.44c-.93-.24-1.08-.94-.92-1.56.24-.93.94-1.08 1.56-.92l21.07 5.44c.93.24 1.08.94.92 1.56s-.63 1.16-1.56.92zm5.15-14.86c2.05.53 4.15-.7 4.68-2.76s-.7-4.15-2.76-4.68-4.15.7-4.68 2.76.7 4.15 2.76 4.68zm-21.68-5.6c2.05.53 4.15-.7 4.68-2.76s-.71-4.15-2.76-4.68-4.15.71-4.68 2.76.7 4.15 2.76 4.68z" class="D"/><path d="M70 303.95a20 20 0 1 0-16.86-36.27A20 20 0 0 0 70 303.95z" class="B"/><g class="D"><path d="M57.79 299.04l-.36.17c-.63.07-.8-.29-1.05-.84-.08-3.49 2.7-6.99 6.51-8.76s7.83-1.66 10.46.21c.35.28.42.91.14 1.26s-.91.42-1.26.14c-2.28-1.59-5.59-1.59-8.67-.16-3.26 1.52-5.67 4.4-5.48 7.18.17.36.07.63-.29.8z"/><use href="#b"/><use href="#b" x="-12.7" y="5.91"/></g><path d="M465.94 304.14a16 16 0 0 0-8.86-30.75 16 16 0 1 0 8.86 30.75z" class="B"/><g class="D"><path d="M455.48 293.83l-.31.09c-.42.29-.33.59-.19 1.06 1.79 2.15 5.3 2.8 8.53 1.87s5.6-3.11 6.21-5.62c.06-.35-.22-.77-.57-.83s-.77.22-.83.57c-.55 2.16-2.54 3.9-5.15 4.65-2.77.8-5.74.32-7.08-1.46-.09-.31-.29-.42-.59-.33z"/><use href="#c"/><use href="#c" x="-10.76" y="3.1"/></g><path d="M97.53 102.78a24 24 0 1 0 6.43-47.57 24 24 0 1 0-6.43 47.57z" class="B"/><g class="D"><path d="M110.03 83.89c-.7-.09-.99.31-1.05.74-1.04 3.82-7.47 6.59-11.03 6.1s-9.03-4.85-9.02-8.81c.09-.65-.35-.93-.82-.99-.7-.09-.99.31-1.05.74-.82 6.05 3.87 11.75 10.4 12.63s12.54-3.15 13.38-9.42c.06-.43-.35-.93-.82-.99z"/><path d="M95.08 64.92c.21.01.41.04.59.1s.34.15.46.28c.3.32.31.54.15.7-.14.14-.44.22-.78.27l-.76.09c-.91.1-1.37.16-2.55.69l-.88.46c-.28.16-.56.34-.83.53-.06.04-.14.11-.24.2l-.37.3c-.37.29-.78.53-.98.3-.32-.36.43-1.16.71-1.47l.05-.05a7.4 7.4 0 0 1 2.45-1.81c.9-.4 1.89-.6 2.96-.6h0zm15.5 12.98c-1 2.63-6.11.39-7.14-.96-.5-.65-.23-1.29.25-2.08s1.02-1.45 1.66-1.93c2.72-2.01 4.63.37 5.37 2.84.24.79.15 1.36-.15 2.14zm-15.46-2.09c-1.59 1-3.6.83-4.76-.64-.56-.72-1.2-1.42-.73-2.22s1.02-1.45 1.66-1.93c2.72-2.01 4.63.37 5.37 2.84.24.79-.73 1.43-1.55 1.95zm12.49-9.14c-.41-.09-.78-.09-1.06.08-.62.38-.32.68.21.93 1.26.59 1.61.52 2.81 1.45.64.5 1.21 1.05 1.71 1.66.22.27.85 1.41 1.22 1.17.38-.24-.2-1.29-.35-1.59-.98-1.92-2.49-3.17-4.53-3.72z" class="E"/></g><path d="M141.08 433.5a24 24 0 1 0-10.5-46.84 24 24 0 0 0 10.5 46.84z" class="B"/><g class="D"><path d="M142.08 417.05c-.23.05-.47.11-.52-.13-4.17-1.03-8.2 1.84-8.2 1.84-.65.39-1.17.26-1.8-.34-.39-.65-.26-1.17.34-1.8.23-.05 5.09-3.6 10.3-2.31.52.13.91.78.84 1.53s-.49 1.09-.96 1.2z"/><use href="#d"/><use href="#d" x="-16.4" y="3.67"/><path d="M541 359.75a23.5 23.5 0 1 1 0 47 23.5 23.5 0 1 1 0-47z" stroke="#0668e1"/></g><g class="B"><path d="M550.86 386.85c-.71 0-.94.44-.94.87-.52 3.93-6.52 7.53-10.12 7.53s-9.6-3.6-10.12-7.53c0-.65-.47-.87-.94-.87-.71 0-.94.44-.94.87 0 6.11 5.41 11.13 12 11.13s12-4.8 12-11.13c0-.44-.47-.87-.94-.87z"/><path d="M533.5 370.06c.21-.02.41-.01.6.02a1.1 1.1 0 0 1 .49.22c.34.28.38.5.25.67-.12.16-.41.28-.74.37l-.74.19c-.89.22-1.34.34-2.43 1.03a10.2 10.2 0 0 0-.81.57l-.75.64a3.7 3.7 0 0 0-.21.23l-.32.35c-.33.33-.7.63-.93.43-.36-.31.27-1.21.51-1.55l.04-.06a7.4 7.4 0 0 1 2.19-2.12c.84-.52 1.79-.85 2.85-.99h0zm16.28 9.29c-1.96-1.44-3.83-1.41-5.62-.02-.8.63-1.16.28-.8-.58s.82-1.58 1.39-2.13c2.43-2.36 4.64-.25 5.71 2.09.34.75.16 1.25-.68.64zm-14.18 0c-1.96-1.44-3.83-1.41-5.62-.02-.81.63-1.16.28-.8-.58s.82-1.58 1.39-2.13c2.43-2.36 4.64-.25 5.7 2.09.34.75.16 1.25-.68.64zm10.56-9.22c-.42-.03-.78.01-1.04.23-.57.46-.23.72.33.89 1.33.41 1.67.3 2.98 1.06a10.6 10.6 0 0 1 1.91 1.42c.25.23 1.04 1.29 1.37 1 .34-.29-.37-1.25-.56-1.53-1.23-1.77-2.89-2.81-4.99-3.08z" class="E"/></g><path d="M99.15 490.28a14 14 0 0 1 19.11 5.12 14 14 0 0 1-5.12 19.11 14 14 0 0 1-19.11-5.12 14 14 0 0 1 5.12-19.11z" stroke="#0668e1" stroke-width="1.47" class="D"/><path d="M101.28 507.23l-.25.15c-.31.35-.16.6-.02.86 2.44 2.16 6.02 2.48 8.7.93s4.02-4.53 3.64-7.54c-.09-.46-.37-.64-.7-.62a.6.6 0 0 0-.54.82c.28 2.56-.82 5.06-2.99 6.31-2.3 1.32-5.22.97-7.23-.75-.15-.25-.35-.31-.6-.16zm-.11-4.01c.84-.49 1.14-1.57.65-2.41s-1.57-1.14-2.41-.65-1.13 1.57-.65 2.41 1.57 1.13 2.41.65zm8.93-5.16c.84-.49 1.13-1.57.65-2.41s-1.57-1.13-2.41-.65-1.14 1.57-.65 2.41 1.57 1.13 2.41.65z" class="B"/><defs><clipPath id="A"><rect x="153" y="38" width="264" height="529" rx="30" class="D"/></clipPath><clipPath id="B"><path transform="translate(384.73 77.13)" d="M0 0h17.6v17.6H0z" class="D"/></clipPath><path id="C" d="M183 543.99c6.63 0 12-5.32 12-11.88s-5.37-11.88-12-11.88-12 5.32-12 11.88 5.37 11.88 12 11.88z"/><path id="D" d="M193.29 538.29c-3.39-1.5-7.08-2.03-7.08-2.03-1.7 1.75-4.85 1.77-6.35 0 0 0-3.69.53-7.08 2.03a12 12 0 0 0 10.26 5.71 12 12 0 0 0 10.26-5.71z"/><path id="E" d="M182.94 538.39h-.06c-1.64-.02-3.02-.73-3.79-1.96l.14-.08c.74 1.18 2.08 1.87 3.66 1.89h.06c1.63 0 3.12-.72 3.89-1.89l.14.09c-.8 1.22-2.34 1.96-4.02 1.96z"/><path id="F" d="M189.03 526.64c0 3.28-1.82 7.55-5.85 7.47-4.33 0-5.98-3.79-5.98-7.07-.76-2.13.15-4.45 1.73-4.88.99-1.63 2.7-2.16 4.43-2.16 3.32 0 6.59 2.41 5.67 6.64z"/><path id="G" d="M183.06 535.58c-1.43 0-2.48-.98-3.15-1.71l.12-.11c.65.71 1.67 1.66 3.03 1.66 1.29 0 2.22-.84 2.97-1.66l.12.11c-.77.85-1.74 1.71-3.09 1.71z"/><path id="H" d="M178.65 529.85l-.16.02.1.86.16-.02-.1-.86z"/><path id="I" d="M187.41 529.84l-.09.83.16.02.09-.83-.16-.02z"/><path id="J" d="M188.58 528.89l-.16-.04c.11-.41.21-1.11-.01-1.28-.05-.03-.1-.04-.15-.03-.1.03-.18.18-.2.23l-.15-.06c.01-.03.11-.26.3-.33.06-.02.17-.03.29.05.38.29.11 1.33.08 1.45z"/><path id="K" d="M209.5 284a7.5 7.5 0 1 0 0-15 7.5 7.5 0 1 0 0 15z"/><path id="L" d="M212.95 281.45c-.22 0-.3-.15-.3-.3 0-1.73-1.42-3.23-3.22-3.23a3.2 3.2 0 0 0-3.22 3.23c0 .22-.15.3-.3.3-.22 0-.3-.15-.3-.3 0-2.1 1.72-3.82 3.82-3.82a3.8 3.8 0 0 1 3.82 3.82c0 .15-.15.3-.3.3z"/><path id="M" d="M212.35 275.6a.9.9 0 1 0 0-1.8.9.9 0 1 0 0 1.8z"/><path id="N" d="M210.78 273.8c-.07 0-.22 0-.22-.07-.15-.15-.15-.3 0-.45l1.28-1.35c.15-.15.3-.15.45 0s.15.3 0 .45l-1.27 1.27c-.08.15-.15.15-.23.15z"/><path id="O" d="M208.75 273.8c-.08 0-.23-.07-.23-.15l-1.27-1.27c-.15-.15-.15-.3 0-.45s.3-.15.45 0l1.28 1.35c.15.15.15.3 0 .45-.08.07-.15.07-.22.07z"/><path id="P" d="M224.16 280.4h-.15c-.23-.07-.23-.23-.23-.37.53-1.57 2.03-2.62 3.6-2.62s2.92.98 3.52 2.4c.08.23 0 .38-.15.45-.23.07-.37 0-.45-.23-.53-1.2-1.65-2.02-2.92-2.02-1.35 0-2.55.9-3 2.17 0 .15-.08.23-.23.23z"/><path id="Q" d="M242.21 280.4h-.15c-.22-.07-.22-.22-.22-.45.53-1.2 2.03-1.95 3.6-1.95s2.93.68 3.53 1.73c.08.15 0 .38-.15.45s-.37 0-.45-.15c-.53-.9-1.65-1.42-2.93-1.42-1.35 0-2.62.6-3 1.57 0 .15-.07.22-.22.22z"/><path id="R" d="M265.87 279.27c-.07 0-.15 0-.23-.07a4.2 4.2 0 0 0-4.2 0c-.15.15-.37.07-.45-.15-.15-.15-.07-.37.15-.45 1.35-.9 3.6-.9 4.88 0 .15.15.23.3.15.45s-.15.23-.3.23z"/><path id="S" d="M283.08 279.05c-.07 0-.15 0-.15-.07-1.2-.6-2.62 0-2.62 0-.23.07-.37 0-.52-.23-.08-.23 0-.37.22-.52.07 0 1.8-.75 3.3 0 .15.07.23.3.15.52s-.22.3-.37.3z"/><path id="T" d="M302.25 279.27h-5.1c-.23 0-.3-.15-.3-.3 0-.22.15-.3.3-.3h5.1c.23 0 .3.15.3.3s-.07.3-.3.3z"/><path id="U" d="M317.81 279.35c-1.43 0-2.4-.68-2.48-.75-.15-.15-.22-.3-.07-.45s.3-.23.45-.07c.08.07 1.95 1.35 4.2 0 .15-.08.38-.08.45.15.07.15.07.38-.15.45-.82.53-1.65.68-2.4.68z"/><path id="V" d="M332.41 278h-.15c-.22.07-.22.23-.22.45.52 1.2 2.02 1.95 3.6 1.95s2.93-.68 3.53-1.73c.07-.15 0-.37-.15-.45s-.37 0-.45.15c-.52.9-1.65 1.43-2.93 1.43-1.35 0-2.62-.6-3-1.57 0-.15-.07-.23-.22-.23z"/><path id="W" d="M350.45 277.4h-.15c-.22.07-.22.23-.22.38.52 1.57 2.02 2.63 3.6 2.63s2.93-.98 3.53-2.4c.07-.23 0-.37-.15-.45-.22-.07-.37 0-.45.23-.52 1.2-1.65 2.02-2.93 2.02-1.35 0-2.55-.9-3-2.17 0-.15-.07-.23-.22-.23z"/><path id="X" d="M374.94 277.63c-.22 0-.29.14-.29.27-.16 1.23-2.04 2.35-3.16 2.35s-3-1.12-3.16-2.35c0-.2-.15-.27-.29-.27-.22 0-.29.14-.29.27 0 1.91 1.69 3.48 3.75 3.48s3.75-1.5 3.75-3.48c0-.14-.15-.27-.29-.27z"/><path id="Y" d="M369.52 272.38c.07 0 .13 0 .19.01s.11.03.15.07c.11.09.12.16.08.21s-.13.09-.23.11l-.23.06c-.28.07-.42.11-.76.32-.09.06-.17.11-.25.18l-.23.2c-.02.01-.04.04-.07.07l-.1.11c-.1.1-.22.2-.29.13-.11-.1.09-.38.16-.48l.01-.02c.19-.28.42-.5.68-.66s.56-.26.89-.31zm5.09 2.9c-.61-.45-1.2-.44-1.76 0-.25.2-.36.09-.25-.18s.25-.49.44-.67c.76-.74 1.45-.08 1.78.65.11.23.05.39-.21.2zm-4.43 0c-.61-.45-1.2-.44-1.76 0-.25.2-.36.09-.25-.18s.25-.49.43-.67c.76-.74 1.45-.08 1.78.65.11.23.05.39-.21.2zm3.3-2.88c-.13-.01-.24 0-.32.07-.18.14-.07.23.1.28.42.13.52.09.93.33.22.13.42.28.6.44.08.07.32.4.43.31s-.12-.39-.18-.48c-.38-.55-.9-.88-1.56-.96z"/><path id="Z" d="M387.56 272.38c.07 0 .13 0 .19.01s.11.03.15.07c.11.09.12.16.08.21s-.13.09-.23.11l-.23.06c-.28.07-.42.11-.76.32-.09.06-.17.11-.25.18l-.23.2c-.02.01-.04.04-.07.07l-.1.11c-.1.1-.22.2-.29.13-.11-.1.09-.38.16-.48l.01-.02c.19-.28.42-.5.68-.66s.56-.26.89-.31zm5.34 3.37c-.2.86-1.87.38-2.25 0-.18-.18-.12-.39-.01-.66s.25-.49.44-.67c.76-.74 1.45-.08 1.78.65.11.23.1.41.04.67zm-4.87 0c-.45.38-1.08.41-1.5 0-.2-.2-.43-.39-.32-.66s.25-.49.43-.67c.76-.74 1.45-.08 1.78.65.11.23-.17.47-.4.67zm3.49-3.35c-.13-.01-.24 0-.32.07-.18.14-.07.23.1.28.42.13.52.09.93.33.22.13.42.28.6.44.08.07.32.4.43.31s-.12-.39-.18-.48c-.38-.55-.9-.88-1.56-.96z"/><path id="a" d="M153.58 111.99H145v34.53h8.58v-34.53z"/><path id="b" d="M67.45 280.43a2.4 2.4 0 1 0-2.02-4.35 2.4 2.4 0 1 0 2.02 4.35z"/><path id="c" d="M466.82 285.23c1.02-.29 1.61-1.36 1.31-2.38s-1.36-1.61-2.38-1.31-1.61 1.36-1.31 2.38 1.36 1.61 2.38 1.31z"/><path id="d" d="M144.11 405.28c1.55-.35 2.53-1.89 2.18-3.44s-1.89-2.53-3.44-2.18-2.53 1.89-2.18 3.44 1.89 2.53 3.44 2.18z"/></defs></svg>